{"glyphs":{"0":{"ha":839,"x_min":60,"x_max":779,"o":"m 422 867 q 349 847 382 867 q 293 781 317 826 q 256 663 269 736 q 243 482 243 589 q 253 303 243 375 q 285 186 264 231 q 340 122 307 142 q 415 103 372 103 q 488 124 454 103 q 546 194 521 146 q 585 317 571 242 q 599 499 599 392 q 590 673 599 603 q 560 786 581 743 q 505 848 539 829 q 422 867 471 867 m 60 478 q 86 703 60 607 q 161 862 113 799 q 279 957 210 925 q 435 989 349 989 q 689 874 599 989 q 779 510 779 758 q 752 282 779 381 q 676 117 725 183 q 559 17 628 50 q 406 -17 490 -17 q 152 107 244 -17 q 60 478 60 231 z "},"1":{"ha":440,"x_min":32,"x_max":343,"o":"m 32 792 q 108 815 78 800 q 159 853 139 831 q 190 901 179 875 q 208 958 201 928 l 343 972 q 337 881 339 928 q 334 778 335 835 q 333 653 333 722 q 332 494 332 583 q 332 344 332 411 q 333 218 332 276 q 334 107 333 160 q 336 0 335 54 l 156 0 q 163 235 160 118 q 167 472 167 353 q 163 699 167 583 l 42 704 l 32 792 z "},"2":{"ha":668,"x_min":44,"x_max":610,"o":"m 335 504 q 405 635 375 569 q 435 758 435 700 q 409 838 435 810 q 339 867 383 867 q 252 819 282 867 q 222 669 222 772 l 72 660 q 98 828 72 764 q 164 928 124 892 q 253 976 204 964 q 349 989 303 989 q 469 967 421 989 q 548 910 518 946 q 590 831 578 875 q 603 744 603 788 q 578 621 603 679 q 510 490 554 563 q 411 339 468 424 q 292 139 354 254 q 610 147 451 142 l 596 -10 q 537 -5 581 -7 q 436 -2 493 -3 q 317 -1 379 -1 q 204 0 256 0 l 60 0 l 44 94 q 83 145 51 104 q 156 244 114 186 q 247 370 199 301 q 335 504 294 439 z "},"3":{"ha":707,"x_min":54,"x_max":650,"o":"m 343 97 q 442 144 415 97 q 468 272 468 192 q 458 359 468 325 q 424 413 447 393 q 363 439 401 432 q 271 446 325 446 l 257 558 q 353 569 317 558 q 410 599 390 579 q 437 646 431 618 q 443 708 443 674 q 420 826 443 782 q 340 869 397 869 q 257 828 283 869 q 231 722 231 786 l 74 706 q 99 838 74 785 q 165 925 124 892 q 256 973 206 958 q 356 988 306 988 q 469 966 421 988 q 550 908 518 944 q 598 826 582 872 q 614 731 614 779 q 605 657 614 693 q 577 590 596 621 q 530 537 558 560 q 463 501 501 514 q 606 422 561 488 q 650 261 650 357 q 628 138 650 190 q 565 51 606 86 q 466 0 524 17 q 336 -17 408 -17 q 239 -7 289 -17 q 148 35 189 3 q 81 126 107 67 q 54 285 54 186 l 214 303 q 245 144 214 192 q 343 97 276 97 z "},"4":{"ha":744,"x_min":29,"x_max":701,"o":"m 419 0 q 423 132 421 75 q 428 251 425 189 l 42 251 l 29 371 q 192 664 117 511 q 333 957 267 817 l 608 986 q 602 891 604 942 q 599 772 600 840 q 598 609 599 703 q 597 385 597 515 l 701 385 l 679 251 l 597 251 q 598 122 597 181 q 601 0 599 63 l 419 0 m 431 385 q 431 533 431 468 q 430 651 431 597 q 428 752 429 706 q 426 843 428 799 q 301 621 361 735 q 183 385 242 507 l 431 385 z "},"5":{"ha":692,"x_min":57,"x_max":639,"o":"m 639 301 q 617 149 639 210 q 557 51 596 88 q 464 -1 518 14 q 343 -17 410 -17 q 244 -7 294 -17 q 151 35 193 3 q 83 126 110 67 q 57 285 57 185 l 217 303 q 248 144 217 190 q 347 97 279 97 q 433 144 408 97 q 457 300 457 192 q 428 476 457 422 q 333 531 399 531 q 267 515 290 531 q 228 481 243 500 l 83 472 q 91 632 89 543 q 93 796 93 721 q 92 891 93 849 q 90 972 92 933 l 597 972 l 597 846 l 249 846 q 246 795 247 818 q 244 747 244 772 q 242 687 243 721 q 242 601 242 653 q 294 620 264 613 q 368 628 324 628 q 568 549 497 628 q 639 301 639 469 z "},"6":{"ha":736,"x_min":67,"x_max":681,"o":"m 385 872 q 277 798 310 872 q 240 557 244 724 q 301 589 268 578 q 390 600 335 600 q 497 587 444 600 q 590 540 549 574 q 656 450 631 507 q 681 306 681 393 q 658 162 681 222 q 593 62 635 101 q 493 3 551 22 q 364 -17 435 -17 q 215 15 272 -17 q 124 107 157 47 q 79 253 92 167 q 67 450 67 340 q 85 696 67 593 q 141 863 103 799 q 238 958 179 928 q 381 989 297 989 q 504 967 453 989 q 588 908 556 946 q 635 820 619 871 q 656 710 651 769 l 501 692 q 467 831 496 789 q 385 872 439 872 m 367 500 q 233 450 276 500 q 238 306 233 371 q 258 193 243 240 q 300 120 274 146 q 371 94 326 94 q 466 149 432 94 q 500 318 500 203 q 492 406 500 371 q 468 461 485 440 q 426 491 451 482 q 367 500 401 500 z "},"7":{"ha":599,"x_min":29,"x_max":579,"o":"m 579 894 q 506 696 542 807 q 438 465 471 585 q 376 226 406 346 q 319 0 346 106 l 114 0 q 191 199 151 93 q 267 416 231 306 q 335 636 304 526 q 386 846 367 746 l 42 846 l 29 989 q 103 983 51 986 q 218 978 154 981 q 349 974 282 975 q 469 972 415 972 l 567 972 l 579 894 z "},"8":{"ha":760,"x_min":57,"x_max":703,"o":"m 667 742 q 629 597 667 656 q 515 515 592 539 q 598 485 563 508 q 656 427 633 461 q 691 349 679 393 q 703 257 703 306 q 617 55 703 126 q 386 -17 532 -17 q 255 1 315 -17 q 151 55 194 19 q 82 142 107 90 q 57 264 57 194 q 67 352 57 310 q 101 428 78 394 q 158 485 124 463 q 243 515 193 508 q 174 551 203 528 q 128 603 146 574 q 101 667 110 632 q 93 738 93 701 q 107 826 93 781 q 154 906 121 871 q 244 965 188 942 q 386 988 300 988 q 526 965 471 988 q 612 906 581 942 q 655 827 643 871 q 667 742 667 783 m 518 267 q 506 361 518 325 q 474 417 493 397 q 429 445 454 438 q 379 453 404 453 q 328 445 353 453 q 284 417 303 438 q 253 361 265 397 q 242 269 242 325 q 251 188 242 221 q 280 134 261 154 q 324 106 299 114 q 382 97 350 97 q 436 105 411 97 q 479 131 461 113 q 508 183 497 150 q 518 267 518 215 m 496 714 q 469 824 496 782 q 379 867 442 867 q 290 824 317 867 q 264 715 264 782 q 290 609 264 646 q 379 572 317 572 q 469 610 442 572 q 496 714 496 647 z "},"9":{"ha":743,"x_min":60,"x_max":676,"o":"m 358 100 q 465 178 432 100 q 501 428 497 256 q 440 397 474 408 q 353 386 407 386 q 247 399 299 386 q 153 442 194 411 q 88 528 113 474 q 63 667 63 583 q 85 810 63 750 q 150 910 108 871 q 250 969 192 950 q 379 989 308 989 q 528 957 471 989 q 619 865 586 925 q 664 719 651 806 q 676 522 676 632 q 658 276 676 378 q 602 109 640 174 q 505 14 564 44 q 363 -17 446 -17 q 228 5 282 -17 q 140 64 174 26 q 87 152 106 101 q 60 263 68 203 l 214 281 q 256 142 221 183 q 358 100 292 100 m 376 486 q 510 536 467 486 q 505 675 510 613 q 485 783 500 738 q 442 853 469 828 q 372 878 415 878 q 277 824 311 878 q 243 654 243 769 q 275 522 243 557 q 376 486 307 486 z "}," ":{"ha":294,"x_min":0,"x_max":0,"o":""},"B":{"ha":828,"x_min":99,"x_max":785,"o":"m 103 958 q 167 969 132 964 q 238 979 201 975 q 313 985 275 983 q 385 988 350 988 q 557 966 489 988 q 665 910 625 944 q 719 834 704 876 q 735 750 735 792 q 724 675 735 713 q 689 606 713 638 q 628 551 665 574 q 539 519 590 528 q 649 492 603 514 q 726 436 696 469 q 771 361 757 403 q 785 274 785 319 q 763 166 785 218 q 690 74 742 114 q 553 9 639 33 q 342 -15 468 -15 q 285 -15 317 -15 q 222 -12 254 -14 q 157 -7 189 -10 q 99 0 125 -4 q 103 117 101 67 q 107 223 106 167 q 109 351 108 279 q 110 533 110 422 q 108 740 110 633 q 103 958 107 846 m 290 446 q 290 266 290 346 q 292 115 290 186 q 345 102 318 107 q 400 97 372 97 q 542 149 488 97 q 597 293 597 200 q 587 360 597 329 q 553 413 576 390 q 494 447 531 435 q 406 460 458 460 q 290 446 351 460 m 293 847 q 290 722 290 790 q 290 561 290 653 q 330 557 311 558 q 367 556 349 556 q 515 599 469 556 q 561 714 561 642 q 553 770 561 743 q 528 818 546 797 q 480 851 510 839 q 404 864 450 864 q 349 859 376 864 q 293 847 322 854 z "},"D":{"ha":932,"x_min":99,"x_max":881,"o":"m 103 958 q 240 979 158 969 q 418 989 321 989 q 613 955 528 989 q 758 858 699 921 q 849 707 818 796 q 881 510 881 618 q 845 299 881 396 q 745 133 810 203 q 590 23 681 63 q 389 -17 500 -17 q 219 -12 293 -17 q 99 0 144 -7 q 102 117 100 67 q 106 223 104 168 q 108 349 107 278 q 110 526 110 419 q 108 740 110 633 q 103 958 107 846 m 399 864 q 348 859 375 864 q 293 847 321 854 q 290 697 290 781 q 290 494 290 614 q 290 281 290 371 q 292 111 290 190 q 356 97 321 97 q 488 119 426 97 q 596 190 550 142 q 668 315 642 239 q 694 499 694 390 q 674 674 694 604 q 615 787 654 744 q 522 847 576 829 q 399 864 467 864 z "},"E":{"ha":765,"x_min":99,"x_max":721,"o":"m 651 429 l 290 429 q 290 270 290 342 q 292 136 290 199 l 721 136 l 721 0 l 99 0 q 102 117 100 67 q 106 223 104 168 q 108 349 107 278 q 110 526 110 419 q 108 747 110 633 q 103 972 107 860 l 694 972 l 694 836 l 293 836 q 290 713 290 782 q 290 557 290 644 l 651 557 l 651 429 z "},"F":{"ha":728,"x_min":99,"x_max":693,"o":"m 635 415 l 290 415 q 291 190 290 288 q 294 0 292 92 l 99 0 q 102 117 100 67 q 106 223 104 168 q 108 349 107 278 q 110 526 110 419 q 108 747 110 633 q 103 972 107 860 l 693 972 l 693 836 l 293 836 q 290 707 290 778 q 290 543 290 636 l 635 543 l 635 415 z "},"G":{"ha":913,"x_min":57,"x_max":853,"o":"m 853 447 q 847 407 849 428 q 844 362 844 386 q 842 307 843 338 q 842 238 842 276 q 842 104 842 157 q 846 0 843 51 l 782 -17 l 732 67 q 597 7 676 31 q 438 -17 518 -17 q 295 1 364 -17 q 174 70 226 19 q 89 211 121 121 q 57 446 57 301 q 172 855 57 721 q 503 989 288 989 q 564 986 536 989 q 615 981 592 983 q 661 975 639 978 q 706 972 683 972 q 751 976 728 972 q 803 988 775 979 l 818 668 l 664 650 q 665 669 665 660 q 665 688 665 678 q 658 757 665 724 q 633 816 651 790 q 583 857 615 842 q 503 872 551 872 q 239 485 239 872 q 255 326 239 392 q 302 219 271 261 q 380 158 333 178 q 486 139 426 139 q 581 153 536 139 q 671 190 626 167 l 671 329 l 501 321 l 489 447 l 853 447 l 853 447 z "},"H":{"ha":988,"x_min":99,"x_max":890,"o":"m 890 972 q 884 881 886 928 q 881 778 882 835 q 880 653 881 722 q 879 494 879 583 q 879 344 879 411 q 880 218 879 276 q 881 107 881 160 q 883 0 882 54 l 688 0 q 690 103 689 58 q 694 196 692 149 q 697 297 696 243 q 699 429 699 351 l 290 429 q 290 305 290 363 q 291 195 290 247 q 292 95 292 143 q 294 0 293 47 l 99 0 q 102 117 100 67 q 106 223 104 168 q 108 349 107 278 q 110 526 110 419 q 108 740 110 633 q 103 958 107 846 l 301 972 q 295 890 297 932 q 292 798 293 847 q 291 690 292 749 q 290 557 290 631 l 699 557 q 697 755 699 656 q 692 958 694 854 l 890 972 z "},"I":{"ha":399,"x_min":99,"x_max":301,"o":"m 301 972 q 295 881 297 928 q 292 778 293 835 q 291 653 292 722 q 290 494 290 583 q 290 344 290 411 q 291 218 290 276 q 292 107 292 160 q 294 0 293 54 l 99 0 q 102 117 100 67 q 106 223 104 168 q 108 349 107 278 q 110 526 110 419 q 108 740 110 633 q 103 958 107 846 l 301 972 z "},"Ĳ":{"ha":790,"x_min":99,"x_max":700,"o":"m 301 972 q 295 881 297 928 q 292 778 293 835 q 291 653 292 722 q 290 494 290 583 q 290 344 290 411 q 291 218 290 276 q 292 107 292 160 q 294 0 293 54 l 99 0 q 102 117 100 67 q 106 223 104 168 q 108 349 107 278 q 110 526 110 419 q 108 740 110 633 q 103 958 107 846 l 301 972 m 508 701 q 506 829 508 771 q 501 958 504 888 l 700 972 q 692 853 694 910 q 690 753 690 797 q 689 608 690 682 q 686 461 688 533 q 682 321 685 389 q 676 194 679 253 q 669 100 674 140 q 660 30 665 60 q 647 -22 654 0 q 632 -60 640 -43 q 558 -152 604 -118 q 456 -204 511 -186 l 350 -69 q 417 -49 388 -65 q 467 -2 447 -33 q 498 78 488 29 q 508 197 508 126 l 508 701 z "},"J":{"ha":392,"x_min":-49,"x_max":301,"o":"m 110 701 q 108 829 110 771 q 103 958 106 888 l 301 972 q 294 853 296 910 q 292 753 292 797 q 290 608 292 682 q 288 461 289 533 q 283 321 286 389 q 278 194 281 253 q 271 100 275 140 q 261 30 267 60 q 249 -22 256 0 q 233 -60 242 -43 q 159 -152 206 -118 q 57 -204 113 -186 l -49 -69 q 19 -49 -11 -65 q 69 -2 49 -33 q 99 78 89 29 q 110 197 110 126 l 110 701 z "},"K":{"ha":839,"x_min":99,"x_max":811,"o":"m 301 972 q 295 892 297 932 q 292 801 293 853 q 291 683 292 750 q 290 521 290 615 l 300 522 q 381 626 339 569 q 466 742 424 682 q 550 865 508 803 q 631 989 592 928 l 811 972 q 765 912 797 956 q 688 808 732 868 q 591 675 643 747 q 486 528 539 603 q 621 496 565 521 q 711 422 676 471 q 762 299 746 372 q 778 122 778 225 q 774 0 778 67 l 581 -17 q 588 76 586 36 q 590 146 590 117 q 540 350 590 285 q 385 415 490 415 q 290 404 346 415 q 291 177 290 271 q 294 0 292 83 l 99 0 q 105 158 103 94 q 108 275 107 222 q 109 380 108 328 q 110 506 110 432 q 110 639 110 578 q 108 755 110 700 q 106 859 107 810 q 103 958 104 908 l 301 972 z "},"L":{"ha":669,"x_min":99,"x_max":654,"o":"m 654 0 l 99 0 q 102 117 100 67 q 106 223 104 168 q 108 349 107 278 q 110 526 110 419 q 108 740 110 633 q 103 958 107 846 l 301 972 q 295 881 297 928 q 292 778 293 835 q 291 653 292 722 q 290 494 290 583 q 290 296 290 381 q 292 136 290 211 l 654 136 l 654 0 z "},"M":{"ha":1178,"x_min":100,"x_max":1082,"o":"m 1079 989 q 1070 794 1072 897 q 1068 560 1068 690 q 1069 366 1068 447 q 1072 222 1069 285 q 1076 106 1074 158 q 1082 0 1078 54 l 896 0 q 899 111 897 56 q 903 231 901 167 q 905 374 904 296 q 906 554 906 453 l 906 658 l 917 746 l 893 658 q 797 328 849 494 q 679 0 744 161 l 506 -17 q 379 326 433 150 q 279 669 325 501 l 261 735 l 272 669 l 272 536 q 275 238 272 368 q 281 0 278 108 l 100 0 q 105 119 103 67 q 108 222 107 171 q 109 332 108 274 q 110 471 110 390 q 110 616 110 551 q 108 738 110 681 q 106 849 107 796 q 103 958 104 901 l 346 989 q 457 576 394 782 q 589 172 519 369 q 653 363 622 268 q 713 555 685 457 q 768 756 742 653 q 818 972 794 860 l 1079 989 z "},"N":{"ha":994,"x_min":99,"x_max":897,"o":"m 897 972 q 891 881 893 928 q 888 778 889 835 q 887 653 888 722 q 886 494 886 583 q 886 344 886 411 q 887 218 886 276 q 888 107 888 160 q 890 0 889 54 l 611 -17 q 431 380 518 169 q 278 806 344 590 q 277 742 278 779 q 276 664 276 706 q 276 578 276 622 q 276 494 276 535 q 278 344 276 411 q 281 218 279 276 q 284 107 282 160 q 288 0 286 54 l 99 0 q 102 117 100 67 q 106 223 104 168 q 108 349 107 278 q 110 526 110 419 q 108 740 110 633 q 103 958 107 846 l 410 989 q 527 590 453 807 q 714 124 601 374 q 718 290 717 190 q 719 526 719 390 q 715 740 719 633 q 706 958 710 846 l 897 972 z "},"A":{"ha":906,"x_min":17,"x_max":888,"o":"m 17 -17 q 92 252 54 124 q 172 501 131 381 q 262 739 214 622 q 365 972 310 856 l 539 989 q 642 758 594 874 q 731 522 689 643 q 812 271 774 400 q 888 0 850 142 l 699 -17 q 660 131 679 57 q 621 281 640 206 l 278 281 q 240 143 258 213 q 207 0 222 74 l 17 -17 m 453 815 q 313 408 372 618 l 586 408 q 523 615 556 513 q 453 815 490 718 z "},"O":{"ha":953,"x_min":54,"x_max":899,"o":"m 479 864 q 308 765 371 864 q 244 482 244 667 q 298 202 244 299 q 472 106 351 106 q 569 133 525 106 q 644 211 613 160 q 692 335 675 263 q 710 499 710 407 q 699 654 710 586 q 663 769 689 722 q 592 840 636 815 q 479 864 547 864 m 54 478 q 85 685 54 590 q 173 847 115 779 q 311 951 231 914 q 492 989 392 989 q 663 955 588 989 q 791 858 739 921 q 871 707 843 796 q 899 510 899 618 q 867 299 899 396 q 779 133 836 203 q 642 23 722 63 q 463 -17 561 -17 q 291 20 367 -17 q 163 123 215 57 q 82 279 110 189 q 54 478 54 369 z "},"P":{"ha":801,"x_min":99,"x_max":769,"o":"m 769 696 q 742 553 769 617 q 665 447 715 490 q 542 379 614 403 q 379 356 469 356 q 334 357 356 356 q 290 361 313 358 q 291 169 290 254 q 294 0 292 83 l 99 0 q 103 117 101 67 q 107 223 106 168 q 109 346 108 278 q 110 515 110 414 q 108 739 110 632 q 103 958 107 846 q 169 969 133 964 q 244 979 206 975 q 320 985 282 983 q 394 988 358 988 q 583 962 510 988 q 697 895 656 936 q 754 802 739 854 q 769 696 769 750 m 290 482 q 331 476 310 478 q 374 475 351 475 q 532 526 478 475 q 586 675 586 576 q 541 815 586 767 q 413 864 496 864 q 355 859 385 864 q 293 846 325 854 q 290 696 290 779 q 290 494 290 613 l 290 482 z "},"Q":{"ha":953,"x_min":54,"x_max":921,"o":"m 821 -182 q 721 -168 785 -181 q 581 -131 657 -156 q 425 -72 504 -107 q 279 13 346 -36 q 113 199 172 89 q 54 472 54 310 q 85 684 54 589 q 173 847 115 779 q 311 951 231 914 q 492 989 392 989 q 663 955 588 989 q 791 858 739 921 q 871 708 843 796 q 899 513 899 619 q 875 326 899 413 q 808 173 851 240 q 703 60 765 106 q 565 -4 642 14 q 692 -28 628 -21 q 826 -36 756 -36 q 873 -36 850 -36 q 921 -33 896 -36 l 821 -182 m 490 864 q 307 765 368 864 q 246 475 246 665 q 300 201 246 297 q 465 106 354 106 q 642 207 576 106 q 708 515 708 308 q 698 654 708 590 q 663 765 688 718 q 596 838 638 811 q 490 864 554 864 z "},"R":{"ha":850,"x_min":99,"x_max":783,"o":"m 103 958 q 244 978 165 969 q 396 988 322 988 q 590 963 514 988 q 708 898 665 938 q 767 809 751 858 q 783 711 783 760 q 744 559 783 624 q 632 457 704 494 q 703 409 675 436 q 749 343 732 382 q 772 251 765 304 q 778 126 778 197 q 774 0 778 69 l 581 -17 q 588 71 585 29 q 590 150 590 113 q 581 257 590 211 q 546 334 571 303 q 478 381 521 365 q 369 396 436 396 q 333 395 354 396 q 290 392 313 394 q 291 183 290 276 q 294 0 292 90 l 99 0 q 103 117 101 67 q 107 223 106 168 q 109 346 108 278 q 110 515 110 414 q 108 739 110 632 q 103 958 107 846 m 414 864 q 356 859 386 864 q 293 846 325 854 q 290 715 290 788 q 290 539 290 642 l 290 521 q 381 513 329 513 q 542 558 485 513 q 600 690 600 603 q 551 817 600 771 q 414 864 501 864 z "},"S":{"ha":776,"x_min":58,"x_max":724,"o":"m 376 142 q 506 172 464 142 q 549 261 549 203 q 533 322 549 297 q 492 365 518 347 q 433 397 467 383 q 363 422 399 410 q 242 467 296 444 q 151 519 189 489 q 92 592 113 549 q 71 701 71 636 q 108 848 71 792 q 200 935 144 904 q 322 977 256 967 q 444 988 388 988 q 581 976 517 988 q 694 954 646 965 l 694 793 q 557 825 628 813 q 428 838 486 838 q 282 802 328 838 q 236 717 236 767 q 258 654 236 679 q 310 611 279 629 q 377 583 342 593 q 442 564 413 572 q 542 530 492 550 q 633 476 592 510 q 699 394 674 443 q 724 272 724 344 q 698 146 724 200 q 626 56 672 92 q 515 1 579 19 q 375 -17 451 -17 q 226 -3 308 -17 q 64 40 143 11 l 58 211 q 121 187 83 199 q 202 165 158 175 q 291 148 246 154 q 376 142 336 142 z "},"T":{"ha":764,"x_min":14,"x_max":750,"o":"m 750 836 l 475 836 q 472 690 472 771 q 472 494 472 608 q 472 344 472 411 q 473 218 472 276 q 474 107 474 160 q 476 0 475 54 l 281 0 q 284 117 282 67 q 288 223 286 168 q 290 349 289 278 q 292 526 292 419 q 292 681 292 604 q 289 836 292 757 l 14 836 l 14 972 l 750 972 l 750 836 z "},"U":{"ha":942,"x_min":92,"x_max":854,"o":"m 279 340 q 295 238 279 281 q 338 169 311 196 q 400 129 365 142 q 471 117 435 117 q 534 129 501 117 q 594 169 567 142 q 640 238 622 196 q 660 338 658 279 q 662 429 661 379 q 663 558 663 479 q 661 756 663 658 q 656 958 660 854 l 854 972 q 848 887 850 931 q 845 791 846 843 q 844 674 844 739 q 843 526 843 610 l 843 346 q 812 192 843 260 q 728 78 781 125 q 607 8 676 32 q 461 -17 538 -17 q 318 8 385 -17 q 202 80 251 33 q 124 194 153 126 q 96 346 96 261 q 97 437 96 386 q 99 558 99 488 q 97 756 99 658 q 92 958 96 854 l 290 972 q 284 887 286 931 q 281 791 282 843 q 279 674 279 739 q 279 526 279 610 l 279 340 z "},"V":{"ha":872,"x_min":29,"x_max":844,"o":"m 844 989 q 776 720 811 849 q 701 471 740 592 q 619 233 663 350 q 524 0 575 117 l 350 -17 q 255 213 299 97 q 172 451 211 329 q 98 701 133 572 q 29 972 63 831 l 218 989 q 317 568 267 782 q 436 157 367 354 q 501 349 471 253 q 556 547 531 446 q 606 754 582 649 q 654 972 631 860 l 844 989 z "},"W":{"ha":1303,"x_min":31,"x_max":1274,"o":"m 646 764 l 642 686 q 617 519 633 608 q 579 340 600 431 q 535 163 558 250 q 490 0 513 75 l 308 -17 q 226 213 264 97 q 154 451 188 329 q 90 701 121 572 q 31 972 60 831 l 219 989 q 298 568 254 782 q 394 157 342 354 q 439 340 419 247 q 476 528 458 432 q 511 724 494 624 q 547 931 528 824 l 757 947 q 826 548 789 751 q 911 157 864 344 q 1006 547 964 347 q 1083 972 1047 747 l 1274 989 q 1215 720 1244 849 q 1151 471 1185 592 q 1080 233 1118 350 q 996 0 1042 117 l 814 -17 q 767 149 792 60 q 722 331 743 238 q 683 515 700 424 q 656 686 665 606 l 651 764 l 646 764 z "},"X":{"ha":851,"x_min":6,"x_max":846,"o":"m 846 972 q 785 888 814 929 q 722 795 757 847 q 642 673 688 743 q 529 500 596 603 q 621 351 579 418 q 699 224 663 283 q 771 110 736 164 q 842 0 806 56 l 635 0 q 577 103 603 56 q 528 194 551 150 q 480 283 504 239 q 426 381 456 328 q 313 183 364 274 q 213 0 263 93 l 6 0 q 81 119 47 67 q 150 226 115 172 q 226 346 185 281 q 324 503 267 411 q 173 735 249 619 q 13 972 97 850 l 222 972 q 263 894 243 932 q 307 816 283 857 q 360 728 331 775 q 426 621 389 681 q 531 792 481 708 q 636 972 581 876 l 846 972 z "},"Y":{"ha":860,"x_min":24,"x_max":839,"o":"m 839 989 q 771 818 806 900 q 697 658 736 736 q 615 506 658 581 q 522 358 572 432 q 523 167 522 253 q 526 0 524 82 l 331 0 q 333 90 332 50 q 336 169 335 131 q 339 251 338 208 q 340 349 340 294 q 165 642 240 490 q 24 972 90 794 l 213 989 q 260 868 236 931 q 311 743 285 806 q 367 619 338 681 q 431 501 396 557 q 551 727 501 610 q 649 972 600 844 l 839 989 z "},"Z":{"ha":757,"x_min":25,"x_max":715,"o":"m 710 894 q 618 749 671 839 q 507 556 565 660 q 391 342 449 451 q 286 139 333 233 l 715 139 l 701 -17 q 625 -10 681 -14 q 495 -5 569 -7 q 339 -1 421 -3 q 185 0 257 0 l 40 0 l 25 94 q 124 242 69 157 q 236 426 178 328 q 352 630 294 525 q 461 835 410 735 l 75 835 l 63 989 q 152 983 89 986 q 294 978 215 981 q 454 974 372 975 q 600 972 536 972 l 697 972 l 710 894 z "},"a":{"ha":669,"x_min":35,"x_max":649,"o":"m 229 -17 q 88 43 142 -17 q 35 199 35 103 q 93 358 35 299 q 249 418 151 418 q 329 407 289 418 q 401 375 369 396 l 401 453 q 376 544 401 518 q 290 571 351 571 q 202 560 249 571 q 128 535 156 550 l 85 668 q 135 685 106 676 q 197 699 164 693 q 265 708 231 704 q 329 711 300 711 q 574 472 574 711 q 572 411 574 451 q 567 327 569 371 q 563 246 565 283 q 561 193 561 208 q 571 147 561 161 q 607 133 581 133 q 649 139 625 133 l 626 6 q 585 -6 604 -1 q 547 -10 567 -10 q 461 19 496 -10 q 419 100 426 47 q 342 15 392 46 q 229 -17 292 -17 m 296 111 q 372 143 340 111 q 403 224 403 175 q 378 290 403 265 q 308 315 353 315 q 236 288 263 315 q 210 211 210 260 q 233 138 210 165 q 296 111 256 111 z "},"á":{"ha":669,"x_min":35,"x_max":649,"o":"m 229 -17 q 88 43 142 -17 q 35 199 35 103 q 93 358 35 299 q 249 418 151 418 q 329 407 289 418 q 401 375 369 396 l 401 453 q 376 544 401 518 q 290 571 351 571 q 202 560 249 571 q 128 535 156 550 l 85 668 q 135 685 106 676 q 197 699 164 693 q 265 708 231 704 q 329 711 300 711 q 574 472 574 711 q 572 411 574 451 q 567 327 569 371 q 563 246 565 283 q 561 193 561 208 q 571 147 561 161 q 607 133 581 133 q 649 139 625 133 l 626 6 q 585 -6 604 -1 q 547 -10 567 -10 q 461 19 496 -10 q 419 100 426 47 q 342 15 392 46 q 229 -17 292 -17 m 296 111 q 372 143 340 111 q 403 224 403 175 q 378 290 403 265 q 308 315 353 315 q 236 288 263 315 q 210 211 210 260 q 233 138 210 165 q 296 111 256 111 m 528 1039 l 344 807 l 249 824 l 358 1056 l 528 1039 z "},"´":{"ha":394,"x_min":115,"x_max":394,"o":"m 394 1039 l 211 807 l 115 824 l 225 1056 l 394 1039 z "},"ä":{"ha":669,"x_min":35,"x_max":649,"o":"m 229 -17 q 88 43 142 -17 q 35 199 35 103 q 93 358 35 299 q 249 418 151 418 q 329 407 289 418 q 401 375 369 396 l 401 453 q 376 544 401 518 q 290 571 351 571 q 202 560 249 571 q 128 535 156 550 l 85 668 q 135 685 106 676 q 197 699 164 693 q 265 708 231 704 q 329 711 300 711 q 574 472 574 711 q 572 411 574 451 q 567 327 569 371 q 563 246 565 283 q 561 193 561 208 q 571 147 561 161 q 607 133 581 133 q 649 139 625 133 l 626 6 q 585 -6 604 -1 q 547 -10 567 -10 q 461 19 496 -10 q 419 100 426 47 q 342 15 392 46 q 229 -17 292 -17 m 296 111 q 372 143 340 111 q 403 224 403 175 q 378 290 403 265 q 308 315 353 315 q 236 288 263 315 q 210 211 210 260 q 233 138 210 165 q 296 111 256 111 m 136 915 q 159 976 136 950 q 218 1003 182 1003 q 276 981 251 1003 q 300 922 300 958 q 276 862 300 886 q 214 838 253 838 q 159 858 182 838 q 136 915 136 878 m 389 915 q 411 976 389 950 q 472 1003 433 1003 q 528 981 504 1003 q 553 922 553 958 q 529 862 553 886 q 467 838 506 838 q 412 858 435 838 q 389 915 389 878 z "},"æ":{"ha":988,"x_min":35,"x_max":946,"o":"m 228 -17 q 143 1 179 -17 q 83 49 107 19 q 47 118 58 79 q 35 200 35 157 q 51 293 35 253 q 97 361 68 333 q 165 403 126 389 q 249 418 204 418 q 326 408 286 418 q 401 375 367 397 l 401 467 q 394 525 401 503 q 374 559 388 547 q 344 575 361 571 q 306 579 326 579 q 215 565 263 579 q 121 522 167 551 l 85 646 q 144 672 110 660 q 218 692 179 683 q 297 706 257 701 q 371 711 338 711 q 463 697 424 711 q 529 651 503 683 q 707 711 600 711 q 824 687 778 711 q 897 625 869 663 q 935 541 924 588 q 946 449 946 494 q 940 372 946 408 q 924 314 933 336 l 571 314 q 613 165 576 207 q 724 124 650 124 q 826 140 779 124 q 906 169 874 156 l 906 54 q 797 -1 861 14 q 671 -17 733 -17 q 598 -10 633 -17 q 533 12 563 -4 q 481 56 504 28 q 442 129 457 85 q 395 59 421 88 q 341 14 369 31 q 283 -10 313 -3 q 228 -17 254 -17 m 692 610 q 613 568 643 610 q 572 438 582 526 l 572 417 l 800 417 q 801 430 800 424 q 801 447 801 436 q 797 497 801 469 q 781 550 793 525 q 747 592 768 575 q 692 610 725 610 m 296 111 q 333 118 314 111 q 367 140 351 125 q 393 175 383 154 q 403 225 403 196 q 374 297 403 275 q 308 318 344 318 q 242 296 272 318 q 213 215 213 274 q 237 137 213 163 q 296 111 261 111 z "},"à":{"ha":669,"x_min":35,"x_max":649,"o":"m 229 -17 q 88 43 142 -17 q 35 199 35 103 q 93 358 35 299 q 249 418 151 418 q 329 407 289 418 q 401 375 369 396 l 401 453 q 376 544 401 518 q 290 571 351 571 q 202 560 249 571 q 128 535 156 550 l 85 668 q 135 685 106 676 q 197 699 164 693 q 265 708 231 704 q 329 711 300 711 q 574 472 574 711 q 572 411 574 451 q 567 327 569 371 q 563 246 565 283 q 561 193 561 208 q 571 147 561 161 q 607 133 581 133 q 649 139 625 133 l 626 6 q 585 -6 604 -1 q 547 -10 567 -10 q 461 19 496 -10 q 419 100 426 47 q 342 15 392 46 q 229 -17 292 -17 m 296 111 q 372 143 340 111 q 403 224 403 175 q 378 290 403 265 q 308 315 353 315 q 236 288 263 315 q 210 211 210 260 q 233 138 210 165 q 296 111 256 111 m 303 1056 l 413 824 l 317 807 l 133 1039 l 303 1056 z "},"ã":{"ha":669,"x_min":35,"x_max":649,"o":"m 229 -17 q 88 43 142 -17 q 35 199 35 103 q 93 358 35 299 q 249 418 151 418 q 329 407 289 418 q 401 375 369 396 l 401 453 q 376 544 401 518 q 290 571 351 571 q 202 560 249 571 q 128 535 156 550 l 85 668 q 135 685 106 676 q 197 699 164 693 q 265 708 231 704 q 329 711 300 711 q 574 472 574 711 q 572 411 574 451 q 567 327 569 371 q 563 246 565 283 q 561 193 561 208 q 571 147 561 161 q 607 133 581 133 q 649 139 625 133 l 626 6 q 585 -6 604 -1 q 547 -10 567 -10 q 461 19 496 -10 q 419 100 426 47 q 342 15 392 46 q 229 -17 292 -17 m 296 111 q 372 143 340 111 q 403 224 403 175 q 378 290 403 265 q 308 315 353 315 q 236 288 263 315 q 210 211 210 260 q 233 138 210 165 q 296 111 256 111 m 568 976 q 408 828 490 828 q 364 840 385 828 q 324 865 343 851 q 286 890 304 878 q 251 901 268 901 q 167 833 201 901 l 92 878 q 251 1026 169 1026 q 296 1015 275 1026 q 336 990 317 1003 q 374 965 356 976 q 408 953 392 953 q 493 1021 458 953 l 568 976 z "},"b":{"ha":719,"x_min":67,"x_max":669,"o":"m 276 1069 q 270 977 272 1025 q 267 873 268 929 q 266 749 267 817 q 265 597 265 681 q 364 675 307 639 q 490 711 421 711 q 556 699 524 711 q 614 653 589 686 q 654 563 639 619 q 669 417 669 506 q 648 227 669 308 q 587 92 626 146 q 493 10 547 38 q 372 -17 439 -17 q 268 8 311 -17 q 192 72 225 32 l 140 0 l 67 0 q 88 203 83 64 q 93 575 93 342 q 92 812 93 693 q 86 1056 90 931 l 276 1069 m 396 551 q 323 540 356 551 q 265 511 290 528 q 265 307 265 394 q 267 143 265 219 q 364 81 301 81 q 458 154 425 81 q 490 372 490 228 q 483 464 490 429 q 464 518 476 499 q 434 544 451 538 q 396 551 417 551 z "},"c":{"ha":625,"x_min":49,"x_max":578,"o":"m 49 301 q 72 483 49 406 q 136 610 94 560 q 234 686 178 661 q 357 711 290 711 q 428 703 400 711 q 492 696 457 696 q 521 699 507 696 q 563 710 535 701 l 578 440 l 442 422 q 444 448 443 436 q 444 474 444 460 q 417 583 444 550 q 360 615 390 615 q 261 546 293 615 q 229 342 229 476 q 266 178 229 228 q 374 128 303 128 q 470 145 422 128 q 554 178 518 163 l 554 56 q 448 -1 510 15 q 322 -17 386 -17 q 222 -4 271 -17 q 134 42 172 8 q 72 139 96 76 q 49 301 49 201 z "},"ć":{"ha":625,"x_min":49,"x_max":578,"o":"m 49 301 q 72 483 49 406 q 136 610 94 560 q 234 686 178 661 q 357 711 290 711 q 428 703 400 711 q 492 696 457 696 q 521 699 507 696 q 563 710 535 701 l 578 440 l 442 422 q 444 448 443 436 q 444 474 444 460 q 417 583 444 550 q 360 615 390 615 q 261 546 293 615 q 229 342 229 476 q 266 178 229 228 q 374 128 303 128 q 470 145 422 128 q 554 178 518 163 l 554 56 q 448 -1 510 15 q 322 -17 386 -17 q 222 -4 271 -17 q 134 42 172 8 q 72 139 96 76 q 49 301 49 201 m 561 1039 l 378 807 l 282 824 l 392 1056 l 561 1039 z "},"ċ":{"ha":625,"x_min":49,"x_max":578,"o":"m 49 301 q 72 483 49 406 q 136 610 94 560 q 234 686 178 661 q 357 711 290 711 q 428 703 400 711 q 492 696 457 696 q 521 699 507 696 q 563 710 535 701 l 578 440 l 442 422 q 444 448 443 436 q 444 474 444 460 q 417 583 444 550 q 360 615 390 615 q 261 546 293 615 q 229 342 229 476 q 266 178 229 228 q 374 128 303 128 q 470 145 422 128 q 554 178 518 163 l 554 56 q 448 -1 510 15 q 322 -17 386 -17 q 222 -4 271 -17 q 134 42 172 8 q 72 139 96 76 q 49 301 49 201 m 276 913 q 301 974 276 949 q 368 1000 325 1000 q 431 978 404 1000 q 458 921 458 957 q 433 862 458 886 q 364 838 407 838 q 302 857 328 838 q 276 913 276 876 z "},":":{"ha":371,"x_min":75,"x_max":296,"o":"m 75 76 q 105 149 75 118 q 186 181 135 181 q 263 155 231 181 q 296 85 296 129 q 265 13 296 42 q 182 -15 233 -15 q 106 8 138 -15 q 75 76 75 32 m 75 590 q 105 663 75 632 q 186 694 135 694 q 263 669 231 694 q 296 599 296 643 q 265 527 296 556 q 182 499 233 499 q 106 522 138 499 q 75 590 75 546 z "},",":{"ha":339,"x_min":56,"x_max":275,"o":"m 56 69 q 95 144 65 114 q 167 181 125 174 q 275 61 275 151 q 124 -226 275 -56 l 60 -176 q 110 -85 96 -118 q 125 -19 125 -51 q 56 69 125 50 z "},"d":{"ha":717,"x_min":49,"x_max":688,"o":"m 567 -17 q 504 47 528 19 q 468 101 481 74 q 424 60 447 81 q 372 22 400 39 q 314 -6 344 4 q 249 -17 283 -17 q 175 -4 211 -17 q 111 42 139 8 q 66 132 83 75 q 49 278 49 189 q 72 467 49 386 q 136 603 94 549 q 235 684 178 657 q 363 711 293 711 q 443 690 406 711 q 441 889 442 803 q 438 1054 440 975 l 626 1069 q 617 713 618 900 q 615 340 615 526 q 618 252 615 286 q 629 192 621 218 q 651 145 638 167 q 688 96 665 124 l 567 -17 m 346 143 q 401 153 376 143 q 447 181 426 164 q 444 240 444 207 q 443 318 443 274 l 443 574 q 357 614 411 614 q 263 540 296 614 q 231 322 231 467 q 239 231 231 265 q 263 176 247 196 q 299 150 278 157 q 346 143 319 143 z "},"¨":{"ha":422,"x_min":3,"x_max":419,"o":"m 3 915 q 26 976 3 950 q 85 1003 49 1003 q 142 981 118 1003 q 167 922 167 958 q 143 862 167 886 q 81 838 119 838 q 26 858 49 838 q 3 915 3 878 m 256 915 q 278 976 256 950 q 339 1003 300 1003 q 395 981 371 1003 q 419 922 419 958 q 396 862 419 886 q 333 838 372 838 q 278 858 301 838 q 256 915 256 878 z "},"˙":{"ha":394,"x_min":110,"x_max":292,"o":"m 110 913 q 134 974 110 949 q 201 1000 158 1000 q 265 978 238 1000 q 292 921 292 957 q 266 862 292 886 q 197 838 240 838 q 135 857 161 838 q 110 913 110 876 z "},"ı":{"ha":353,"x_min":81,"x_max":275,"o":"m 275 694 q 269 633 271 663 q 266 569 267 604 q 265 487 265 533 q 264 376 264 440 q 264 261 264 313 q 265 165 264 210 q 266 81 265 121 q 268 0 267 42 l 81 0 q 84 90 82 51 q 88 173 86 129 q 90 272 89 217 q 92 408 92 326 q 90 549 92 483 q 85 694 89 615 l 275 694 z "},"ȷ":{"ha":346,"x_min":-96,"x_max":271,"o":"m 88 408 q 86 549 88 483 q 81 694 85 615 l 271 694 q 262 567 264 631 q 260 460 260 504 q 259 368 260 428 q 258 239 258 308 q 255 98 257 169 q 250 -28 253 26 q 233 -165 244 -117 q 197 -246 221 -214 q 122 -303 167 -287 q 36 -319 76 -319 q -34 -311 4 -319 q -96 -292 -72 -303 l -56 -147 q -21 -160 -42 -156 q 17 -165 0 -165 q 70 -132 53 -165 q 88 -6 88 -99 l 88 408 z "},"e":{"ha":647,"x_min":49,"x_max":604,"o":"m 229 314 q 272 166 236 208 q 382 124 308 124 q 487 140 438 124 q 568 171 536 157 l 568 56 q 457 -1 524 15 q 328 -17 390 -17 q 226 -4 276 -17 q 137 44 176 8 q 73 142 97 79 q 49 308 49 206 q 74 485 49 410 q 142 611 99 561 q 245 686 186 661 q 374 711 304 711 q 490 687 444 711 q 560 625 535 663 q 595 542 586 588 q 604 453 604 496 q 598 372 604 408 q 582 314 592 336 l 229 314 m 349 610 q 265 563 294 610 q 229 417 235 517 l 458 417 q 459 431 458 422 q 460 446 460 439 q 456 497 460 468 q 439 550 451 525 q 405 592 426 575 q 349 610 383 610 z "},"é":{"ha":647,"x_min":49,"x_max":604,"o":"m 229 314 q 272 166 236 208 q 382 124 308 124 q 487 140 438 124 q 568 171 536 157 l 568 56 q 457 -1 524 15 q 328 -17 390 -17 q 226 -4 276 -17 q 137 44 176 8 q 73 142 97 79 q 49 308 49 206 q 74 485 49 410 q 142 611 99 561 q 245 686 186 661 q 374 711 304 711 q 490 687 444 711 q 560 625 535 663 q 595 542 586 588 q 604 453 604 496 q 598 372 604 408 q 582 314 592 336 l 229 314 m 349 610 q 265 563 294 610 q 229 417 235 517 l 458 417 q 459 431 458 422 q 460 446 460 439 q 456 497 460 468 q 439 550 451 525 q 405 592 426 575 q 349 610 383 610 m 571 1039 l 388 807 l 292 824 l 401 1056 l 571 1039 z "},"ë":{"ha":647,"x_min":49,"x_max":604,"o":"m 229 314 q 272 166 236 208 q 382 124 308 124 q 487 140 438 124 q 568 171 536 157 l 568 56 q 457 -1 524 15 q 328 -17 390 -17 q 226 -4 276 -17 q 137 44 176 8 q 73 142 97 79 q 49 308 49 206 q 74 485 49 410 q 142 611 99 561 q 245 686 186 661 q 374 711 304 711 q 490 687 444 711 q 560 625 535 663 q 595 542 586 588 q 604 453 604 496 q 598 372 604 408 q 582 314 592 336 l 229 314 m 349 610 q 265 563 294 610 q 229 417 235 517 l 458 417 q 459 431 458 422 q 460 446 460 439 q 456 497 460 468 q 439 550 451 525 q 405 592 426 575 q 349 610 383 610 m 179 915 q 202 976 179 950 q 261 1003 225 1003 q 319 981 294 1003 q 343 922 343 958 q 319 862 343 886 q 257 838 296 838 q 202 858 225 838 q 179 915 179 878 m 432 915 q 454 976 432 950 q 515 1003 476 1003 q 572 981 547 1003 q 596 922 596 958 q 572 862 596 886 q 510 838 549 838 q 455 858 478 838 q 432 915 432 878 z "},"ė":{"ha":647,"x_min":49,"x_max":604,"o":"m 229 314 q 272 166 236 208 q 382 124 308 124 q 487 140 438 124 q 568 171 536 157 l 568 56 q 457 -1 524 15 q 328 -17 390 -17 q 226 -4 276 -17 q 137 44 176 8 q 73 142 97 79 q 49 308 49 206 q 74 485 49 410 q 142 611 99 561 q 245 686 186 661 q 374 711 304 711 q 490 687 444 711 q 560 625 535 663 q 595 542 586 588 q 604 453 604 496 q 598 372 604 408 q 582 314 592 336 l 229 314 m 349 610 q 265 563 294 610 q 229 417 235 517 l 458 417 q 459 431 458 422 q 460 446 460 439 q 456 497 460 468 q 439 550 451 525 q 405 592 426 575 q 349 610 383 610 m 286 913 q 310 974 286 949 q 378 1000 335 1000 q 441 978 414 1000 q 468 921 468 957 q 442 862 468 886 q 374 838 417 838 q 312 857 338 838 q 286 913 286 876 z "},"ẹ":{"ha":647,"x_min":49,"x_max":604,"o":"m 229 314 q 272 166 236 208 q 382 124 308 124 q 487 140 438 124 q 568 171 536 157 l 568 56 q 457 -1 524 15 q 328 -17 390 -17 q 226 -4 276 -17 q 137 44 176 8 q 73 142 97 79 q 49 308 49 206 q 74 485 49 410 q 142 611 99 561 q 245 686 186 661 q 374 711 304 711 q 490 687 444 711 q 560 625 535 663 q 595 542 586 588 q 604 453 604 496 q 598 372 604 408 q 582 314 592 336 l 229 314 m 349 610 q 265 563 294 610 q 229 417 235 517 l 458 417 q 459 431 458 422 q 460 446 460 439 q 456 497 460 468 q 439 550 451 525 q 405 592 426 575 q 349 610 383 610 m 274 -199 q 298 -137 274 -162 q 365 -111 322 -111 q 428 -133 401 -111 q 456 -190 456 -154 q 432 -249 456 -225 q 365 -274 408 -274 q 301 -254 329 -274 q 274 -199 274 -235 z "},"è":{"ha":647,"x_min":49,"x_max":604,"o":"m 229 314 q 272 166 236 208 q 382 124 308 124 q 487 140 438 124 q 568 171 536 157 l 568 56 q 457 -1 524 15 q 328 -17 390 -17 q 226 -4 276 -17 q 137 44 176 8 q 73 142 97 79 q 49 308 49 206 q 74 485 49 410 q 142 611 99 561 q 245 686 186 661 q 374 711 304 711 q 490 687 444 711 q 560 625 535 663 q 595 542 586 588 q 604 453 604 496 q 598 372 604 408 q 582 314 592 336 l 229 314 m 349 610 q 265 563 294 610 q 229 417 235 517 l 458 417 q 459 431 458 422 q 460 446 460 439 q 456 497 460 468 q 439 550 451 525 q 405 592 426 575 q 349 610 383 610 m 346 1056 l 456 824 l 360 807 l 176 1039 l 346 1056 z "},"…":{"ha":1140,"x_min":65,"x_max":1075,"o":"m 65 76 q 95 149 65 118 q 176 181 125 181 q 253 155 221 181 q 286 85 286 129 q 255 13 286 42 q 172 -15 224 -15 q 97 8 128 -15 q 65 76 65 32 m 460 76 q 490 149 460 118 q 571 181 519 181 q 648 155 615 181 q 681 85 681 129 q 649 13 681 42 q 567 -15 618 -15 q 491 8 522 -15 q 460 76 460 32 m 854 76 q 884 149 854 118 q 965 181 914 181 q 1042 155 1010 181 q 1075 85 1075 129 q 1044 13 1075 42 q 961 -15 1013 -15 q 885 8 917 -15 q 854 76 854 32 z "},"ẽ":{"ha":647,"x_min":49,"x_max":611,"o":"m 229 314 q 272 166 236 208 q 382 124 308 124 q 487 140 438 124 q 568 171 536 157 l 568 56 q 457 -1 524 15 q 328 -17 390 -17 q 226 -4 276 -17 q 137 44 176 8 q 73 142 97 79 q 49 308 49 206 q 74 485 49 410 q 142 611 99 561 q 245 686 186 661 q 374 711 304 711 q 490 687 444 711 q 560 625 535 663 q 595 542 586 588 q 604 453 604 496 q 598 372 604 408 q 582 314 592 336 l 229 314 m 349 610 q 265 563 294 610 q 229 417 235 517 l 458 417 q 459 431 458 422 q 460 446 460 439 q 456 497 460 468 q 439 550 451 525 q 405 592 426 575 q 349 610 383 610 m 611 976 q 451 828 533 828 q 407 840 428 828 q 367 865 386 851 q 329 890 347 878 q 294 901 311 901 q 210 833 244 901 l 135 878 q 294 1026 213 1026 q 339 1015 318 1026 q 379 990 360 1003 q 417 965 399 976 q 451 953 435 953 q 536 1021 501 953 l 611 976 z "},"f":{"ha":461,"x_min":21,"x_max":504,"o":"m 21 683 l 129 689 q 131 735 131 714 q 135 778 132 757 q 156 918 142 868 q 197 999 169 968 q 274 1051 228 1033 q 369 1069 321 1069 q 438 1059 406 1069 q 504 1026 469 1049 l 489 903 q 428 922 457 915 q 376 928 399 928 q 337 920 353 928 q 310 894 321 913 q 296 846 300 876 q 292 769 292 815 l 292 694 l 442 694 l 429 576 l 292 586 l 292 240 q 292 172 292 203 q 293 113 292 142 q 295 57 294 85 q 299 0 296 29 l 126 0 q 126 211 126 118 q 126 376 126 304 q 127 501 126 447 q 128 596 128 554 l 31 596 l 21 683 z "},"ﬀ":{"ha":803,"x_min":26,"x_max":847,"o":"m 635 694 l 782 694 l 774 576 l 635 588 l 635 240 q 635 172 635 203 q 636 113 635 142 q 638 57 638 85 q 642 0 639 29 l 469 0 q 469 211 469 118 q 469 376 469 304 q 470 501 469 447 q 471 596 471 554 l 289 596 l 289 240 q 289 172 289 203 q 290 113 289 142 q 292 57 292 85 q 296 0 293 29 l 124 0 q 124 363 124 221 q 125 596 124 504 l 36 596 l 26 694 l 129 694 q 130 715 129 706 q 132 733 131 724 q 143 817 136 782 q 158 878 150 853 q 176 922 167 904 q 197 954 186 939 q 289 1030 235 1008 q 401 1051 343 1051 q 485 1042 444 1051 q 561 1018 526 1033 q 632 1056 592 1043 q 713 1069 672 1069 q 781 1059 749 1069 q 847 1026 813 1049 l 832 903 q 771 922 800 915 q 719 928 742 928 q 680 920 696 928 q 653 894 664 913 q 639 846 643 876 q 635 769 635 815 l 635 694 m 289 694 l 472 694 q 474 738 474 718 q 478 778 475 758 q 496 903 485 858 q 446 918 469 913 q 406 924 422 924 q 316 874 343 924 q 289 725 289 824 l 289 694 z "},"ﬃ":{"ha":1061,"x_min":28,"x_max":985,"o":"m 28 685 l 129 690 q 130 712 129 701 q 132 733 131 722 q 143 817 136 782 q 158 878 150 853 q 176 922 167 904 q 197 954 186 939 q 289 1030 235 1008 q 401 1051 343 1051 q 497 1040 450 1051 q 579 1011 543 1028 q 666 1054 615 1039 q 788 1069 717 1069 q 881 1057 832 1069 q 975 1017 931 1044 l 957 886 q 865 924 908 913 q 786 936 822 936 q 717 923 746 936 q 671 887 689 910 q 644 834 653 864 q 635 769 635 804 l 635 694 l 985 694 q 978 633 981 663 q 976 569 976 604 q 974 487 975 533 q 974 376 974 440 q 974 261 974 313 q 974 165 974 210 q 976 81 975 121 q 978 0 976 42 l 790 0 q 794 90 792 51 q 797 173 796 129 q 800 272 799 217 q 801 408 801 326 q 801 491 801 451 q 800 571 801 531 l 635 585 l 635 240 q 635 172 635 203 q 636 113 635 142 q 638 57 638 85 q 642 0 639 29 l 469 0 q 469 211 469 118 q 469 376 469 304 q 470 501 469 447 q 471 596 471 554 l 289 596 l 289 240 q 289 172 289 203 q 290 113 289 142 q 292 57 292 85 q 296 0 293 29 l 124 0 q 124 363 124 221 q 125 596 124 504 l 38 596 l 28 685 m 289 694 l 472 694 q 474 738 474 718 q 478 778 475 758 q 501 901 482 843 q 449 917 474 911 q 406 924 424 924 q 316 874 343 924 q 289 725 289 824 l 289 694 z "},"ﬁ":{"ha":718,"x_min":21,"x_max":642,"o":"m 21 683 l 129 689 q 131 735 131 714 q 135 778 132 757 q 158 897 140 843 q 211 990 175 951 q 304 1049 247 1028 q 444 1069 361 1069 q 538 1057 489 1069 q 632 1017 588 1044 l 614 886 q 522 924 565 913 q 443 936 479 936 q 374 923 403 936 q 328 887 346 910 q 301 834 310 864 q 292 769 292 804 l 292 694 l 642 694 q 635 633 638 663 q 633 569 633 604 q 631 487 632 533 q 631 376 631 440 q 631 261 631 313 q 631 165 631 210 q 633 81 632 121 q 635 0 633 42 l 447 0 q 451 90 449 51 q 454 173 453 129 q 457 272 456 217 q 458 408 458 326 q 458 491 458 451 q 457 571 458 531 l 292 585 l 292 240 q 292 172 292 203 q 293 113 292 142 q 295 57 294 85 q 299 0 296 29 l 126 0 q 126 211 126 118 q 126 376 126 304 q 127 501 126 447 q 128 596 128 554 l 31 596 l 21 683 z "},"ﬂ":{"ha":761,"x_min":21,"x_max":685,"o":"m 21 683 l 129 689 q 131 735 131 714 q 135 778 132 757 q 158 897 140 843 q 211 990 175 951 q 304 1049 247 1028 q 444 1069 361 1069 q 535 1058 485 1069 q 629 1022 585 1046 l 685 1031 q 678 937 681 982 q 676 838 676 892 q 674 713 675 783 q 674 543 674 642 q 674 377 674 451 q 674 239 674 303 q 676 117 675 175 q 678 0 676 60 l 490 0 q 494 128 492 72 q 497 244 496 183 q 500 381 499 304 q 501 575 501 458 q 501 672 501 626 q 501 760 501 717 q 499 848 500 804 q 496 942 497 892 q 443 950 467 950 q 374 935 403 950 q 328 897 346 921 q 301 840 310 872 q 292 769 292 807 l 292 694 l 414 694 l 401 569 l 292 582 l 292 240 q 292 172 292 203 q 293 113 292 142 q 295 57 294 85 q 299 0 296 29 l 126 0 q 126 211 126 118 q 126 376 126 304 q 127 501 126 447 q 128 596 128 554 l 31 596 l 21 683 z "},"g":{"ha":703,"x_min":-4,"x_max":676,"o":"m 676 6 q 640 -115 676 -60 q 542 -209 604 -169 q 401 -271 481 -249 q 233 -293 321 -293 q 138 -285 182 -293 q 63 -258 94 -276 q 14 -212 32 -240 q -4 -147 -4 -185 q 28 -58 -4 -94 q 122 14 61 -22 q 70 47 90 25 q 50 108 50 69 q 60 158 50 135 q 86 201 69 182 q 124 238 103 221 q 167 268 144 254 q 91 346 118 299 q 64 454 64 393 q 86 556 64 508 q 148 637 108 603 q 243 691 188 671 q 364 711 299 711 q 414 708 390 711 q 460 697 438 704 q 488 737 468 713 q 534 785 507 761 q 596 827 561 808 q 668 850 631 846 l 675 690 q 599 684 636 690 q 531 667 561 678 q 603 589 578 636 q 629 483 629 542 q 606 381 629 428 q 544 299 583 333 q 449 247 504 265 q 331 228 394 228 q 225 243 275 228 q 208 193 208 219 q 239 145 208 156 q 314 135 269 135 q 367 136 339 135 q 424 140 396 138 q 476 143 451 142 q 518 144 501 144 q 635 110 594 144 q 676 6 676 75 m 350 600 q 252 561 286 600 q 218 464 218 522 q 253 369 218 403 q 343 336 288 336 q 403 349 378 336 q 444 381 428 361 q 469 426 461 401 q 476 475 476 450 q 444 564 476 528 q 350 600 413 600 m 522 -67 q 490 -22 522 -35 q 409 -7 458 -10 q 301 -5 360 -4 q 192 0 243 -6 q 147 -82 147 -43 q 189 -136 147 -114 q 313 -158 231 -158 q 392 -152 354 -158 q 460 -133 431 -146 q 506 -104 489 -121 q 522 -67 522 -87 z "},"ġ":{"ha":703,"x_min":-4,"x_max":676,"o":"m 676 6 q 640 -115 676 -60 q 542 -209 604 -169 q 401 -271 481 -249 q 233 -293 321 -293 q 138 -285 182 -293 q 63 -258 94 -276 q 14 -212 32 -240 q -4 -147 -4 -185 q 28 -58 -4 -94 q 122 14 61 -22 q 70 47 90 25 q 50 108 50 69 q 60 158 50 135 q 86 201 69 182 q 124 238 103 221 q 167 268 144 254 q 91 346 118 299 q 64 454 64 393 q 86 556 64 508 q 148 637 108 603 q 243 691 188 671 q 364 711 299 711 q 414 708 390 711 q 460 697 438 704 q 488 737 468 713 q 534 785 507 761 q 596 827 561 808 q 668 850 631 846 l 675 690 q 599 684 636 690 q 531 667 561 678 q 603 589 578 636 q 629 483 629 542 q 606 381 629 428 q 544 299 583 333 q 449 247 504 265 q 331 228 394 228 q 225 243 275 228 q 208 193 208 219 q 239 145 208 156 q 314 135 269 135 q 367 136 339 135 q 424 140 396 138 q 476 143 451 142 q 518 144 501 144 q 635 110 594 144 q 676 6 676 75 m 350 600 q 252 561 286 600 q 218 464 218 522 q 253 369 218 403 q 343 336 288 336 q 403 349 378 336 q 444 381 428 361 q 469 426 461 401 q 476 475 476 450 q 444 564 476 528 q 350 600 413 600 m 522 -67 q 490 -22 522 -35 q 409 -7 458 -10 q 301 -5 360 -4 q 192 0 243 -6 q 147 -82 147 -43 q 189 -136 147 -114 q 313 -158 231 -158 q 392 -152 354 -158 q 460 -133 431 -146 q 506 -104 489 -121 q 522 -67 522 -87 m 269 913 q 294 974 269 949 q 361 1000 318 1000 q 424 978 397 1000 q 451 921 451 957 q 426 862 451 886 q 357 838 400 838 q 295 857 321 838 q 269 913 269 876 z "},"`":{"ha":394,"x_min":0,"x_max":279,"o":"m 169 1056 l 279 824 l 183 807 l 0 1039 l 169 1056 z "},"h":{"ha":740,"x_min":79,"x_max":692,"o":"m 274 1069 q 267 976 269 1024 q 265 871 265 928 q 263 746 264 814 q 263 592 263 678 q 308 635 283 614 q 362 674 333 657 q 422 701 390 690 q 489 711 454 711 q 556 699 524 711 q 614 657 589 686 q 654 578 639 628 q 669 453 669 528 q 669 396 669 433 q 667 316 668 358 q 665 235 665 274 q 664 175 664 196 q 670 87 664 129 q 692 17 676 44 l 499 -17 q 487 53 489 15 q 485 118 485 90 q 487 198 485 157 q 491 277 489 239 q 495 349 493 315 q 497 408 497 383 q 469 521 497 490 q 393 551 442 551 q 320 538 353 551 q 263 506 288 525 q 263 356 263 424 q 263 227 263 288 q 265 111 264 167 q 267 0 265 56 l 79 0 q 83 128 81 72 q 86 244 85 183 q 89 381 88 304 q 90 575 90 458 q 89 812 90 693 q 83 1056 88 931 l 274 1069 z "},"ḥ":{"ha":740,"x_min":79,"x_max":692,"o":"m 274 1069 q 267 976 269 1024 q 265 871 265 928 q 263 746 264 814 q 263 592 263 678 q 308 635 283 614 q 362 674 333 657 q 422 701 390 690 q 489 711 454 711 q 556 699 524 711 q 614 657 589 686 q 654 578 639 628 q 669 453 669 528 q 669 396 669 433 q 667 316 668 358 q 665 235 665 274 q 664 175 664 196 q 670 87 664 129 q 692 17 676 44 l 499 -17 q 487 53 489 15 q 485 118 485 90 q 487 198 485 157 q 491 277 489 239 q 495 349 493 315 q 497 408 497 383 q 469 521 497 490 q 393 551 442 551 q 320 538 353 551 q 263 506 288 525 q 263 356 263 424 q 263 227 263 288 q 265 111 264 167 q 267 0 265 56 l 79 0 q 83 128 81 72 q 86 244 85 183 q 89 381 88 304 q 90 575 90 458 q 89 812 90 693 q 83 1056 88 931 l 274 1069 m 289 -199 q 313 -137 289 -162 q 381 -111 338 -111 q 444 -133 417 -111 q 471 -190 471 -154 q 447 -249 471 -225 q 381 -274 424 -274 q 317 -254 344 -274 q 289 -199 289 -235 z "},"i":{"ha":353,"x_min":81,"x_max":282,"o":"m 275 694 q 269 633 271 663 q 266 569 267 604 q 265 487 265 533 q 264 376 264 440 q 264 261 264 313 q 265 165 264 210 q 266 81 265 121 q 268 0 267 42 l 81 0 q 84 90 82 51 q 88 173 86 129 q 90 272 89 217 q 92 408 92 326 q 90 549 92 483 q 85 694 89 615 l 275 694 m 81 921 q 108 988 81 960 q 182 1017 135 1017 q 252 993 222 1017 q 282 929 282 969 q 253 864 282 890 q 178 838 225 838 q 109 859 138 838 q 81 921 81 881 z "},"í":{"ha":353,"x_min":81,"x_max":389,"o":"m 275 694 q 269 633 271 663 q 266 569 267 604 q 265 487 265 533 q 264 376 264 440 q 264 261 264 313 q 265 165 264 210 q 266 81 265 121 q 268 0 267 42 l 81 0 q 84 90 82 51 q 88 173 86 129 q 90 272 89 217 q 92 408 92 326 q 90 549 92 483 q 85 694 89 615 l 275 694 m 389 1039 l 206 807 l 110 824 l 219 1056 l 389 1039 z "},"ï":{"ha":353,"x_min":3,"x_max":392,"o":"m 3 915 q 26 976 3 950 q 85 1003 49 1003 q 142 981 118 1003 q 167 922 167 958 q 143 862 167 886 q 81 838 119 838 q 26 858 49 838 q 3 915 3 878 m 228 915 q 250 976 228 950 q 311 1003 272 1003 q 367 981 343 1003 q 392 922 392 958 q 368 862 392 886 q 306 838 344 838 q 251 858 274 838 q 228 915 228 878 m 275 694 q 269 633 271 663 q 266 569 267 604 q 265 487 265 533 q 264 376 264 440 q 264 261 264 313 q 265 165 264 210 q 266 81 265 121 q 268 0 267 42 l 81 0 q 84 90 82 51 q 88 173 86 129 q 90 272 89 217 q 92 408 92 326 q 90 549 92 483 q 85 694 89 615 l 275 694 z "},"ị":{"ha":353,"x_min":81,"x_max":282,"o":"m 275 694 q 269 633 271 663 q 266 569 267 604 q 265 487 265 533 q 264 376 264 440 q 264 261 264 313 q 265 165 264 210 q 266 81 265 121 q 268 0 267 42 l 81 0 q 84 90 82 51 q 88 173 86 129 q 90 272 89 217 q 92 408 92 326 q 90 549 92 483 q 85 694 89 615 l 275 694 m 81 921 q 108 988 81 960 q 182 1017 135 1017 q 252 993 222 1017 q 282 929 282 969 q 253 864 282 890 q 178 838 225 838 q 109 859 138 838 q 81 921 81 881 m 86 -199 q 110 -137 86 -162 q 178 -111 135 -111 q 241 -133 214 -111 q 268 -190 268 -154 q 244 -249 268 -225 q 178 -274 221 -274 q 114 -254 142 -274 q 86 -199 86 -235 z "},"ì":{"ha":353,"x_min":-6,"x_max":275,"o":"m 275 694 q 269 633 271 663 q 266 569 267 604 q 265 487 265 533 q 264 376 264 440 q 264 261 264 313 q 265 165 264 210 q 266 81 265 121 q 268 0 267 42 l 81 0 q 84 90 82 51 q 88 173 86 129 q 90 272 89 217 q 92 408 92 326 q 90 549 92 483 q 85 694 89 615 l 275 694 m 164 1056 l 274 824 l 178 807 l -6 1039 l 164 1056 z "},"ĳ":{"ha":699,"x_min":81,"x_max":631,"o":"m 275 694 q 269 633 271 663 q 266 569 267 604 q 265 487 265 533 q 264 376 264 440 q 264 261 264 313 q 265 165 264 210 q 266 81 265 121 q 268 0 267 42 l 81 0 q 84 90 82 51 q 88 173 86 129 q 90 272 89 217 q 92 408 92 326 q 90 549 92 483 q 85 694 89 615 l 275 694 m 81 921 q 108 988 81 960 q 182 1017 135 1017 q 252 993 222 1017 q 282 929 282 969 q 253 864 282 890 q 178 838 225 838 q 109 859 138 838 q 81 921 81 881 m 440 408 q 439 549 440 483 q 433 694 438 615 l 624 694 q 615 567 617 631 q 613 460 613 504 q 612 368 613 428 q 610 239 611 308 q 608 98 610 169 q 603 -28 606 26 q 585 -165 597 -117 q 550 -246 574 -214 q 474 -303 519 -287 q 389 -319 429 -319 q 319 -311 357 -319 q 257 -292 281 -303 l 297 -147 q 332 -160 311 -156 q 369 -165 353 -165 q 423 -132 406 -165 q 440 -6 440 -99 l 440 408 m 429 921 q 456 988 429 960 q 531 1017 483 1017 q 601 993 571 1017 q 631 929 631 969 q 602 864 631 890 q 526 838 574 838 q 458 859 486 838 q 429 921 429 881 z "},"ĩ":{"ha":353,"x_min":-47,"x_max":429,"o":"m 275 694 q 269 633 271 663 q 266 569 267 604 q 265 487 265 533 q 264 376 264 440 q 264 261 264 313 q 265 165 264 210 q 266 81 265 121 q 268 0 267 42 l 81 0 q 84 90 82 51 q 88 173 86 129 q 90 272 89 217 q 92 408 92 326 q 90 549 92 483 q 85 694 89 615 l 275 694 m 429 976 q 269 828 351 828 q 225 840 246 828 q 185 865 204 851 q 147 890 165 878 q 113 901 129 901 q 28 833 63 901 l -47 878 q 113 1026 31 1026 q 157 1015 136 1026 q 197 990 178 1003 q 235 965 217 976 q 269 953 253 953 q 354 1021 319 953 l 429 976 z "},"j":{"ha":346,"x_min":-96,"x_max":278,"o":"m 88 408 q 86 549 88 483 q 81 694 85 615 l 271 694 q 262 567 264 631 q 260 460 260 504 q 259 368 260 428 q 258 239 258 308 q 255 98 257 169 q 250 -28 253 26 q 233 -165 244 -117 q 197 -246 221 -214 q 122 -303 167 -287 q 36 -319 76 -319 q -34 -311 4 -319 q -96 -292 -72 -303 l -56 -147 q -21 -160 -42 -156 q 17 -165 0 -165 q 70 -132 53 -165 q 88 -6 88 -99 l 88 408 m 76 921 q 103 988 76 960 q 178 1017 131 1017 q 248 993 218 1017 q 278 929 278 969 q 249 864 278 890 q 174 838 221 838 q 105 859 133 838 q 76 921 76 881 z "},"k":{"ha":721,"x_min":79,"x_max":701,"o":"m 274 1069 q 267 969 269 1021 q 265 856 265 918 q 263 718 264 794 q 263 543 263 642 l 263 428 q 396 578 338 511 q 513 711 454 644 l 701 694 q 640 640 669 665 q 577 583 611 614 q 502 512 543 551 q 407 415 461 472 q 592 354 524 410 q 661 176 661 299 q 656 94 661 140 q 649 0 651 47 l 471 -18 q 481 85 476 38 q 486 171 486 132 q 457 286 486 246 q 346 326 428 326 q 263 318 306 326 q 263 153 263 229 q 267 0 264 76 l 79 0 q 83 127 81 72 q 86 243 85 182 q 89 384 88 304 q 90 585 90 464 q 89 812 90 693 q 83 1056 88 931 l 274 1069 z "},"l":{"ha":350,"x_min":79,"x_max":274,"o":"m 274 1069 q 267 969 269 1021 q 265 856 265 918 q 263 718 264 794 q 263 543 263 642 q 263 377 263 451 q 263 239 263 303 q 265 117 264 175 q 267 0 265 60 l 79 0 q 83 128 81 72 q 86 244 85 183 q 89 381 88 304 q 90 575 90 458 q 89 812 90 693 q 83 1056 88 931 l 274 1069 z "},"m":{"ha":1131,"x_min":29,"x_max":1082,"o":"m 888 -17 q 876 53 878 15 q 874 118 874 90 q 876 198 874 157 q 880 277 878 239 q 884 349 882 315 q 886 408 886 383 q 859 521 886 490 q 783 551 832 551 q 718 540 747 551 q 665 513 689 529 q 669 453 669 485 q 669 396 669 433 q 667 316 668 358 q 665 235 665 274 q 664 175 664 196 q 669 87 664 129 q 692 17 675 44 l 496 -17 q 484 53 486 15 q 482 118 482 90 q 484 198 482 157 q 488 277 486 239 q 492 349 490 315 q 494 408 494 383 q 467 521 494 490 q 392 551 440 551 q 326 540 356 551 q 272 511 296 528 q 275 451 275 483 q 275 376 275 419 q 275 261 275 313 q 276 165 275 210 q 277 81 276 121 q 279 0 278 42 l 90 0 q 93 75 92 33 q 97 163 94 117 q 100 259 99 210 q 101 354 101 308 q 99 442 101 408 q 88 502 96 476 q 65 549 79 528 q 29 599 51 571 l 192 711 q 236 641 219 671 q 261 579 253 611 q 307 625 282 601 q 360 668 332 649 q 419 699 388 688 q 488 711 451 711 q 585 682 539 711 q 653 579 631 653 q 699 625 674 601 q 751 668 724 649 q 811 699 779 688 q 879 711 843 711 q 947 699 914 711 q 1004 657 979 686 q 1044 578 1029 628 q 1060 453 1060 528 q 1059 396 1060 433 q 1057 316 1058 358 q 1055 235 1056 274 q 1054 175 1054 196 q 1060 87 1054 129 q 1082 17 1065 44 l 888 -17 z "},"n":{"ha":760,"x_min":29,"x_max":704,"o":"m 192 711 q 236 640 219 671 q 261 578 253 610 q 308 624 282 600 q 365 667 335 649 q 429 699 394 686 q 501 711 464 711 q 569 699 536 711 q 626 657 601 686 q 667 578 651 628 q 682 453 682 528 q 681 396 682 433 q 679 316 681 358 q 677 235 678 274 q 676 175 676 196 q 683 87 676 129 q 704 17 689 44 l 511 -17 q 499 53 501 15 q 497 118 497 90 q 499 198 497 157 q 503 277 501 239 q 508 349 506 315 q 510 408 510 383 q 482 521 510 490 q 406 551 454 551 q 331 539 365 551 q 271 508 297 526 q 274 450 274 482 q 274 376 274 418 q 274 261 274 313 q 274 165 274 210 q 276 81 275 121 q 278 0 276 42 l 90 0 q 93 75 92 33 q 97 163 94 117 q 100 259 99 210 q 101 354 101 308 q 99 442 101 408 q 88 502 96 476 q 65 549 79 528 q 29 599 51 571 l 192 711 z "},"ń":{"ha":753,"x_min":29,"x_max":704,"o":"m 192 711 q 236 640 219 671 q 261 578 253 610 q 308 624 282 600 q 365 667 335 649 q 429 699 394 686 q 501 711 464 711 q 569 699 536 711 q 626 657 601 686 q 667 578 651 628 q 682 453 682 528 q 681 396 682 433 q 679 316 681 358 q 677 235 678 274 q 676 175 676 196 q 683 87 676 129 q 704 17 689 44 l 511 -17 q 499 53 501 15 q 497 118 497 90 q 499 198 497 157 q 503 277 501 239 q 508 349 506 315 q 510 408 510 383 q 482 521 510 490 q 406 551 454 551 q 331 539 365 551 q 271 508 297 526 q 274 450 274 482 q 274 376 274 418 q 274 261 274 313 q 274 165 274 210 q 276 81 275 121 q 278 0 276 42 l 90 0 q 93 75 92 33 q 97 163 94 117 q 100 259 99 210 q 101 354 101 308 q 99 442 101 408 q 88 502 96 476 q 65 549 79 528 q 29 599 51 571 l 192 711 m 588 1039 l 404 807 l 308 824 l 418 1056 l 588 1039 z "},"ṅ":{"ha":753,"x_min":29,"x_max":704,"o":"m 192 711 q 236 640 219 671 q 261 578 253 610 q 308 624 282 600 q 365 667 335 649 q 429 699 394 686 q 501 711 464 711 q 569 699 536 711 q 626 657 601 686 q 667 578 651 628 q 682 453 682 528 q 681 396 682 433 q 679 316 681 358 q 677 235 678 274 q 676 175 676 196 q 683 87 676 129 q 704 17 689 44 l 511 -17 q 499 53 501 15 q 497 118 497 90 q 499 198 497 157 q 503 277 501 239 q 508 349 506 315 q 510 408 510 383 q 482 521 510 490 q 406 551 454 551 q 331 539 365 551 q 271 508 297 526 q 274 450 274 482 q 274 376 274 418 q 274 261 274 313 q 274 165 274 210 q 276 81 275 121 q 278 0 276 42 l 90 0 q 93 75 92 33 q 97 163 94 117 q 100 259 99 210 q 101 354 101 308 q 99 442 101 408 q 88 502 96 476 q 65 549 79 528 q 29 599 51 571 l 192 711 m 303 913 q 327 974 303 949 q 394 1000 351 1000 q 458 978 431 1000 q 485 921 485 957 q 459 862 485 886 q 390 838 433 838 q 328 857 354 838 q 303 913 303 876 z "},"ñ":{"ha":753,"x_min":29,"x_max":704,"o":"m 192 711 q 236 640 219 671 q 261 578 253 610 q 308 624 282 600 q 365 667 335 649 q 429 699 394 686 q 501 711 464 711 q 569 699 536 711 q 626 657 601 686 q 667 578 651 628 q 682 453 682 528 q 681 396 682 433 q 679 316 681 358 q 677 235 678 274 q 676 175 676 196 q 683 87 676 129 q 704 17 689 44 l 511 -17 q 499 53 501 15 q 497 118 497 90 q 499 198 497 157 q 503 277 501 239 q 508 349 506 315 q 510 408 510 383 q 482 521 510 490 q 406 551 454 551 q 331 539 365 551 q 271 508 297 526 q 274 450 274 482 q 274 376 274 418 q 274 261 274 313 q 274 165 274 210 q 276 81 275 121 q 278 0 276 42 l 90 0 q 93 75 92 33 q 97 163 94 117 q 100 259 99 210 q 101 354 101 308 q 99 442 101 408 q 88 502 96 476 q 65 549 79 528 q 29 599 51 571 l 192 711 m 628 976 q 468 828 550 828 q 424 840 444 828 q 383 865 403 851 q 346 890 364 878 q 311 901 328 901 q 226 833 261 901 l 151 878 q 311 1026 229 1026 q 356 1015 335 1026 q 396 990 376 1003 q 433 965 415 976 q 468 953 451 953 q 553 1021 518 953 l 628 976 z "},"o":{"ha":721,"x_min":46,"x_max":674,"o":"m 363 597 q 263 528 297 597 q 228 340 228 460 q 256 159 228 224 q 356 94 285 94 q 457 166 421 94 q 493 357 493 238 q 488 457 493 413 q 467 533 482 501 q 427 581 453 564 q 363 597 401 597 m 46 336 q 69 492 46 422 q 135 610 93 561 q 239 685 178 658 q 375 711 300 711 q 595 621 517 711 q 674 368 674 531 q 650 210 674 281 q 583 88 626 139 q 480 10 540 38 q 346 -17 419 -17 q 221 8 276 -17 q 126 79 165 33 q 67 190 88 125 q 46 336 46 256 z "},"ó":{"ha":721,"x_min":46,"x_max":674,"o":"m 363 597 q 263 528 297 597 q 228 340 228 460 q 256 159 228 224 q 356 94 285 94 q 457 166 421 94 q 493 357 493 238 q 488 457 493 413 q 467 533 482 501 q 427 581 453 564 q 363 597 401 597 m 46 336 q 69 492 46 422 q 135 610 93 561 q 239 685 178 658 q 375 711 300 711 q 595 621 517 711 q 674 368 674 531 q 650 210 674 281 q 583 88 626 139 q 480 10 540 38 q 346 -17 419 -17 q 221 8 276 -17 q 126 79 165 33 q 67 190 88 125 q 46 336 46 256 m 557 1039 l 374 807 l 278 824 l 388 1056 l 557 1039 z "},"ö":{"ha":721,"x_min":46,"x_max":674,"o":"m 363 597 q 263 528 297 597 q 228 340 228 460 q 256 159 228 224 q 356 94 285 94 q 457 166 421 94 q 493 357 493 238 q 488 457 493 413 q 467 533 482 501 q 427 581 453 564 q 363 597 401 597 m 46 336 q 69 492 46 422 q 135 610 93 561 q 239 685 178 658 q 375 711 300 711 q 595 621 517 711 q 674 368 674 531 q 650 210 674 281 q 583 88 626 139 q 480 10 540 38 q 346 -17 419 -17 q 221 8 276 -17 q 126 79 165 33 q 67 190 88 125 q 46 336 46 256 m 165 915 q 188 976 165 950 q 247 1003 211 1003 q 305 981 281 1003 q 329 922 329 958 q 306 862 329 886 q 243 838 282 838 q 188 858 211 838 q 165 915 165 878 m 418 915 q 440 976 418 950 q 501 1003 463 1003 q 558 981 533 1003 q 582 922 582 958 q 558 862 582 886 q 496 838 535 838 q 441 858 464 838 q 418 915 418 878 z "},"ọ":{"ha":721,"x_min":46,"x_max":674,"o":"m 363 597 q 263 528 297 597 q 228 340 228 460 q 256 159 228 224 q 356 94 285 94 q 457 166 421 94 q 493 357 493 238 q 488 457 493 413 q 467 533 482 501 q 427 581 453 564 q 363 597 401 597 m 46 336 q 69 492 46 422 q 135 610 93 561 q 239 685 178 658 q 375 711 300 711 q 595 621 517 711 q 674 368 674 531 q 650 210 674 281 q 583 88 626 139 q 480 10 540 38 q 346 -17 419 -17 q 221 8 276 -17 q 126 79 165 33 q 67 190 88 125 q 46 336 46 256 m 269 -199 q 294 -137 269 -162 q 361 -111 318 -111 q 424 -133 397 -111 q 451 -190 451 -154 q 428 -249 451 -225 q 361 -274 404 -274 q 297 -254 325 -274 q 269 -199 269 -235 z "},"œ":{"ha":1092,"x_min":46,"x_max":1050,"o":"m 46 336 q 69 492 46 422 q 135 610 93 561 q 239 685 178 658 q 375 711 300 711 q 503 688 446 711 q 601 615 561 664 q 693 685 642 660 q 810 711 744 711 q 927 687 881 711 q 1001 625 974 663 q 1039 541 1028 588 q 1050 449 1050 494 q 1044 372 1050 408 q 1028 314 1038 336 l 675 314 q 717 165 681 207 q 828 124 754 124 q 931 140 883 124 q 1010 169 978 156 l 1010 54 q 901 -1 965 14 q 775 -17 838 -17 q 658 0 714 -17 q 561 65 601 17 q 465 4 519 25 q 346 -17 411 -17 q 221 8 276 -17 q 126 79 165 33 q 67 190 88 125 q 46 336 46 256 m 363 597 q 263 528 297 597 q 228 340 228 460 q 256 159 228 224 q 356 94 285 94 q 457 166 421 94 q 493 357 493 238 q 488 457 493 413 q 467 533 482 501 q 427 581 453 564 q 363 597 401 597 m 796 610 q 713 563 743 610 q 675 417 682 517 l 904 417 q 905 431 904 424 q 906 446 906 438 q 901 497 906 468 q 885 550 897 525 q 851 592 872 575 q 796 610 829 610 z "},"ò":{"ha":721,"x_min":46,"x_max":674,"o":"m 363 597 q 263 528 297 597 q 228 340 228 460 q 256 159 228 224 q 356 94 285 94 q 457 166 421 94 q 493 357 493 238 q 488 457 493 413 q 467 533 482 501 q 427 581 453 564 q 363 597 401 597 m 46 336 q 69 492 46 422 q 135 610 93 561 q 239 685 178 658 q 375 711 300 711 q 595 621 517 711 q 674 368 674 531 q 650 210 674 281 q 583 88 626 139 q 480 10 540 38 q 346 -17 419 -17 q 221 8 276 -17 q 126 79 165 33 q 67 190 88 125 q 46 336 46 256 m 332 1056 l 442 824 l 346 807 l 163 1039 l 332 1056 z "},"õ":{"ha":721,"x_min":46,"x_max":674,"o":"m 363 597 q 263 528 297 597 q 228 340 228 460 q 256 159 228 224 q 356 94 285 94 q 457 166 421 94 q 493 357 493 238 q 488 457 493 413 q 467 533 482 501 q 427 581 453 564 q 363 597 401 597 m 46 336 q 69 492 46 422 q 135 610 93 561 q 239 685 178 658 q 375 711 300 711 q 595 621 517 711 q 674 368 674 531 q 650 210 674 281 q 583 88 626 139 q 480 10 540 38 q 346 -17 419 -17 q 221 8 276 -17 q 126 79 165 33 q 67 190 88 125 q 46 336 46 256 m 597 976 q 438 828 519 828 q 393 840 414 828 q 353 865 372 851 q 315 890 333 878 q 281 901 297 901 q 196 833 231 901 l 121 878 q 281 1026 199 1026 q 325 1015 304 1026 q 365 990 346 1003 q 403 965 385 976 q 438 953 421 953 q 522 1021 488 953 l 597 976 z "},"p":{"ha":728,"x_min":28,"x_max":678,"o":"m 678 417 q 656 227 678 308 q 595 92 635 146 q 501 10 556 38 q 381 -17 447 -17 q 322 -9 349 -17 q 272 11 296 -1 q 272 -76 272 -36 q 273 -155 272 -117 q 275 -229 274 -193 q 278 -304 276 -265 l 89 -319 q 95 -154 93 -235 q 99 9 97 -74 q 100 176 100 92 q 100 354 100 261 q 97 442 100 408 q 86 502 94 476 q 64 549 78 528 q 28 599 50 571 l 190 711 q 234 642 218 671 q 258 583 250 614 q 306 628 281 606 q 363 669 332 650 q 427 699 393 688 q 499 711 461 711 q 565 699 532 711 q 622 653 597 686 q 663 563 647 619 q 678 417 678 506 m 272 147 q 372 81 307 81 q 466 154 433 81 q 499 372 499 228 q 492 464 499 429 q 472 518 485 499 q 442 544 460 538 q 404 551 425 551 q 330 539 364 551 q 269 508 296 526 q 272 450 272 482 q 272 376 272 418 l 272 147 z "},".":{"ha":351,"x_min":65,"x_max":286,"o":"m 65 76 q 95 149 65 118 q 176 181 125 181 q 253 155 221 181 q 286 85 286 129 q 255 13 286 42 q 172 -15 224 -15 q 97 8 128 -15 q 65 76 65 32 z "},"q":{"ha":706,"x_min":49,"x_max":640,"o":"m 431 -319 q 435 -237 433 -279 q 438 -149 438 -196 q 440 -47 439 -101 q 442 75 442 8 q 356 11 404 39 q 249 -17 307 -17 q 175 -4 211 -17 q 111 42 139 8 q 66 132 83 75 q 49 278 49 189 q 72 467 49 386 q 136 603 94 549 q 235 684 178 657 q 363 711 293 711 q 444 690 407 711 q 511 631 482 669 l 567 694 l 640 694 q 627 621 632 663 q 619 519 622 579 q 615 375 615 458 q 614 175 614 292 q 615 -62 614 57 q 621 -306 617 -181 l 431 -319 m 346 143 q 398 152 374 143 q 442 175 422 161 l 442 228 q 442 421 442 338 q 440 576 442 504 q 357 614 411 614 q 263 540 296 614 q 231 322 231 467 q 239 231 231 265 q 263 176 247 196 q 299 150 278 157 q 346 143 319 143 z "},"r":{"ha":504,"x_min":29,"x_max":482,"o":"m 192 719 q 238 640 221 674 q 261 568 254 606 q 296 613 275 589 q 343 659 317 638 q 401 697 369 681 q 469 719 433 714 l 482 522 q 356 510 414 522 q 272 471 297 499 q 274 413 274 444 q 274 343 274 382 q 275 248 274 299 q 278 151 276 197 q 283 64 281 104 q 289 0 286 24 l 93 0 q 96 68 94 29 q 99 149 97 107 q 101 234 100 190 q 101 318 101 278 q 99 423 101 382 q 88 494 96 464 q 65 549 79 524 q 29 607 51 574 l 192 719 z "},"ŕ":{"ha":506,"x_min":31,"x_max":493,"o":"m 193 719 q 239 640 222 674 q 263 568 256 606 q 297 613 276 589 q 344 659 318 638 q 403 697 371 681 q 471 719 435 714 l 483 522 q 357 510 415 522 q 274 471 299 499 q 275 413 275 444 q 275 343 275 382 q 276 248 275 299 q 280 151 278 197 q 285 64 282 104 q 290 0 288 24 l 94 0 q 97 68 96 29 q 100 149 99 107 q 102 234 101 190 q 103 318 103 278 q 100 423 103 382 q 89 494 97 464 q 67 549 81 524 q 31 607 53 574 l 193 719 m 493 1039 l 310 807 l 214 824 l 324 1056 l 493 1039 z "},"s":{"ha":550,"x_min":58,"x_max":503,"o":"m 285 131 q 340 146 324 131 q 357 189 357 161 q 351 219 357 207 q 331 242 344 232 q 297 260 318 251 q 247 281 276 269 q 180 308 214 293 q 119 347 146 324 q 75 408 92 371 q 58 503 58 446 q 84 610 58 569 q 147 674 110 651 q 228 703 185 696 q 307 711 271 711 q 394 704 347 711 q 474 685 442 697 l 474 538 q 424 552 450 546 q 372 563 397 558 q 325 569 347 567 q 289 571 303 571 q 200 510 200 571 q 239 445 200 467 q 335 403 278 424 q 400 374 369 390 q 453 334 431 358 q 490 274 476 310 q 503 186 503 238 q 444 32 503 81 q 293 -17 386 -17 q 183 -3 243 -17 q 65 40 124 11 l 60 197 q 106 173 78 185 q 165 152 133 161 q 228 137 197 143 q 285 131 260 131 z "},"ś":{"ha":551,"x_min":58,"x_max":506,"o":"m 285 131 q 340 146 324 131 q 357 189 357 161 q 351 219 357 207 q 331 242 344 232 q 297 260 318 251 q 247 281 276 269 q 180 308 214 293 q 119 347 146 324 q 75 408 92 371 q 58 503 58 446 q 84 610 58 569 q 147 674 110 651 q 228 703 185 696 q 307 711 271 711 q 394 704 347 711 q 474 685 442 697 l 474 538 q 424 552 450 546 q 372 563 397 558 q 325 569 347 567 q 289 571 303 571 q 200 510 200 571 q 239 445 200 467 q 335 403 278 424 q 400 374 369 390 q 453 334 431 358 q 490 274 476 310 q 503 186 503 238 q 444 32 503 81 q 293 -17 386 -17 q 183 -3 243 -17 q 65 40 124 11 l 60 197 q 106 173 78 185 q 165 152 133 161 q 228 137 197 143 q 285 131 260 131 m 506 1039 l 322 807 l 226 824 l 336 1056 l 506 1039 z "},"ə":{"ha":649,"x_min":40,"x_max":601,"o":"m 40 244 q 47 322 40 285 q 63 381 53 358 l 421 381 q 413 477 419 436 q 390 545 406 518 q 346 585 374 572 q 276 599 318 599 q 178 579 226 599 q 88 539 131 560 l 74 647 q 185 697 118 682 q 317 711 251 711 q 422 692 371 711 q 513 633 474 674 q 577 526 553 592 q 601 368 601 461 q 579 208 601 279 q 517 88 557 138 q 417 10 476 38 q 286 -17 358 -17 q 177 7 224 -17 q 101 68 131 31 q 56 152 71 106 q 40 244 40 199 m 300 96 q 381 144 353 96 q 417 278 410 192 l 186 278 q 185 265 185 271 q 185 251 185 258 q 189 200 185 228 q 206 149 193 172 q 240 111 218 126 q 300 96 263 96 z "},"ṣ":{"ha":551,"x_min":58,"x_max":503,"o":"m 285 131 q 340 146 324 131 q 357 189 357 161 q 351 219 357 207 q 331 242 344 232 q 297 260 318 251 q 247 281 276 269 q 180 308 214 293 q 119 347 146 324 q 75 408 92 371 q 58 503 58 446 q 84 610 58 569 q 147 674 110 651 q 228 703 185 696 q 307 711 271 711 q 394 704 347 711 q 474 685 442 697 l 474 538 q 424 552 450 546 q 372 563 397 558 q 325 569 347 567 q 289 571 303 571 q 200 510 200 571 q 239 445 200 467 q 335 403 278 424 q 400 374 369 390 q 453 334 431 358 q 490 274 476 310 q 503 186 503 238 q 444 32 503 81 q 293 -17 386 -17 q 183 -3 243 -17 q 65 40 124 11 l 60 197 q 106 173 78 185 q 165 152 133 161 q 228 137 197 143 q 285 131 260 131 m 185 -199 q 209 -137 185 -162 q 276 -111 233 -111 q 340 -133 313 -111 q 367 -190 367 -154 q 343 -249 367 -225 q 276 -274 319 -274 q 213 -254 240 -274 q 185 -199 185 -235 z "},";":{"ha":367,"x_min":72,"x_max":293,"o":"m 72 69 q 112 144 82 114 q 183 181 142 174 q 292 61 292 151 q 140 -226 292 -56 l 76 -176 q 127 -85 113 -118 q 142 -19 142 -51 q 72 69 142 50 m 72 590 q 102 663 72 632 q 183 694 132 694 q 260 669 228 694 q 293 599 293 643 q 262 527 293 556 q 179 499 231 499 q 103 522 135 499 q 72 590 72 546 z "},"C":{"ha":838,"x_min":58,"x_max":778,"o":"m 58 446 q 170 855 58 721 q 486 989 282 989 q 590 981 549 989 q 665 972 631 972 q 713 976 689 972 q 763 988 736 981 l 778 635 l 622 617 q 624 656 624 638 q 625 692 625 675 q 594 825 625 778 q 485 872 564 872 q 240 482 240 872 q 256 324 240 389 q 304 217 272 258 q 384 158 336 176 q 494 139 432 139 q 629 159 563 139 q 758 203 696 179 l 758 56 q 613 -1 696 15 q 451 -17 529 -17 q 302 1 374 -17 q 176 69 231 18 q 90 210 122 119 q 58 446 58 300 z "},"t":{"ha":479,"x_min":21,"x_max":449,"o":"m 21 683 q 96 699 67 686 q 144 738 125 713 q 175 806 163 764 q 200 906 188 847 l 329 943 q 310 808 317 867 q 297 694 303 750 l 447 694 l 435 576 l 290 586 q 283 433 285 503 q 281 313 281 363 q 284 222 281 256 q 295 169 288 188 q 316 144 303 150 q 350 138 329 138 q 404 145 378 138 q 449 164 431 153 l 428 19 q 365 -8 394 1 q 296 -17 336 -17 q 215 -3 250 -17 q 158 44 181 11 q 124 128 135 76 q 113 256 113 181 q 119 408 113 318 q 132 596 125 499 l 31 596 l 21 683 z "},"ṭ":{"ha":479,"x_min":21,"x_max":449,"o":"m 21 683 q 96 699 67 686 q 144 738 125 713 q 175 806 163 764 q 200 906 188 847 l 329 943 q 310 808 317 867 q 297 694 303 750 l 447 694 l 435 576 l 290 586 q 283 433 285 503 q 281 313 281 363 q 284 222 281 256 q 295 169 288 188 q 316 144 303 150 q 350 138 329 138 q 404 145 378 138 q 449 164 431 153 l 428 19 q 365 -8 394 1 q 296 -17 336 -17 q 215 -3 250 -17 q 158 44 181 11 q 124 128 135 76 q 113 256 113 181 q 119 408 113 318 q 132 596 125 499 l 31 596 l 21 683 m 157 -199 q 181 -137 157 -162 q 249 -111 206 -111 q 312 -133 285 -111 q 339 -190 339 -154 q 315 -249 339 -225 q 249 -274 292 -274 q 185 -254 213 -274 q 157 -199 157 -235 z "},"˜":{"ha":801,"x_min":161,"x_max":638,"o":"m 638 976 q 478 828 560 828 q 433 840 454 828 q 393 865 413 851 q 356 890 374 878 q 321 901 338 901 q 236 833 271 901 l 161 878 q 321 1026 239 1026 q 365 1015 344 1026 q 406 990 386 1003 q 443 965 425 976 q 478 953 461 953 q 563 1021 528 953 l 638 976 z "},"u":{"ha":742,"x_min":54,"x_max":715,"o":"m 553 -17 q 508 53 525 24 q 483 114 492 82 q 439 67 463 90 q 387 26 415 44 q 326 -5 358 7 q 257 -17 294 -17 q 190 -4 222 -17 q 132 38 157 8 q 92 117 107 67 q 76 242 76 167 q 77 298 76 260 q 79 378 78 336 q 81 460 81 421 q 82 519 82 499 q 76 608 82 565 q 54 678 69 650 l 244 711 q 256 642 254 679 q 258 576 258 604 q 256 496 258 536 q 252 417 254 456 q 248 345 250 379 q 246 286 246 311 q 274 174 246 204 q 350 143 301 143 q 419 157 390 143 q 472 190 449 171 q 471 247 471 215 q 471 318 471 278 q 471 433 471 382 q 470 529 471 485 q 469 613 469 574 q 467 694 468 653 l 654 694 q 651 619 653 661 q 648 531 650 578 q 644 435 646 485 q 643 340 643 386 q 646 252 643 286 q 657 192 649 218 q 679 145 665 167 q 715 96 693 124 l 553 -17 z "},"ú":{"ha":735,"x_min":47,"x_max":708,"o":"m 546 -17 q 501 53 518 24 q 476 114 485 82 q 432 67 456 90 q 380 26 408 44 q 319 -5 351 7 q 250 -17 288 -17 q 183 -4 215 -17 q 125 38 150 8 q 85 117 100 67 q 69 242 69 167 q 70 298 69 260 q 72 378 71 336 q 74 460 74 421 q 75 519 75 499 q 69 608 75 565 q 47 678 63 650 l 238 711 q 249 642 247 679 q 251 576 251 604 q 249 496 251 536 q 245 417 247 456 q 241 345 243 379 q 239 286 239 311 q 267 174 239 204 q 343 143 294 143 q 413 157 383 143 q 465 190 442 171 q 464 247 464 215 q 464 318 464 278 q 464 433 464 382 q 463 529 464 485 q 462 613 463 574 q 460 694 461 653 l 647 694 q 644 619 646 661 q 641 531 643 578 q 638 435 639 485 q 636 340 636 386 q 639 252 636 286 q 650 192 642 218 q 672 145 658 167 q 708 96 686 124 l 546 -17 m 586 1039 l 403 807 l 307 824 l 417 1056 l 586 1039 z "},"ü":{"ha":735,"x_min":47,"x_max":708,"o":"m 546 -17 q 501 53 518 24 q 476 114 485 82 q 432 67 456 90 q 380 26 408 44 q 319 -5 351 7 q 250 -17 288 -17 q 183 -4 215 -17 q 125 38 150 8 q 85 117 100 67 q 69 242 69 167 q 70 298 69 260 q 72 378 71 336 q 74 460 74 421 q 75 519 75 499 q 69 608 75 565 q 47 678 63 650 l 238 711 q 249 642 247 679 q 251 576 251 604 q 249 496 251 536 q 245 417 247 456 q 241 345 243 379 q 239 286 239 311 q 267 174 239 204 q 343 143 294 143 q 413 157 383 143 q 465 190 442 171 q 464 247 464 215 q 464 318 464 278 q 464 433 464 382 q 463 529 464 485 q 462 613 463 574 q 460 694 461 653 l 647 694 q 644 619 646 661 q 641 531 643 578 q 638 435 639 485 q 636 340 636 386 q 639 252 636 286 q 650 192 642 218 q 672 145 658 167 q 708 96 686 124 l 546 -17 m 150 915 q 173 976 150 950 q 232 1003 196 1003 q 290 981 265 1003 q 314 922 314 958 q 290 862 314 886 q 228 838 267 838 q 173 858 196 838 q 150 915 150 878 m 403 915 q 425 976 403 950 q 486 1003 447 1003 q 542 981 518 1003 q 567 922 567 958 q 543 862 567 886 q 481 838 519 838 q 426 858 449 838 q 403 915 403 878 z "},"ụ":{"ha":735,"x_min":47,"x_max":708,"o":"m 546 -17 q 501 53 518 24 q 476 114 485 82 q 432 67 456 90 q 380 26 408 44 q 319 -5 351 7 q 250 -17 288 -17 q 183 -4 215 -17 q 125 38 150 8 q 85 117 100 67 q 69 242 69 167 q 70 298 69 260 q 72 378 71 336 q 74 460 74 421 q 75 519 75 499 q 69 608 75 565 q 47 678 63 650 l 238 711 q 249 642 247 679 q 251 576 251 604 q 249 496 251 536 q 245 417 247 456 q 241 345 243 379 q 239 286 239 311 q 267 174 239 204 q 343 143 294 143 q 413 157 383 143 q 465 190 442 171 q 464 247 464 215 q 464 318 464 278 q 464 433 464 382 q 463 529 464 485 q 462 613 463 574 q 460 694 461 653 l 647 694 q 644 619 646 661 q 641 531 643 578 q 638 435 639 485 q 636 340 636 386 q 639 252 636 286 q 650 192 642 218 q 672 145 658 167 q 708 96 686 124 l 546 -17 m 260 -199 q 284 -137 260 -162 q 351 -111 308 -111 q 415 -133 388 -111 q 442 -190 442 -154 q 418 -249 442 -225 q 351 -274 394 -274 q 288 -254 315 -274 q 260 -199 260 -235 z "},"ù":{"ha":735,"x_min":47,"x_max":708,"o":"m 546 -17 q 501 53 518 24 q 476 114 485 82 q 432 67 456 90 q 380 26 408 44 q 319 -5 351 7 q 250 -17 288 -17 q 183 -4 215 -17 q 125 38 150 8 q 85 117 100 67 q 69 242 69 167 q 70 298 69 260 q 72 378 71 336 q 74 460 74 421 q 75 519 75 499 q 69 608 75 565 q 47 678 63 650 l 238 711 q 249 642 247 679 q 251 576 251 604 q 249 496 251 536 q 245 417 247 456 q 241 345 243 379 q 239 286 239 311 q 267 174 239 204 q 343 143 294 143 q 413 157 383 143 q 465 190 442 171 q 464 247 464 215 q 464 318 464 278 q 464 433 464 382 q 463 529 464 485 q 462 613 463 574 q 460 694 461 653 l 647 694 q 644 619 646 661 q 641 531 643 578 q 638 435 639 485 q 636 340 636 386 q 639 252 636 286 q 650 192 642 218 q 672 145 658 167 q 708 96 686 124 l 546 -17 m 369 1056 l 479 824 l 383 807 l 200 1039 l 369 1056 z "}," ":{"ha":294,"x_min":0,"x_max":0,"o":""},"Ǉ":{"ha":1061,"x_min":99,"x_max":971,"o":"m 654 0 l 99 0 q 102 117 100 67 q 106 223 104 168 q 108 349 107 278 q 110 526 110 419 q 108 740 110 633 q 103 958 107 846 l 301 972 q 295 881 297 928 q 292 778 293 835 q 291 653 292 722 q 290 494 290 583 q 290 296 290 381 q 292 136 290 211 l 654 136 l 654 0 m 779 701 q 777 829 779 771 q 772 958 775 888 l 971 972 q 963 853 965 910 q 961 753 961 797 q 960 608 961 682 q 957 461 958 533 q 953 321 956 389 q 947 194 950 253 q 940 100 944 140 q 931 30 936 60 q 918 -22 925 0 q 903 -60 911 -43 q 828 -152 875 -118 q 726 -204 782 -186 l 621 -69 q 688 -49 658 -65 q 738 -2 718 -33 q 769 78 758 29 q 779 197 779 126 l 779 701 z "},"ǈ":{"ha":1015,"x_min":99,"x_max":947,"o":"m 654 0 l 99 0 q 102 117 100 67 q 106 223 104 168 q 108 349 107 278 q 110 526 110 419 q 108 740 110 633 q 103 958 107 846 l 301 972 q 295 881 297 928 q 292 778 293 835 q 291 653 292 722 q 290 494 290 583 q 290 296 290 381 q 292 136 290 211 l 654 136 l 654 0 m 757 408 q 756 549 757 483 q 750 694 754 615 l 940 694 q 931 567 933 631 q 929 460 929 504 q 928 368 929 428 q 927 239 928 308 q 924 98 926 169 q 919 -28 922 26 q 902 -165 914 -117 q 867 -246 890 -214 q 791 -303 836 -287 q 706 -319 746 -319 q 635 -311 674 -319 q 574 -292 597 -303 l 614 -147 q 649 -160 628 -156 q 686 -165 669 -165 q 740 -132 722 -165 q 757 -6 757 -99 l 757 408 m 746 921 q 773 988 746 960 q 847 1017 800 1017 q 917 993 888 1017 q 947 929 947 969 q 919 864 947 890 q 843 838 890 838 q 774 859 803 838 q 746 921 746 881 z "},"ǉ":{"ha":696,"x_min":79,"x_max":628,"o":"m 274 1069 q 267 969 269 1021 q 265 856 265 918 q 263 718 264 794 q 263 543 263 642 q 263 377 263 451 q 263 239 263 303 q 265 117 264 175 q 267 0 265 60 l 79 0 q 83 128 81 72 q 86 244 85 183 q 89 381 88 304 q 90 575 90 458 q 89 812 90 693 q 83 1056 88 931 l 274 1069 m 438 408 q 436 549 438 483 q 431 694 435 615 l 621 694 q 612 567 614 631 q 610 460 610 504 q 609 368 610 428 q 608 239 608 308 q 605 98 607 169 q 600 -28 603 26 q 583 -165 594 -117 q 547 -246 571 -214 q 472 -303 517 -287 q 386 -319 426 -319 q 316 -311 354 -319 q 254 -292 278 -303 l 294 -147 q 329 -160 308 -156 q 367 -165 350 -165 q 420 -132 403 -165 q 438 -6 438 -99 l 438 408 m 426 921 q 453 988 426 960 q 528 1017 481 1017 q 598 993 568 1017 q 628 929 628 969 q 599 864 628 890 q 524 838 571 838 q 455 859 483 838 q 426 921 426 881 z "},"Ǌ":{"ha":1386,"x_min":99,"x_max":1296,"o":"m 897 972 q 891 881 893 928 q 888 778 889 835 q 887 653 888 722 q 886 494 886 583 q 886 344 886 411 q 887 218 886 276 q 888 107 888 160 q 890 0 889 54 l 611 -17 q 431 380 518 169 q 278 806 344 590 q 277 742 278 779 q 276 664 276 706 q 276 578 276 622 q 276 494 276 535 q 278 344 276 411 q 281 218 279 276 q 284 107 282 160 q 288 0 286 54 l 99 0 q 102 117 100 67 q 106 223 104 168 q 108 349 107 278 q 110 526 110 419 q 108 740 110 633 q 103 958 107 846 l 410 989 q 527 590 453 807 q 714 124 601 374 q 718 290 717 190 q 719 526 719 390 q 715 740 719 633 q 706 958 710 846 l 897 972 m 1104 701 q 1102 829 1104 771 q 1097 958 1100 888 l 1296 972 q 1288 853 1290 910 q 1286 753 1286 797 q 1285 608 1286 682 q 1282 461 1283 533 q 1278 321 1281 389 q 1272 194 1275 253 q 1265 100 1269 140 q 1256 30 1261 60 q 1243 -22 1250 0 q 1228 -60 1236 -43 q 1153 -152 1200 -118 q 1051 -204 1107 -186 l 946 -69 q 1013 -49 983 -65 q 1063 -2 1043 -33 q 1094 78 1083 29 q 1104 197 1104 126 l 1104 701 z "},"ǋ":{"ha":1340,"x_min":99,"x_max":1272,"o":"m 897 972 q 891 881 893 928 q 888 778 889 835 q 887 653 888 722 q 886 494 886 583 q 886 344 886 411 q 887 218 886 276 q 888 107 888 160 q 890 0 889 54 l 611 -17 q 431 380 518 169 q 278 806 344 590 q 277 742 278 779 q 276 664 276 706 q 276 578 276 622 q 276 494 276 535 q 278 344 276 411 q 281 218 279 276 q 284 107 282 160 q 288 0 286 54 l 99 0 q 102 117 100 67 q 106 223 104 168 q 108 349 107 278 q 110 526 110 419 q 108 740 110 633 q 103 958 107 846 l 410 989 q 527 590 453 807 q 714 124 601 374 q 718 290 717 190 q 719 526 719 390 q 715 740 719 633 q 706 958 710 846 l 897 972 m 1082 408 q 1081 549 1082 483 q 1075 694 1079 615 l 1265 694 q 1256 567 1258 631 q 1254 460 1254 504 q 1253 368 1254 428 q 1252 239 1253 308 q 1249 98 1251 169 q 1244 -28 1247 26 q 1227 -165 1239 -117 q 1192 -246 1215 -214 q 1116 -303 1161 -287 q 1031 -319 1071 -319 q 960 -311 999 -319 q 899 -292 922 -303 l 939 -147 q 974 -160 953 -156 q 1011 -165 994 -165 q 1065 -132 1047 -165 q 1082 -6 1082 -99 l 1082 408 m 1071 921 q 1098 988 1071 960 q 1172 1017 1125 1017 q 1242 993 1213 1017 q 1272 929 1272 969 q 1244 864 1272 890 q 1168 838 1215 838 q 1099 859 1128 838 q 1071 921 1071 881 z "},"ǌ":{"ha":1106,"x_min":29,"x_max":1038,"o":"m 192 711 q 236 640 219 671 q 261 578 253 610 q 308 624 282 600 q 365 667 335 649 q 429 699 394 686 q 501 711 464 711 q 569 699 536 711 q 626 657 601 686 q 667 578 651 628 q 682 453 682 528 q 681 396 682 433 q 679 316 681 358 q 677 235 678 274 q 676 175 676 196 q 683 87 676 129 q 704 17 689 44 l 511 -17 q 499 53 501 15 q 497 118 497 90 q 499 198 497 157 q 503 277 501 239 q 508 349 506 315 q 510 408 510 383 q 482 521 510 490 q 406 551 454 551 q 331 539 365 551 q 271 508 297 526 q 274 450 274 482 q 274 376 274 418 q 274 261 274 313 q 274 165 274 210 q 276 81 275 121 q 278 0 276 42 l 90 0 q 93 75 92 33 q 97 163 94 117 q 100 259 99 210 q 101 354 101 308 q 99 442 101 408 q 88 502 96 476 q 65 549 79 528 q 29 599 51 571 l 192 711 m 847 408 q 846 549 847 483 q 840 694 844 615 l 1031 694 q 1022 567 1024 631 q 1019 460 1019 504 q 1019 368 1019 428 q 1017 239 1018 308 q 1015 98 1017 169 q 1010 -28 1013 26 q 992 -165 1004 -117 q 957 -246 981 -214 q 881 -303 926 -287 q 796 -319 836 -319 q 726 -311 764 -319 q 664 -292 688 -303 l 704 -147 q 739 -160 718 -156 q 776 -165 760 -165 q 830 -132 813 -165 q 847 -6 847 -99 l 847 408 m 836 921 q 863 988 836 960 q 938 1017 890 1017 q 1008 993 978 1017 q 1038 929 1038 969 q 1009 864 1038 890 q 933 838 981 838 q 865 859 893 838 q 836 921 836 881 z "},"Ǳ":{"ha":1672,"x_min":99,"x_max":1631,"o":"m 103 958 q 240 979 158 969 q 418 989 321 989 q 613 955 528 989 q 758 858 699 921 q 849 707 818 796 q 881 510 881 618 q 845 299 881 396 q 745 133 810 203 q 590 23 681 63 q 389 -17 500 -17 q 219 -12 293 -17 q 99 0 144 -7 q 102 117 100 67 q 106 223 104 168 q 108 349 107 278 q 110 526 110 419 q 108 740 110 633 q 103 958 107 846 m 399 864 q 348 859 375 864 q 293 847 321 854 q 290 697 290 781 q 290 494 290 614 q 290 281 290 371 q 292 111 290 190 q 356 97 321 97 q 488 119 426 97 q 596 190 550 142 q 668 315 642 239 q 694 499 694 390 q 674 674 694 604 q 615 787 654 744 q 522 847 576 829 q 399 864 467 864 m 1625 894 q 1533 749 1586 839 q 1422 556 1481 660 q 1306 342 1364 451 q 1201 139 1249 233 l 1631 139 l 1617 -17 q 1540 -10 1596 -14 q 1410 -5 1485 -7 q 1254 -1 1336 -3 q 1100 0 1172 0 l 956 0 l 940 94 q 1039 242 985 157 q 1151 426 1093 328 q 1267 630 1210 525 q 1376 835 1325 735 l 990 835 l 978 989 q 1067 983 1004 986 q 1209 978 1131 981 q 1369 974 1288 975 q 1515 972 1451 972 l 1613 972 l 1625 894 z "},"ǲ":{"ha":1526,"x_min":99,"x_max":1485,"o":"m 103 958 q 240 979 158 969 q 418 989 321 989 q 613 955 528 989 q 758 858 699 921 q 849 707 818 796 q 881 510 881 618 q 845 299 881 396 q 745 133 810 203 q 590 23 681 63 q 389 -17 500 -17 q 219 -12 293 -17 q 99 0 144 -7 q 102 117 100 67 q 106 223 104 168 q 108 349 107 278 q 110 526 110 419 q 108 740 110 633 q 103 958 107 846 m 399 864 q 348 859 375 864 q 293 847 321 854 q 290 697 290 781 q 290 494 290 614 q 290 281 290 371 q 292 111 290 190 q 356 97 321 97 q 488 119 426 97 q 596 190 550 142 q 668 315 642 239 q 694 499 694 390 q 674 674 694 604 q 615 787 654 744 q 522 847 576 829 q 399 864 467 864 m 1478 631 q 1423 544 1457 599 q 1351 423 1389 490 q 1274 282 1313 356 q 1201 139 1235 208 l 1485 149 l 1475 -17 q 1414 -10 1457 -12 q 1317 -5 1371 -7 q 1208 -1 1264 -3 q 1111 0 1153 0 l 983 0 l 968 81 q 1030 172 994 118 q 1103 288 1065 225 q 1179 419 1142 350 q 1250 557 1217 489 l 996 547 l 979 711 q 1063 704 1006 707 q 1188 699 1121 701 q 1318 696 1254 697 q 1421 694 1382 694 l 1467 694 l 1478 631 z "},"ǳ":{"ha":1311,"x_min":49,"x_max":1269,"o":"m 567 -17 q 504 47 528 19 q 468 101 481 74 q 424 60 447 81 q 372 22 400 39 q 314 -6 344 4 q 249 -17 283 -17 q 175 -4 211 -17 q 111 42 139 8 q 66 132 83 75 q 49 278 49 189 q 72 467 49 386 q 136 603 94 549 q 235 684 178 657 q 363 711 293 711 q 443 690 406 711 q 441 889 442 803 q 438 1054 440 975 l 626 1069 q 617 713 618 900 q 615 340 615 526 q 618 252 615 286 q 629 192 621 218 q 651 145 638 167 q 688 96 665 124 l 567 -17 m 346 143 q 401 153 376 143 q 447 181 426 164 q 444 240 444 207 q 443 318 443 274 l 443 574 q 357 614 411 614 q 263 540 296 614 q 231 322 231 467 q 239 231 231 265 q 263 176 247 196 q 299 150 278 157 q 346 143 319 143 m 1263 631 q 1208 544 1242 599 q 1135 423 1174 490 q 1058 282 1097 356 q 986 139 1019 208 l 1269 149 l 1260 -17 q 1199 -10 1242 -12 q 1102 -5 1156 -7 q 993 -1 1049 -3 q 896 0 938 0 l 768 0 l 753 81 q 815 172 779 118 q 888 288 850 225 q 964 419 926 350 q 1035 557 1001 489 l 781 547 l 764 711 q 848 704 790 707 q 972 699 906 701 q 1103 696 1039 697 q 1206 694 1167 694 l 1251 694 l 1263 631 z "},"ũ":{"ha":735,"x_min":47,"x_max":708,"o":"m 546 -17 q 501 53 518 24 q 476 114 485 82 q 432 67 456 90 q 380 26 408 44 q 319 -5 351 7 q 250 -17 288 -17 q 183 -4 215 -17 q 125 38 150 8 q 85 117 100 67 q 69 242 69 167 q 70 298 69 260 q 72 378 71 336 q 74 460 74 421 q 75 519 75 499 q 69 608 75 565 q 47 678 63 650 l 238 711 q 249 642 247 679 q 251 576 251 604 q 249 496 251 536 q 245 417 247 456 q 241 345 243 379 q 239 286 239 311 q 267 174 239 204 q 343 143 294 143 q 413 157 383 143 q 465 190 442 171 q 464 247 464 215 q 464 318 464 278 q 464 433 464 382 q 463 529 464 485 q 462 613 463 574 q 460 694 461 653 l 647 694 q 644 619 646 661 q 641 531 643 578 q 638 435 639 485 q 636 340 636 386 q 639 252 636 286 q 650 192 642 218 q 672 145 658 167 q 708 96 686 124 l 546 -17 m 594 976 q 435 828 517 828 q 390 840 411 828 q 350 865 369 851 q 313 890 331 878 q 278 901 294 901 q 193 833 228 901 l 118 878 q 278 1026 196 1026 q 322 1015 301 1026 q 363 990 343 1003 q 400 965 382 976 q 435 953 418 953 q 519 1021 485 953 l 594 976 z "},"v":{"ha":706,"x_min":24,"x_max":686,"o":"m 686 711 q 571 342 633 514 q 432 0 508 171 l 264 -17 q 133 326 192 154 q 24 694 74 497 l 203 711 q 267 429 232 568 q 347 157 303 290 q 435 420 396 289 q 507 694 475 551 l 686 711 z "},"w":{"ha":1079,"x_min":24,"x_max":1058,"o":"m 1058 711 q 968 342 1018 514 q 854 0 918 171 l 686 -17 q 645 100 665 39 q 606 224 625 161 q 569 351 586 288 q 539 476 551 415 q 475 233 514 358 q 396 0 436 108 l 228 -17 q 113 326 164 154 q 24 694 63 497 l 203 711 q 251 434 224 571 q 311 165 278 297 q 388 425 353 296 q 451 694 424 554 l 631 711 q 693 434 658 571 q 769 165 728 297 q 831 425 803 296 q 879 694 858 554 l 1058 711 z "},"ẃ":{"ha":1078,"x_min":22,"x_max":1057,"o":"m 1057 711 q 967 342 1017 514 q 853 0 917 171 l 685 -17 q 644 100 664 39 q 604 224 624 161 q 567 351 585 288 q 538 476 550 415 q 474 233 513 358 q 394 0 435 108 l 226 -17 q 112 326 163 154 q 22 694 61 497 l 201 711 q 249 434 222 571 q 310 165 276 297 q 387 425 351 296 q 450 694 422 554 l 629 711 q 692 434 657 571 q 768 165 726 297 q 829 425 801 296 q 878 694 857 554 l 1057 711 m 749 1039 l 565 807 l 469 824 l 579 1056 l 749 1039 z "},"ẅ":{"ha":1078,"x_min":22,"x_max":1057,"o":"m 1057 711 q 967 342 1017 514 q 853 0 917 171 l 685 -17 q 644 100 664 39 q 604 224 624 161 q 567 351 585 288 q 538 476 550 415 q 474 233 513 358 q 394 0 435 108 l 226 -17 q 112 326 163 154 q 22 694 61 497 l 201 711 q 249 434 222 571 q 310 165 276 297 q 387 425 351 296 q 450 694 422 554 l 629 711 q 692 434 657 571 q 768 165 726 297 q 829 425 801 296 q 878 694 857 554 l 1057 711 m 357 915 q 380 976 357 950 q 439 1003 403 1003 q 497 981 472 1003 q 521 922 521 958 q 497 862 521 886 q 435 838 474 838 q 380 858 403 838 q 357 915 357 878 m 610 915 q 632 976 610 950 q 693 1003 654 1003 q 749 981 725 1003 q 774 922 774 958 q 750 862 774 886 q 688 838 726 838 q 633 858 656 838 q 610 915 610 878 z "},"ẁ":{"ha":1078,"x_min":22,"x_max":1057,"o":"m 1057 711 q 967 342 1017 514 q 853 0 917 171 l 685 -17 q 644 100 664 39 q 604 224 624 161 q 567 351 585 288 q 538 476 550 415 q 474 233 513 358 q 394 0 435 108 l 226 -17 q 112 326 163 154 q 22 694 61 497 l 201 711 q 249 434 222 571 q 310 165 276 297 q 387 425 351 296 q 450 694 422 554 l 629 711 q 692 434 657 571 q 768 165 726 297 q 829 425 801 296 q 878 694 857 554 l 1057 711 m 524 1056 l 633 824 l 538 807 l 354 1039 l 524 1056 z "},"x":{"ha":689,"x_min":8,"x_max":678,"o":"m 676 694 q 630 633 651 663 q 583 567 608 604 q 523 479 557 531 q 438 353 489 428 q 508 248 476 296 q 569 158 540 200 q 624 77 597 115 q 678 0 650 39 l 479 0 q 443 63 460 33 q 411 120 426 92 q 380 176 396 149 q 346 236 364 204 q 272 114 306 171 q 207 0 239 57 l 8 0 q 67 83 40 46 q 120 160 93 121 q 178 244 147 199 q 254 356 210 290 q 140 523 196 440 q 18 694 83 606 l 219 694 q 244 644 232 668 q 272 595 257 621 q 304 540 286 569 q 346 471 322 510 q 410 580 381 528 q 475 694 439 632 l 676 694 z "},"y":{"ha":694,"x_min":22,"x_max":674,"o":"m 674 711 q 590 435 633 567 q 498 181 546 304 q 398 -62 450 57 q 289 -301 346 -182 l 97 -318 q 196 -151 151 -233 q 278 11 240 -69 q 133 335 194 168 q 22 694 71 501 l 201 711 q 233 563 217 639 q 269 418 250 488 q 309 288 288 349 q 356 185 331 228 q 434 448 404 324 q 494 694 464 572 l 674 711 z "},"ý":{"ha":694,"x_min":22,"x_max":674,"o":"m 674 711 q 590 435 633 567 q 498 181 546 304 q 398 -62 450 57 q 289 -301 346 -182 l 97 -318 q 196 -151 151 -233 q 278 11 240 -69 q 133 335 194 168 q 22 694 71 501 l 201 711 q 233 563 217 639 q 269 418 250 488 q 309 288 288 349 q 356 185 331 228 q 434 448 404 324 q 494 694 464 572 l 674 711 m 582 1039 l 399 807 l 303 824 l 413 1056 l 582 1039 z "},"ÿ":{"ha":694,"x_min":22,"x_max":674,"o":"m 674 711 q 590 435 633 567 q 498 181 546 304 q 398 -62 450 57 q 289 -301 346 -182 l 97 -318 q 196 -151 151 -233 q 278 11 240 -69 q 133 335 194 168 q 22 694 71 501 l 201 711 q 233 563 217 639 q 269 418 250 488 q 309 288 288 349 q 356 185 331 228 q 434 448 404 324 q 494 694 464 572 l 674 711 m 154 915 q 177 976 154 950 q 236 1003 200 1003 q 294 981 269 1003 q 318 922 318 958 q 294 862 318 886 q 232 838 271 838 q 177 858 200 838 q 154 915 154 878 m 407 915 q 429 976 407 950 q 490 1003 451 1003 q 547 981 522 1003 q 571 922 571 958 q 547 862 571 886 q 485 838 524 838 q 430 858 453 838 q 407 915 407 878 z "},"ỳ":{"ha":694,"x_min":22,"x_max":674,"o":"m 674 711 q 590 435 633 567 q 498 181 546 304 q 398 -62 450 57 q 289 -301 346 -182 l 97 -318 q 196 -151 151 -233 q 278 11 240 -69 q 133 335 194 168 q 22 694 71 501 l 201 711 q 233 563 217 639 q 269 418 250 488 q 309 288 288 349 q 356 185 331 228 q 434 448 404 324 q 494 694 464 572 l 674 711 m 304 1056 l 414 824 l 318 807 l 135 1039 l 304 1056 z "},"ỹ":{"ha":694,"x_min":22,"x_max":674,"o":"m 674 711 q 590 435 633 567 q 498 181 546 304 q 398 -62 450 57 q 289 -301 346 -182 l 97 -318 q 196 -151 151 -233 q 278 11 240 -69 q 133 335 194 168 q 22 694 71 501 l 201 711 q 233 563 217 639 q 269 418 250 488 q 309 288 288 349 q 356 185 331 228 q 434 448 404 324 q 494 694 464 572 l 674 711 m 600 976 q 440 828 522 828 q 396 840 417 828 q 356 865 375 851 q 318 890 336 878 q 283 901 300 901 q 199 833 233 901 l 124 878 q 283 1026 201 1026 q 328 1015 307 1026 q 368 990 349 1003 q 406 965 388 976 q 440 953 424 953 q 525 1021 490 953 l 600 976 z "},"z":{"ha":594,"x_min":36,"x_max":553,"o":"m 546 631 q 491 544 525 599 q 419 423 457 490 q 342 282 381 356 q 269 139 303 208 l 553 149 l 543 -17 q 482 -10 525 -12 q 385 -5 439 -7 q 276 -1 332 -3 q 179 0 221 0 l 51 0 l 36 81 q 98 172 63 118 q 172 288 133 225 q 247 419 210 350 q 318 557 285 489 l 64 547 l 47 711 q 131 704 74 707 q 256 699 189 701 q 386 696 322 697 q 489 694 450 694 l 535 694 l 546 631 z "},"ź":{"ha":594,"x_min":36,"x_max":553,"o":"m 546 631 q 491 544 525 599 q 419 423 457 490 q 342 282 381 356 q 269 139 303 208 l 553 149 l 543 -17 q 482 -10 525 -12 q 385 -5 439 -7 q 276 -1 332 -3 q 179 0 221 0 l 51 0 l 36 81 q 98 172 63 118 q 172 288 133 225 q 247 419 210 350 q 318 557 285 489 l 64 547 l 47 711 q 131 704 74 707 q 256 699 189 701 q 386 696 322 697 q 489 694 450 694 l 535 694 l 546 631 m 526 1039 l 343 807 l 247 824 l 357 1056 l 526 1039 z "},"ż":{"ha":594,"x_min":36,"x_max":553,"o":"m 546 631 q 491 544 525 599 q 419 423 457 490 q 342 282 381 356 q 269 139 303 208 l 553 149 l 543 -17 q 482 -10 525 -12 q 385 -5 439 -7 q 276 -1 332 -3 q 179 0 221 0 l 51 0 l 36 81 q 98 172 63 118 q 172 288 133 225 q 247 419 210 350 q 318 557 285 489 l 64 547 l 47 711 q 131 704 74 707 q 256 699 189 701 q 386 696 322 697 q 489 694 450 694 l 535 694 l 546 631 m 242 913 q 266 974 242 949 q 333 1000 290 1000 q 397 978 369 1000 q 424 921 424 957 q 398 862 424 886 q 329 838 372 838 q 267 857 293 838 q 242 913 242 876 z "},"ẓ":{"ha":594,"x_min":36,"x_max":553,"o":"m 546 631 q 491 544 525 599 q 419 423 457 490 q 342 282 381 356 q 269 139 303 208 l 553 149 l 543 -17 q 482 -10 525 -12 q 385 -5 439 -7 q 276 -1 332 -3 q 179 0 221 0 l 51 0 l 36 81 q 98 172 63 118 q 172 288 133 225 q 247 419 210 350 q 318 557 285 489 l 64 547 l 47 711 q 131 704 74 707 q 256 699 189 701 q 386 696 322 697 q 489 694 450 694 l 535 694 l 546 631 m 196 -199 q 220 -137 196 -162 q 288 -111 244 -111 q 351 -133 324 -111 q 378 -190 378 -154 q 354 -249 378 -225 q 288 -274 331 -274 q 224 -254 251 -274 q 196 -199 196 -235 z "},"=":{"ha":694,"x_min":79,"x_max":615,"o":"m 607 429 q 475 433 540 432 q 343 435 410 435 q 211 433 276 435 q 79 429 146 432 l 86 557 q 218 553 153 554 q 350 551 283 551 q 483 553 417 551 q 615 557 549 554 l 607 429 m 607 135 q 475 139 540 138 q 343 140 410 140 q 211 139 276 140 q 79 135 146 138 l 86 263 q 218 258 153 260 q 350 257 283 257 q 483 258 417 257 q 615 263 549 260 l 607 135 z "},"!":{"ha":364,"x_min":71,"x_max":292,"o":"m 285 1015 q 274 829 279 929 q 263 631 268 729 q 255 440 258 532 q 251 275 251 347 l 108 275 q 102 612 108 436 q 86 1001 96 788 l 285 1015 m 71 75 q 101 148 71 117 q 182 179 131 179 q 259 153 226 179 q 292 83 292 128 q 260 12 292 40 q 178 -17 229 -17 q 102 7 133 -17 q 71 75 71 31 z "},"¡":{"ha":344,"x_min":63,"x_max":283,"o":"m 69 -319 q 81 -134 75 -233 q 92 65 88 -35 q 101 256 97 164 q 104 419 104 347 l 246 419 q 251 83 246 258 q 268 -306 257 -92 l 69 -319 m 283 619 q 253 547 283 578 q 172 515 224 515 q 95 541 128 515 q 63 611 63 567 q 94 683 63 654 q 176 711 125 711 q 252 688 221 711 q 283 619 283 664 z "},"-":{"ha":603,"x_min":75,"x_max":528,"o":"m 519 279 q 460 281 486 281 q 408 283 433 282 q 357 284 383 283 q 297 285 331 285 q 238 284 264 285 q 186 283 211 283 q 135 281 161 282 q 75 279 108 281 l 82 407 q 142 404 115 406 q 193 402 168 403 q 244 401 218 401 q 304 401 271 401 q 364 401 338 401 q 415 402 390 401 q 467 404 440 403 q 528 407 494 406 l 519 279 z "},"–":{"ha":742,"x_min":75,"x_max":667,"o":"m 658 279 q 579 281 614 281 q 512 283 544 282 q 444 284 479 283 q 367 285 410 285 q 289 284 324 285 q 221 283 254 283 q 153 281 188 282 q 75 279 118 281 l 82 407 q 160 404 125 406 q 227 402 194 403 q 294 401 260 401 q 374 401 329 401 q 451 401 417 401 q 519 402 486 401 q 588 404 553 403 q 667 407 622 406 l 658 279 z "},"—":{"ha":1117,"x_min":75,"x_max":1042,"o":"m 1033 279 q 902 281 960 281 q 790 283 844 282 q 677 284 735 283 q 547 285 619 285 q 420 284 476 285 q 311 283 364 283 q 202 281 258 282 q 75 279 146 281 l 82 407 q 208 404 153 406 q 317 402 264 403 q 427 401 371 401 q 554 401 483 401 q 684 401 626 401 q 797 402 742 401 q 910 404 853 403 q 1042 407 968 406 l 1033 279 z "},"_":{"ha":742,"x_min":75,"x_max":667,"o":"m 658 -139 q 512 -135 592 -137 q 367 -133 432 -133 q 221 -135 300 -133 q 75 -139 142 -136 l 82 -11 q 228 -15 149 -14 q 374 -17 307 -17 q 444 -17 407 -17 q 519 -16 481 -17 q 596 -14 558 -15 q 667 -11 633 -12 l 658 -139 z "},"|":{"ha":317,"x_min":89,"x_max":229,"o":"m 229 972 q 223 845 225 908 q 220 707 221 782 q 219 540 219 632 q 218 328 218 449 q 218 134 218 219 q 219 -25 218 49 q 220 -166 219 -99 q 222 -306 221 -233 l 89 -306 q 92 -203 90 -249 q 94 -114 93 -157 q 96 -26 94 -71 q 98 74 97 19 q 99 199 99 129 q 100 360 100 268 q 99 656 100 504 q 93 958 97 807 l 229 972 z "},"¦":{"ha":350,"x_min":89,"x_max":260,"o":"m 260 972 q 253 925 256 949 q 251 873 251 901 q 249 808 250 844 q 249 724 249 772 q 249 634 249 674 q 249 560 249 594 q 251 494 250 525 q 253 431 251 463 l 89 431 q 92 503 90 472 q 96 568 94 535 q 99 645 97 601 q 100 756 100 689 q 99 857 100 808 q 93 958 97 906 l 260 972 m 89 -308 q 95 -261 93 -285 q 98 -209 97 -237 q 99 -144 99 -181 q 100 -60 100 -108 q 100 30 100 -10 q 99 104 100 69 q 98 170 99 139 q 96 233 97 201 l 260 233 q 256 160 258 192 q 253 96 254 129 q 250 19 251 63 q 249 -92 249 -25 q 250 -193 249 -144 q 256 -294 251 -242 l 89 -308 z "},"§":{"ha":589,"x_min":69,"x_max":528,"o":"m 318 847 q 248 830 267 847 q 229 785 229 813 q 251 744 229 760 q 307 714 274 728 q 378 684 340 700 q 450 644 417 668 q 506 582 483 619 q 528 488 528 544 q 508 397 528 435 q 456 335 488 360 q 498 274 482 311 q 514 182 514 238 q 491 71 514 113 q 434 7 468 29 q 361 -23 400 -15 q 290 -31 322 -31 q 160 -10 221 -31 q 71 36 99 11 l 71 183 q 169 133 111 156 q 285 110 228 110 q 349 126 326 110 q 372 175 372 142 q 350 224 372 206 q 294 258 328 243 q 221 289 260 274 q 148 327 182 304 q 92 385 114 350 q 69 474 69 419 q 91 562 69 522 q 149 629 113 601 q 101 688 118 653 q 83 782 83 724 q 147 940 83 892 q 322 989 211 989 q 403 983 356 989 q 499 960 451 978 l 499 814 q 460 828 483 822 q 410 839 436 835 q 360 845 385 843 q 318 847 336 847 m 369 389 q 392 419 383 403 q 400 454 400 436 q 387 494 400 476 q 351 527 374 513 q 299 555 328 542 q 238 581 269 568 q 211 550 221 568 q 201 515 201 532 q 239 455 201 483 q 369 389 276 426 z "},"˝":{"ha":678,"x_min":138,"x_max":656,"o":"m 400 1039 l 233 807 l 138 824 l 231 1056 l 400 1039 m 656 1039 l 489 807 l 393 824 l 486 1056 l 656 1039 z "},"~":{"ha":710,"x_min":75,"x_max":635,"o":"m 635 396 q 475 247 557 247 q 407 259 439 247 q 346 284 375 271 q 289 309 317 297 q 235 321 261 321 q 150 253 185 321 l 75 297 q 235 446 153 446 q 303 434 271 446 q 364 409 335 422 q 421 384 393 396 q 475 372 449 372 q 560 440 525 372 l 635 396 z "},"˘":{"ha":725,"x_min":146,"x_max":579,"o":"m 579 1040 q 563 952 579 990 q 515 888 546 914 q 444 849 485 863 q 356 836 403 836 q 199 892 253 836 q 146 1040 146 947 l 272 1040 q 299 969 272 999 q 363 940 325 940 q 427 969 400 940 q 454 1040 454 999 l 579 1040 z "},"˚":{"ha":469,"x_min":97,"x_max":372,"o":"m 97 919 q 134 1020 97 978 q 238 1063 171 1063 q 288 1053 264 1063 q 331 1028 313 1044 q 361 987 350 1011 q 372 933 372 963 q 333 837 372 876 q 228 797 293 797 q 136 828 175 797 q 97 919 97 860 m 178 926 q 194 890 178 903 q 231 876 210 876 q 273 892 258 876 q 288 932 288 908 q 274 969 288 956 q 236 983 260 983 q 193 967 208 983 q 178 926 178 950 z "},"¯":{"ha":700,"x_min":111,"x_max":589,"o":"m 583 881 q 465 884 517 882 q 347 886 413 886 q 229 885 282 886 q 111 881 176 885 l 115 994 q 233 990 181 992 q 351 989 285 989 q 469 990 417 989 q 589 994 522 992 l 583 881 z "},"ˆ":{"ha":642,"x_min":88,"x_max":565,"o":"m 225 1083 q 271 1077 240 1081 q 326 1074 301 1074 q 382 1077 351 1074 q 428 1083 413 1081 l 565 851 l 469 835 l 326 992 l 183 835 l 88 851 l 225 1083 z "},"ˇ":{"ha":642,"x_min":88,"x_max":565,"o":"m 88 1067 l 183 1083 l 326 926 l 469 1083 l 565 1067 l 428 835 q 382 841 413 838 q 326 844 351 844 q 271 841 301 844 q 225 835 240 838 l 88 1067 z "},"^":{"ha":600,"x_min":61,"x_max":539,"o":"m 199 575 q 244 569 214 572 q 300 565 275 565 q 356 569 325 565 q 401 575 386 572 l 539 274 l 443 257 l 300 483 l 157 257 l 61 274 l 199 575 z "},"ʼ":{"ha":449,"x_min":158,"x_max":300,"o":"m 300 1056 l 269 779 l 174 786 l 158 1069 l 300 1056 z "},"(":{"ha":417,"x_min":49,"x_max":397,"o":"m 343 -156 q 258 -100 308 -136 q 160 6 207 -64 q 81 190 114 76 q 49 478 49 304 q 81 766 49 651 q 160 952 114 881 q 258 1063 207 1024 q 343 1125 308 1101 l 397 1061 q 336 1002 367 1040 q 281 897 306 964 q 240 728 256 829 q 225 485 225 628 q 241 236 225 338 q 282 68 257 135 q 338 -36 307 1 q 397 -93 368 -74 l 343 -156 z "},")":{"ha":417,"x_min":19,"x_max":368,"o":"m 19 -93 q 79 -36 49 -74 q 135 68 110 1 q 176 236 160 135 q 192 485 192 338 q 176 728 192 628 q 136 897 161 829 q 81 1002 111 964 q 19 1061 50 1040 l 74 1125 q 159 1063 108 1101 q 256 952 210 1024 q 335 766 303 881 q 368 478 368 651 q 335 190 368 304 q 256 6 303 76 q 159 -100 210 -64 q 74 -156 108 -136 l 19 -93 z "},"[":{"ha":457,"x_min":90,"x_max":433,"o":"m 407 1017 l 256 1017 q 253 920 254 985 q 253 781 253 856 q 253 628 253 706 q 253 494 253 551 q 253 363 253 438 q 253 213 253 288 q 253 74 253 139 q 254 -28 254 10 l 433 -28 l 433 -136 l 90 -136 q 94 2 92 -69 q 97 155 96 74 q 100 328 99 236 q 101 526 101 419 q 101 658 101 579 q 100 822 101 738 q 97 988 99 907 q 94 1125 96 1068 l 407 1125 l 407 1017 z "},"]":{"ha":457,"x_min":24,"x_max":367,"o":"m 50 1125 l 363 1125 q 359 988 360 1068 q 357 822 358 907 q 356 658 356 738 q 356 526 356 579 q 357 328 356 419 q 360 155 358 236 q 363 2 361 74 q 367 -136 365 -69 l 24 -136 l 24 -28 l 203 -28 q 203 74 203 10 q 204 213 204 139 q 204 363 204 288 q 204 494 204 438 q 204 628 204 551 q 204 781 204 706 q 203 920 204 856 q 201 1017 203 985 l 50 1017 l 50 1125 z "},"?":{"ha":621,"x_min":40,"x_max":571,"o":"m 217 75 q 247 148 217 117 q 329 179 276 179 q 406 153 374 179 q 438 83 438 128 q 406 12 438 40 q 324 -17 375 -17 q 248 7 279 -17 q 217 75 217 31 m 404 442 q 399 354 400 396 q 397 275 397 313 l 254 275 q 255 318 254 299 q 256 354 256 338 q 254 412 256 385 q 250 479 253 439 q 317 539 288 511 q 365 595 346 567 q 393 655 383 624 q 403 726 403 686 q 376 831 403 799 q 314 863 350 863 q 235 815 267 863 q 204 665 204 768 l 40 656 q 67 824 40 760 q 136 924 94 888 q 228 972 178 960 q 322 985 278 985 q 441 962 393 985 q 517 902 489 939 q 558 818 546 865 q 571 722 571 771 q 561 640 571 676 q 531 571 551 603 q 478 508 510 539 q 404 442 447 476 z "},"¿":{"ha":608,"x_min":42,"x_max":572,"o":"m 396 632 q 366 559 396 590 q 283 528 336 528 q 207 553 239 528 q 175 624 175 579 q 206 695 175 667 q 289 724 238 724 q 365 700 333 724 q 396 632 396 676 m 208 224 q 211 276 210 247 q 214 332 213 304 q 215 386 215 360 q 215 432 215 413 l 358 432 q 358 389 358 408 q 357 353 357 369 q 358 275 357 321 q 363 186 360 229 q 296 126 325 154 q 248 70 267 99 q 219 10 229 42 q 210 -61 210 -22 q 236 -165 210 -133 q 299 -197 263 -197 q 377 -150 346 -197 q 408 0 408 -103 l 572 10 q 545 -158 572 -94 q 476 -258 518 -222 q 385 -307 435 -294 q 290 -319 335 -319 q 172 -297 219 -319 q 95 -237 124 -274 q 54 -153 67 -200 q 42 -57 42 -106 q 51 26 42 -11 q 82 94 61 63 q 134 158 103 126 q 208 224 165 189 z "},"•":{"ha":449,"x_min":101,"x_max":349,"o":"m 101 422 q 135 523 101 481 q 228 565 168 565 q 313 531 276 565 q 349 436 349 496 q 313 340 349 379 q 218 300 276 300 q 135 331 169 300 q 101 422 101 363 z "},"’":{"ha":304,"x_min":49,"x_max":268,"o":"m 49 975 q 88 1049 58 1019 q 160 1086 118 1079 q 268 967 268 1057 q 117 679 268 850 l 53 729 q 103 821 89 788 q 118 886 118 854 q 49 975 118 956 z "},"‘":{"ha":322,"x_min":56,"x_max":275,"o":"m 275 790 q 235 716 265 746 q 164 679 206 686 q 56 799 56 708 q 207 1086 56 915 l 271 1036 q 220 944 235 978 q 206 879 206 911 q 275 790 206 810 z "},"‚":{"ha":314,"x_min":44,"x_max":264,"o":"m 44 -40 q 84 34 54 4 q 156 71 114 64 q 264 -49 264 42 q 228 -172 264 -103 q 117 -319 192 -240 l 53 -269 q 101 -187 89 -218 q 114 -129 114 -157 q 44 -40 114 -60 z "},"“":{"ha":621,"x_min":56,"x_max":574,"o":"m 275 790 q 235 716 265 746 q 164 679 206 686 q 56 799 56 708 q 207 1086 56 915 l 271 1036 q 220 944 235 978 q 206 879 206 911 q 275 790 206 810 m 574 790 q 534 716 564 746 q 463 679 504 686 q 354 799 354 708 q 506 1086 354 915 l 569 1036 q 519 944 533 978 q 504 879 504 911 q 574 790 504 810 z "},"”":{"ha":603,"x_min":49,"x_max":567,"o":"m 347 975 q 387 1049 357 1019 q 458 1086 417 1079 q 567 967 567 1057 q 415 679 567 850 l 351 729 q 402 821 388 788 q 417 886 417 854 q 347 975 417 956 m 49 975 q 88 1049 58 1019 q 160 1086 118 1079 q 268 967 268 1057 q 117 679 268 850 l 53 729 q 103 821 89 788 q 118 886 118 854 q 49 975 118 956 z "},"„":{"ha":613,"x_min":44,"x_max":563,"o":"m 44 -40 q 84 34 54 4 q 156 71 114 64 q 264 -49 264 42 q 228 -172 264 -103 q 117 -319 192 -240 l 53 -269 q 101 -187 89 -218 q 114 -129 114 -157 q 44 -40 114 -60 m 343 -40 q 383 34 353 4 q 454 71 413 64 q 563 -49 563 42 q 526 -172 563 -103 q 415 -319 490 -240 l 351 -269 q 400 -187 388 -218 q 413 -129 413 -157 q 343 -40 413 -60 z "},"¸":{"ha":478,"x_min":83,"x_max":394,"o":"m 225 11 l 214 -65 q 304 -82 264 -68 q 366 -117 338 -93 q 394 -182 394 -140 q 359 -250 394 -224 q 276 -292 324 -276 q 179 -313 228 -307 q 104 -319 131 -319 l 83 -237 q 130 -235 100 -237 q 189 -228 160 -233 q 240 -215 218 -224 q 261 -194 261 -207 q 234 -158 261 -167 q 171 -149 207 -149 q 106 -153 136 -149 l 133 11 l 225 11 z "},"˛":{"ha":506,"x_min":90,"x_max":388,"o":"m 321 35 q 292 6 310 26 q 259 -42 275 -14 q 232 -102 243 -69 q 221 -168 221 -135 q 233 -215 221 -199 q 275 -232 246 -232 q 324 -220 299 -232 q 367 -186 350 -208 l 388 -249 q 331 -300 365 -281 q 239 -319 297 -319 q 169 -309 197 -319 q 123 -281 140 -299 q 98 -241 106 -264 q 90 -194 90 -218 q 107 -119 90 -156 q 147 -55 124 -83 q 193 -7 169 -26 q 232 21 217 13 l 321 35 z "},"":{"ha":396,"x_min":115,"x_max":290,"o":"m 115 -146 q 147 -90 118 -108 q 207 -71 175 -71 q 269 -96 247 -71 q 290 -153 290 -121 q 281 -199 290 -175 q 255 -249 271 -224 q 219 -300 239 -275 q 181 -347 200 -325 l 118 -311 q 153 -261 136 -289 q 169 -206 169 -233 q 157 -171 169 -186 q 115 -146 144 -156 z "},"ă":{"ha":669,"x_min":35,"x_max":649,"o":"m 229 -17 q 88 43 142 -17 q 35 199 35 103 q 93 358 35 299 q 249 418 151 418 q 329 407 289 418 q 401 375 369 396 l 401 453 q 376 544 401 518 q 290 571 351 571 q 202 560 249 571 q 128 535 156 550 l 85 668 q 135 685 106 676 q 197 699 164 693 q 265 708 231 704 q 329 711 300 711 q 574 472 574 711 q 572 411 574 451 q 567 327 569 371 q 563 246 565 283 q 561 193 561 208 q 571 147 561 161 q 607 133 581 133 q 649 139 625 133 l 626 6 q 585 -6 604 -1 q 547 -10 567 -10 q 461 19 496 -10 q 419 100 426 47 q 342 15 392 46 q 229 -17 292 -17 m 296 111 q 372 143 340 111 q 403 224 403 175 q 378 290 403 265 q 308 315 353 315 q 236 288 263 315 q 210 211 210 260 q 233 138 210 165 q 296 111 256 111 m 551 1040 q 535 952 551 990 q 488 888 518 914 q 416 849 457 863 q 328 836 375 836 q 172 892 225 836 q 118 1040 118 947 l 244 1040 q 271 969 244 999 q 335 940 297 940 q 399 969 372 940 q 426 1040 426 999 l 551 1040 z "},"å":{"ha":669,"x_min":35,"x_max":649,"o":"m 229 -17 q 88 43 142 -17 q 35 199 35 103 q 93 358 35 299 q 249 418 151 418 q 329 407 289 418 q 401 375 369 396 l 401 453 q 376 544 401 518 q 290 571 351 571 q 202 560 249 571 q 128 535 156 550 l 85 668 q 135 685 106 676 q 197 699 164 693 q 265 708 231 704 q 329 711 300 711 q 574 472 574 711 q 572 411 574 451 q 567 327 569 371 q 563 246 565 283 q 561 193 561 208 q 571 147 561 161 q 607 133 581 133 q 649 139 625 133 l 626 6 q 585 -6 604 -1 q 547 -10 567 -10 q 461 19 496 -10 q 419 100 426 47 q 342 15 392 46 q 229 -17 292 -17 m 296 111 q 372 143 340 111 q 403 224 403 175 q 378 290 403 265 q 308 315 353 315 q 236 288 263 315 q 210 211 210 260 q 233 138 210 165 q 296 111 256 111 m 193 919 q 230 1020 193 978 q 333 1063 267 1063 q 384 1053 360 1063 q 427 1028 408 1044 q 457 987 446 1011 q 468 933 468 963 q 428 837 468 876 q 324 797 389 797 q 232 828 271 797 q 193 919 193 860 m 274 926 q 290 890 274 903 q 326 876 306 876 q 369 892 354 876 q 383 932 383 908 q 369 969 383 956 q 332 983 356 983 q 289 967 304 983 q 274 926 274 950 z "},"ā":{"ha":669,"x_min":35,"x_max":649,"o":"m 229 -17 q 88 43 142 -17 q 35 199 35 103 q 93 358 35 299 q 249 418 151 418 q 329 407 289 418 q 401 375 369 396 l 401 453 q 376 544 401 518 q 290 571 351 571 q 202 560 249 571 q 128 535 156 550 l 85 668 q 135 685 106 676 q 197 699 164 693 q 265 708 231 704 q 329 711 300 711 q 574 472 574 711 q 572 411 574 451 q 567 327 569 371 q 563 246 565 283 q 561 193 561 208 q 571 147 561 161 q 607 133 581 133 q 649 139 625 133 l 626 6 q 585 -6 604 -1 q 547 -10 567 -10 q 461 19 496 -10 q 419 100 426 47 q 342 15 392 46 q 229 -17 292 -17 m 296 111 q 372 143 340 111 q 403 224 403 175 q 378 290 403 265 q 308 315 353 315 q 236 288 263 315 q 210 211 210 260 q 233 138 210 165 q 296 111 256 111 m 564 864 q 445 867 497 865 q 328 869 393 869 q 210 869 263 869 q 92 864 157 868 l 96 978 q 213 974 161 975 q 332 972 265 972 q 450 974 397 972 q 569 978 503 975 l 564 864 z "},"â":{"ha":669,"x_min":35,"x_max":649,"o":"m 229 -17 q 88 43 142 -17 q 35 199 35 103 q 93 358 35 299 q 249 418 151 418 q 329 407 289 418 q 401 375 369 396 l 401 453 q 376 544 401 518 q 290 571 351 571 q 202 560 249 571 q 128 535 156 550 l 85 668 q 135 685 106 676 q 197 699 164 693 q 265 708 231 704 q 329 711 300 711 q 574 472 574 711 q 572 411 574 451 q 567 327 569 371 q 563 246 565 283 q 561 193 561 208 q 571 147 561 161 q 607 133 581 133 q 649 139 625 133 l 626 6 q 585 -6 604 -1 q 547 -10 567 -10 q 461 19 496 -10 q 419 100 426 47 q 342 15 392 46 q 229 -17 292 -17 m 296 111 q 372 143 340 111 q 403 224 403 175 q 378 290 403 265 q 308 315 353 315 q 236 288 263 315 q 210 211 210 260 q 233 138 210 165 q 296 111 256 111 m 233 1067 q 279 1060 249 1064 q 335 1057 310 1057 q 390 1060 360 1057 q 436 1067 421 1064 l 574 835 l 478 818 l 335 975 l 192 818 l 96 835 l 233 1067 z "},"ą":{"ha":669,"x_min":35,"x_max":665,"o":"m 229 -17 q 88 43 142 -17 q 35 199 35 103 q 93 358 35 299 q 249 418 151 418 q 329 407 289 418 q 401 375 369 396 l 401 453 q 376 544 401 518 q 290 571 351 571 q 202 560 249 571 q 128 535 156 550 l 85 668 q 135 685 106 676 q 197 699 164 693 q 265 708 231 704 q 329 711 300 711 q 574 472 574 711 q 572 411 574 451 q 567 327 569 371 q 563 246 565 283 q 561 193 561 208 q 571 147 561 161 q 607 133 581 133 q 649 139 625 133 l 626 6 q 590 -5 607 -1 q 557 -10 574 -8 q 517 -82 535 -40 q 499 -168 499 -124 q 511 -215 499 -199 q 553 -232 524 -232 q 602 -220 576 -232 q 644 -186 628 -208 l 665 -249 q 609 -300 643 -281 q 517 -319 575 -319 q 447 -309 475 -319 q 401 -281 418 -299 q 376 -241 383 -264 q 368 -194 368 -218 q 380 -131 368 -161 q 409 -76 392 -101 q 447 -29 426 -50 q 483 4 467 -8 q 419 100 428 31 q 342 15 392 46 q 229 -17 292 -17 m 296 111 q 372 143 340 111 q 403 224 403 175 q 378 290 403 265 q 308 315 353 315 q 236 288 263 315 q 210 211 210 260 q 233 138 210 165 q 296 111 256 111 z "},"ǻ":{"ha":669,"x_min":35,"x_max":649,"o":"m 229 -17 q 88 43 142 -17 q 35 199 35 103 q 93 358 35 299 q 249 418 151 418 q 329 407 289 418 q 401 375 369 396 l 401 453 q 376 544 401 518 q 290 571 351 571 q 202 560 249 571 q 128 535 156 550 l 85 668 q 135 685 106 676 q 197 699 164 693 q 265 708 231 704 q 329 711 300 711 q 574 472 574 711 q 572 411 574 451 q 567 327 569 371 q 563 246 565 283 q 561 193 561 208 q 571 147 561 161 q 607 133 581 133 q 649 139 625 133 l 626 6 q 585 -6 604 -1 q 547 -10 567 -10 q 461 19 496 -10 q 419 100 426 47 q 342 15 392 46 q 229 -17 292 -17 m 296 111 q 372 143 340 111 q 403 224 403 175 q 378 290 403 265 q 308 315 353 315 q 236 288 263 315 q 210 211 210 260 q 233 138 210 165 q 296 111 256 111 m 193 904 q 230 1005 193 963 q 333 1047 267 1047 q 384 1038 360 1047 q 427 1013 408 1029 q 457 972 446 996 q 468 918 468 947 q 428 822 468 861 q 324 782 389 782 q 232 813 271 782 q 193 904 193 844 m 274 911 q 290 874 274 888 q 326 861 306 861 q 369 877 354 861 q 383 917 383 893 q 369 954 383 940 q 332 968 356 968 q 289 951 304 968 q 274 911 274 935 m 528 1343 l 344 1111 l 249 1128 l 358 1360 l 528 1343 z "},"ǽ":{"ha":988,"x_min":35,"x_max":946,"o":"m 228 -17 q 143 1 179 -17 q 83 49 107 19 q 47 118 58 79 q 35 200 35 157 q 51 293 35 253 q 97 361 68 333 q 165 403 126 389 q 249 418 204 418 q 326 408 286 418 q 401 375 367 397 l 401 467 q 394 525 401 503 q 374 559 388 547 q 344 575 361 571 q 306 579 326 579 q 215 565 263 579 q 121 522 167 551 l 85 646 q 144 672 110 660 q 218 692 179 683 q 297 706 257 701 q 371 711 338 711 q 463 697 424 711 q 529 651 503 683 q 707 711 600 711 q 824 687 778 711 q 897 625 869 663 q 935 541 924 588 q 946 449 946 494 q 940 372 946 408 q 924 314 933 336 l 571 314 q 613 165 576 207 q 724 124 650 124 q 826 140 779 124 q 906 169 874 156 l 906 54 q 797 -1 861 14 q 671 -17 733 -17 q 598 -10 633 -17 q 533 12 563 -4 q 481 56 504 28 q 442 129 457 85 q 395 59 421 88 q 341 14 369 31 q 283 -10 313 -3 q 228 -17 254 -17 m 692 610 q 613 565 643 610 q 572 417 582 521 l 800 417 q 797 475 800 442 q 784 538 794 508 q 752 589 774 568 q 692 610 731 610 m 296 111 q 333 118 314 111 q 367 140 351 125 q 393 175 383 154 q 403 225 403 196 q 374 297 403 275 q 308 318 344 318 q 242 296 272 318 q 213 215 213 274 q 237 137 213 163 q 296 111 261 111 m 756 1039 l 572 807 l 476 824 l 586 1056 l 756 1039 z "},"ĉ":{"ha":625,"x_min":49,"x_max":607,"o":"m 49 301 q 72 483 49 406 q 136 610 94 560 q 234 686 178 661 q 357 711 290 711 q 428 703 400 711 q 492 696 457 696 q 521 699 507 696 q 563 710 535 701 l 578 440 l 442 422 q 444 448 443 436 q 444 474 444 460 q 417 583 444 550 q 360 615 390 615 q 261 546 293 615 q 229 342 229 476 q 266 178 229 228 q 374 128 303 128 q 470 145 422 128 q 554 178 518 163 l 554 56 q 448 -1 510 15 q 322 -17 386 -17 q 222 -4 271 -17 q 134 42 172 8 q 72 139 96 76 q 49 301 49 201 m 267 1067 q 313 1060 282 1064 q 368 1057 343 1057 q 424 1060 393 1057 q 469 1067 454 1064 l 607 835 l 511 818 l 368 975 l 225 818 l 129 835 l 267 1067 z "},"č":{"ha":625,"x_min":49,"x_max":607,"o":"m 49 301 q 72 483 49 406 q 136 610 94 560 q 234 686 178 661 q 357 711 290 711 q 428 703 400 711 q 492 696 457 696 q 521 699 507 696 q 563 710 535 701 l 578 440 l 442 422 q 444 448 443 436 q 444 474 444 460 q 417 583 444 550 q 360 615 390 615 q 261 546 293 615 q 229 342 229 476 q 266 178 229 228 q 374 128 303 128 q 470 145 422 128 q 554 178 518 163 l 554 56 q 448 -1 510 15 q 322 -17 386 -17 q 222 -4 271 -17 q 134 42 172 8 q 72 139 96 76 q 49 301 49 201 m 129 1050 l 225 1067 l 368 910 l 511 1067 l 607 1050 l 469 818 q 424 824 454 821 q 368 828 393 828 q 313 824 343 828 q 267 818 282 821 l 129 1050 z "},"ç":{"ha":628,"x_min":50,"x_max":579,"o":"m 50 301 q 73 483 50 406 q 138 610 96 560 q 235 686 179 661 q 358 711 292 711 q 430 703 401 711 q 493 696 458 696 q 522 699 508 696 q 564 710 536 701 l 579 440 l 443 422 q 445 448 444 436 q 446 474 446 460 q 419 583 446 550 q 361 615 392 615 q 263 546 294 615 q 231 342 231 476 q 267 178 231 228 q 375 128 304 128 q 472 145 424 128 q 556 178 519 163 l 556 56 q 469 6 518 22 q 367 -15 419 -11 l 360 -65 q 450 -82 410 -68 q 512 -117 483 -93 q 540 -182 540 -140 q 505 -250 540 -224 q 422 -292 469 -276 q 325 -313 374 -307 q 250 -319 276 -319 l 229 -237 q 276 -235 246 -237 q 335 -228 306 -233 q 385 -215 364 -224 q 407 -194 407 -207 q 380 -158 407 -167 q 317 -149 353 -149 q 251 -153 282 -149 l 275 -14 q 190 7 231 -10 q 117 60 149 24 q 68 154 86 96 q 50 301 50 213 z "},"ḍ":{"ha":717,"x_min":49,"x_max":688,"o":"m 567 -17 q 504 47 528 19 q 468 101 481 74 q 424 60 447 81 q 372 22 400 39 q 314 -6 344 4 q 249 -17 283 -17 q 175 -4 211 -17 q 111 42 139 8 q 66 132 83 75 q 49 278 49 189 q 72 467 49 386 q 136 603 94 549 q 235 684 178 657 q 363 711 293 711 q 443 690 406 711 q 441 889 442 803 q 438 1054 440 975 l 626 1069 q 617 713 618 900 q 615 340 615 526 q 618 252 615 286 q 629 192 621 218 q 651 145 638 167 q 688 96 665 124 l 567 -17 m 346 143 q 401 153 376 143 q 447 181 426 164 q 444 240 444 207 q 443 318 443 274 l 443 574 q 357 614 411 614 q 263 540 296 614 q 231 322 231 467 q 239 231 231 265 q 263 176 247 196 q 299 150 278 157 q 346 143 319 143 m 263 -199 q 287 -137 263 -162 q 354 -111 311 -111 q 417 -133 390 -111 q 444 -190 444 -154 q 421 -249 444 -225 q 354 -274 397 -274 q 290 -254 318 -274 q 263 -199 263 -235 z "},"ď":{"ha":717,"x_min":49,"x_max":863,"o":"m 567 -17 q 504 47 528 19 q 468 101 481 74 q 424 60 447 81 q 372 22 400 39 q 314 -6 344 4 q 249 -17 283 -17 q 175 -4 211 -17 q 111 42 139 8 q 66 132 83 75 q 49 278 49 189 q 72 467 49 386 q 136 603 94 549 q 235 684 178 657 q 363 711 293 711 q 443 690 406 711 q 441 889 442 803 q 438 1054 440 975 l 626 1069 q 617 713 618 900 q 615 340 615 526 q 618 252 615 286 q 629 192 621 218 q 651 145 638 167 q 688 96 665 124 l 567 -17 m 346 143 q 401 153 376 143 q 447 181 426 164 q 444 240 444 207 q 443 318 443 274 l 443 574 q 357 614 411 614 q 263 540 296 614 q 231 322 231 467 q 239 231 231 265 q 263 176 247 196 q 299 150 278 157 q 346 143 319 143 m 697 993 q 724 1047 704 1024 q 789 1069 744 1069 q 827 1063 813 1069 q 849 1045 842 1056 q 860 1022 857 1035 q 863 994 863 1008 q 837 898 863 946 q 758 789 811 850 l 700 824 q 734 887 724 864 q 744 932 744 910 q 697 993 744 979 z "},"đ":{"ha":717,"x_min":49,"x_max":754,"o":"m 746 803 l 618 807 q 615 575 615 692 q 615 340 615 458 q 618 252 615 286 q 629 192 621 218 q 651 145 638 167 q 688 96 665 124 l 567 -17 q 504 47 528 19 q 468 101 481 74 q 424 60 447 81 q 372 22 400 39 q 314 -6 344 4 q 249 -17 283 -17 q 175 -4 211 -17 q 111 42 139 8 q 66 132 83 75 q 49 278 49 189 q 72 467 49 386 q 136 603 94 549 q 235 684 178 657 q 363 711 293 711 q 443 690 406 711 l 443 808 l 301 803 l 308 931 l 443 925 l 438 1054 l 626 1069 q 623 998 624 1033 q 621 925 622 963 l 754 931 l 746 803 m 346 143 q 401 153 376 143 q 447 181 426 164 q 444 240 444 207 q 443 318 443 274 l 443 574 q 357 614 411 614 q 263 540 296 614 q 231 322 231 467 q 239 231 231 265 q 263 176 247 196 q 299 150 278 157 q 346 143 319 143 z "},"ĕ":{"ha":647,"x_min":49,"x_max":604,"o":"m 229 314 q 272 166 236 208 q 382 124 308 124 q 487 140 438 124 q 568 171 536 157 l 568 56 q 457 -1 524 15 q 328 -17 390 -17 q 226 -4 276 -17 q 137 44 176 8 q 73 142 97 79 q 49 308 49 206 q 74 485 49 410 q 142 611 99 561 q 245 686 186 661 q 374 711 304 711 q 490 687 444 711 q 560 625 535 663 q 595 542 586 588 q 604 453 604 496 q 598 372 604 408 q 582 314 592 336 l 229 314 m 349 610 q 265 563 294 610 q 229 417 235 517 l 458 417 q 459 431 458 422 q 460 446 460 439 q 456 497 460 468 q 439 550 451 525 q 405 592 426 575 q 349 610 383 610 m 590 1040 q 574 952 590 990 q 526 888 557 914 q 455 849 496 863 q 367 836 414 836 q 210 892 264 836 q 157 1040 157 947 l 283 1040 q 310 969 283 999 q 374 940 336 940 q 438 969 411 940 q 465 1040 465 999 l 590 1040 z "},"ē":{"ha":647,"x_min":49,"x_max":613,"o":"m 229 314 q 272 166 236 208 q 382 124 308 124 q 487 140 438 124 q 568 171 536 157 l 568 56 q 457 -1 524 15 q 328 -17 390 -17 q 226 -4 276 -17 q 137 44 176 8 q 73 142 97 79 q 49 308 49 206 q 74 485 49 410 q 142 611 99 561 q 245 686 186 661 q 374 711 304 711 q 490 687 444 711 q 560 625 535 663 q 595 542 586 588 q 604 453 604 496 q 598 372 604 408 q 582 314 592 336 l 229 314 m 349 610 q 265 563 294 610 q 229 417 235 517 l 458 417 q 459 431 458 422 q 460 446 460 439 q 456 497 460 468 q 439 550 451 525 q 405 592 426 575 q 349 610 383 610 m 607 864 q 488 867 540 865 q 371 869 436 869 q 253 869 306 869 q 135 864 200 868 l 139 978 q 256 974 204 975 q 375 972 308 972 q 493 974 440 972 q 613 978 546 975 l 607 864 z "},"ê":{"ha":647,"x_min":49,"x_max":617,"o":"m 229 314 q 272 166 236 208 q 382 124 308 124 q 487 140 438 124 q 568 171 536 157 l 568 56 q 457 -1 524 15 q 328 -17 390 -17 q 226 -4 276 -17 q 137 44 176 8 q 73 142 97 79 q 49 308 49 206 q 74 485 49 410 q 142 611 99 561 q 245 686 186 661 q 374 711 304 711 q 490 687 444 711 q 560 625 535 663 q 595 542 586 588 q 604 453 604 496 q 598 372 604 408 q 582 314 592 336 l 229 314 m 349 610 q 265 563 294 610 q 229 417 235 517 l 458 417 q 459 431 458 422 q 460 446 460 439 q 456 497 460 468 q 439 550 451 525 q 405 592 426 575 q 349 610 383 610 m 276 1067 q 322 1060 292 1064 q 378 1057 353 1057 q 433 1060 403 1057 q 479 1067 464 1064 l 617 835 l 521 818 l 378 975 l 235 818 l 139 835 l 276 1067 z "},"ě":{"ha":647,"x_min":49,"x_max":617,"o":"m 229 314 q 272 166 236 208 q 382 124 308 124 q 487 140 438 124 q 568 171 536 157 l 568 56 q 457 -1 524 15 q 328 -17 390 -17 q 226 -4 276 -17 q 137 44 176 8 q 73 142 97 79 q 49 308 49 206 q 74 485 49 410 q 142 611 99 561 q 245 686 186 661 q 374 711 304 711 q 490 687 444 711 q 560 625 535 663 q 595 542 586 588 q 604 453 604 496 q 598 372 604 408 q 582 314 592 336 l 229 314 m 349 610 q 265 563 294 610 q 229 417 235 517 l 458 417 q 459 431 458 422 q 460 446 460 439 q 456 497 460 468 q 439 550 451 525 q 405 592 426 575 q 349 610 383 610 m 139 1050 l 235 1067 l 378 910 l 521 1067 l 617 1050 l 479 818 q 433 824 464 821 q 378 828 403 828 q 322 824 353 828 q 276 818 292 821 l 139 1050 z "},"ę":{"ha":649,"x_min":49,"x_max":604,"o":"m 229 314 q 272 166 236 208 q 382 124 308 124 q 487 140 438 124 q 568 171 536 157 l 568 56 q 484 8 533 24 q 382 -14 435 -8 q 344 -85 361 -44 q 326 -168 326 -126 q 339 -215 326 -199 q 381 -232 351 -232 q 430 -220 404 -232 q 472 -186 456 -208 l 493 -249 q 437 -300 471 -281 q 344 -319 403 -319 q 274 -309 303 -319 q 228 -281 246 -299 q 203 -241 211 -264 q 196 -194 196 -218 q 204 -141 196 -167 q 226 -92 213 -115 q 256 -50 240 -69 q 289 -15 272 -31 q 199 5 243 -11 q 122 58 156 21 q 69 155 89 94 q 49 308 49 215 q 74 485 49 410 q 142 611 99 561 q 245 686 186 661 q 374 711 304 711 q 490 687 444 711 q 560 625 535 663 q 595 542 586 588 q 604 453 604 496 q 598 372 604 408 q 582 314 592 336 l 229 314 m 349 610 q 265 563 294 610 q 229 417 235 517 l 458 417 q 459 431 458 422 q 460 446 460 439 q 456 497 460 468 q 439 550 451 525 q 405 592 426 575 q 349 610 383 610 z "},"ğ":{"ha":703,"x_min":-4,"x_max":676,"o":"m 676 6 q 640 -115 676 -60 q 542 -209 604 -169 q 401 -271 481 -249 q 233 -293 321 -293 q 138 -285 182 -293 q 63 -258 94 -276 q 14 -212 32 -240 q -4 -147 -4 -185 q 28 -58 -4 -94 q 122 14 61 -22 q 70 47 90 25 q 50 108 50 69 q 60 158 50 135 q 86 201 69 182 q 124 238 103 221 q 167 268 144 254 q 91 346 118 299 q 64 454 64 393 q 86 556 64 508 q 148 637 108 603 q 243 691 188 671 q 364 711 299 711 q 414 708 390 711 q 460 697 438 704 q 488 737 468 713 q 534 785 507 761 q 596 827 561 808 q 668 850 631 846 l 675 690 q 599 684 636 690 q 531 667 561 678 q 603 589 578 636 q 629 483 629 542 q 606 381 629 428 q 544 299 583 333 q 449 247 504 265 q 331 228 394 228 q 225 243 275 228 q 208 193 208 219 q 239 145 208 156 q 314 135 269 135 q 367 136 339 135 q 424 140 396 138 q 476 143 451 142 q 518 144 501 144 q 635 110 594 144 q 676 6 676 75 m 350 600 q 252 561 286 600 q 218 464 218 522 q 253 369 218 403 q 343 336 288 336 q 403 349 378 336 q 444 381 428 361 q 469 426 461 401 q 476 475 476 450 q 444 564 476 528 q 350 600 413 600 m 522 -67 q 490 -22 522 -35 q 409 -7 458 -10 q 301 -5 360 -4 q 192 0 243 -6 q 147 -82 147 -43 q 189 -136 147 -114 q 313 -158 231 -158 q 392 -152 354 -158 q 460 -133 431 -146 q 506 -104 489 -121 q 522 -67 522 -87 m 574 1040 q 557 952 574 990 q 510 888 540 914 q 438 849 479 863 q 350 836 397 836 q 194 892 247 836 q 140 1040 140 947 l 267 1040 q 293 969 267 999 q 357 940 319 940 q 422 969 394 940 q 449 1040 449 999 l 574 1040 z "},"ĝ":{"ha":711,"x_min":-4,"x_max":676,"o":"m 676 6 q 640 -115 676 -60 q 542 -209 604 -169 q 401 -271 481 -249 q 233 -293 321 -293 q 138 -285 182 -293 q 63 -258 94 -276 q 14 -212 32 -240 q -4 -147 -4 -185 q 28 -58 -4 -94 q 122 14 61 -22 q 70 47 90 25 q 50 108 50 69 q 60 158 50 135 q 86 201 69 182 q 124 238 103 221 q 167 268 144 254 q 91 346 118 299 q 64 454 64 393 q 86 556 64 508 q 148 637 108 603 q 243 691 188 671 q 364 711 299 711 q 427 706 397 711 q 483 690 457 700 q 517 726 497 707 q 560 763 536 746 q 611 793 583 781 q 668 808 639 806 l 675 649 q 620 645 647 649 q 568 636 593 642 q 613 568 597 607 q 629 483 629 529 q 606 381 629 428 q 544 299 583 333 q 449 247 504 265 q 331 228 394 228 q 225 243 275 228 q 208 193 208 219 q 239 145 208 156 q 314 135 269 135 q 367 136 339 135 q 424 140 396 138 q 476 143 451 142 q 518 144 501 144 q 635 110 594 144 q 676 6 676 75 m 260 1067 q 306 1060 275 1064 q 361 1057 336 1057 q 417 1060 386 1057 q 463 1067 447 1064 l 579 856 l 483 839 l 361 975 l 218 818 l 122 835 l 260 1067 m 350 600 q 252 561 286 600 q 218 464 218 522 q 253 369 218 403 q 343 336 288 336 q 403 349 378 336 q 444 381 428 361 q 469 426 461 401 q 476 475 476 450 q 444 564 476 528 q 350 600 413 600 m 522 -67 q 490 -22 522 -35 q 409 -7 458 -10 q 301 -5 360 -4 q 192 0 243 -6 q 147 -82 147 -43 q 189 -136 147 -114 q 313 -158 231 -158 q 392 -152 354 -158 q 460 -133 431 -146 q 506 -104 489 -121 q 522 -67 522 -87 z "},"ģ":{"ha":703,"x_min":-4,"x_max":676,"o":"m 676 6 q 640 -115 676 -60 q 542 -209 604 -169 q 401 -271 481 -249 q 233 -293 321 -293 q 138 -285 182 -293 q 63 -258 94 -276 q 14 -212 32 -240 q -4 -147 -4 -185 q 28 -58 -4 -94 q 122 14 61 -22 q 70 47 90 25 q 50 108 50 69 q 60 158 50 135 q 86 201 69 182 q 124 238 103 221 q 167 268 144 254 q 91 346 118 299 q 64 454 64 393 q 86 556 64 508 q 148 637 108 603 q 243 691 188 671 q 364 711 299 711 q 414 708 390 711 q 460 697 438 704 q 488 737 468 713 q 534 785 507 761 q 596 827 561 808 q 668 850 631 846 l 675 690 q 599 684 636 690 q 531 667 561 678 q 603 589 578 636 q 629 483 629 542 q 606 381 629 428 q 544 299 583 333 q 449 247 504 265 q 331 228 394 228 q 225 243 275 228 q 208 193 208 219 q 239 145 208 156 q 314 135 269 135 q 367 136 339 135 q 424 140 396 138 q 476 143 451 142 q 518 144 501 144 q 635 110 594 144 q 676 6 676 75 m 350 600 q 252 561 286 600 q 218 464 218 522 q 253 369 218 403 q 343 336 288 336 q 403 349 378 336 q 444 381 428 361 q 469 426 461 401 q 476 475 476 450 q 444 564 476 528 q 350 600 413 600 m 522 -67 q 490 -22 522 -35 q 409 -7 458 -10 q 301 -5 360 -4 q 192 0 243 -6 q 147 -82 147 -43 q 189 -136 147 -114 q 313 -158 231 -158 q 392 -152 354 -158 q 460 -133 431 -146 q 506 -104 489 -121 q 522 -67 522 -87 m 313 1010 q 344 1066 315 1047 q 404 1085 372 1085 q 466 1060 444 1085 q 488 1003 488 1035 q 478 956 488 981 q 452 906 468 932 q 417 856 436 881 q 378 808 397 831 l 315 844 q 350 894 333 867 q 367 950 367 922 q 354 985 367 969 q 313 1010 342 1000 z "},"ĥ":{"ha":740,"x_min":79,"x_max":692,"o":"m 422 1033 q 458 1027 433 1031 q 504 1024 483 1024 q 549 1027 524 1024 q 585 1033 574 1031 l 683 829 l 613 799 l 504 928 l 394 799 l 324 829 l 422 1033 m 274 1069 q 267 976 269 1024 q 265 871 265 928 q 263 746 264 814 q 263 592 263 678 q 308 635 283 614 q 362 674 333 657 q 422 701 390 690 q 489 711 454 711 q 556 699 524 711 q 614 657 589 686 q 654 578 639 628 q 669 453 669 528 q 669 396 669 433 q 667 316 668 358 q 665 235 665 274 q 664 175 664 196 q 670 87 664 129 q 692 17 676 44 l 499 -17 q 487 53 489 15 q 485 118 485 90 q 487 198 485 157 q 491 277 489 239 q 495 349 493 315 q 497 408 497 383 q 469 521 497 490 q 393 551 442 551 q 320 538 353 551 q 263 506 288 525 q 263 356 263 424 q 263 227 263 288 q 265 111 264 167 q 267 0 265 56 l 79 0 q 83 128 81 72 q 86 244 85 183 q 89 381 88 304 q 90 575 90 458 q 89 812 90 693 q 83 1056 88 931 l 274 1069 z "},"ħ":{"ha":740,"x_min":-40,"x_max":692,"o":"m 432 806 q 344 808 383 807 q 263 811 304 810 l 263 592 q 308 635 283 614 q 362 674 333 657 q 422 701 390 690 q 489 711 454 711 q 556 699 524 711 q 614 657 589 686 q 654 578 639 628 q 669 453 669 528 q 669 396 669 433 q 667 316 668 358 q 665 235 665 274 q 664 175 664 196 q 670 87 664 129 q 692 17 676 44 l 499 -17 q 487 53 489 15 q 485 118 485 90 q 487 198 485 157 q 491 277 489 239 q 495 349 493 315 q 497 408 497 383 q 469 521 497 490 q 393 551 442 551 q 320 538 353 551 q 263 506 288 525 q 263 356 263 424 q 263 227 263 288 q 265 111 264 167 q 267 0 265 56 l 79 0 q 83 128 81 72 q 86 244 85 183 q 89 381 88 304 q 90 575 90 458 q 90 692 90 633 q 89 811 89 751 q 26 809 57 810 q -40 806 -4 808 l -36 919 q 28 916 -1 917 q 88 914 58 915 l 82 1056 l 274 1069 q 265 914 267 996 q 349 915 308 914 q 438 919 389 917 l 432 806 z "},"į":{"ha":353,"x_min":7,"x_max":304,"o":"m 275 694 q 269 633 271 663 q 266 569 267 604 q 265 487 265 533 q 264 376 264 440 q 264 261 264 313 q 265 165 264 210 q 266 81 265 121 q 268 0 267 42 l 203 0 q 158 -76 179 -31 q 138 -168 138 -121 q 150 -215 138 -199 q 192 -232 163 -232 q 241 -220 215 -232 q 283 -186 267 -208 l 304 -249 q 248 -300 282 -281 q 156 -319 214 -319 q 85 -309 114 -319 q 40 -281 57 -299 q 15 -241 22 -264 q 7 -194 7 -218 q 18 -133 7 -162 q 46 -79 29 -104 q 82 -34 63 -54 q 118 0 101 -14 l 81 0 q 84 90 82 51 q 88 173 86 129 q 90 272 89 217 q 92 408 92 326 q 90 549 92 483 q 85 694 89 615 l 275 694 m 81 921 q 108 988 81 960 q 182 1017 135 1017 q 252 993 222 1017 q 282 929 282 969 q 253 864 282 890 q 178 838 225 838 q 109 859 138 838 q 81 921 81 881 z "},"ĭ":{"ha":353,"x_min":-25,"x_max":408,"o":"m 275 694 q 269 633 271 663 q 266 569 267 604 q 265 487 265 533 q 264 376 264 440 q 264 261 264 313 q 265 165 264 210 q 266 81 265 121 q 268 0 267 42 l 81 0 q 84 90 82 51 q 88 173 86 129 q 90 272 89 217 q 92 408 92 326 q 90 549 92 483 q 85 694 89 615 l 275 694 m 408 1040 q 392 952 408 990 q 344 888 375 914 q 273 849 314 863 q 185 836 232 836 q 28 892 82 836 q -25 1040 -25 947 l 101 1040 q 128 969 101 999 q 192 940 154 940 q 256 969 229 940 q 283 1040 283 999 l 408 1040 z "},"ī":{"ha":353,"x_min":8,"x_max":375,"o":"m 369 864 q 316 866 336 865 q 278 867 296 867 q 242 869 261 868 q 189 869 222 869 q 136 869 156 869 q 99 869 117 869 q 61 867 81 868 q 8 864 42 865 l 13 978 q 65 975 46 976 q 102 973 85 974 q 140 972 119 972 q 193 972 160 972 q 246 972 226 972 q 283 973 265 972 q 322 975 301 974 q 375 978 342 976 l 369 864 m 275 694 q 269 633 271 663 q 266 569 267 604 q 265 487 265 533 q 264 376 264 440 q 264 261 264 313 q 265 165 264 210 q 266 81 265 121 q 268 0 267 42 l 81 0 q 84 90 82 51 q 88 173 86 129 q 90 272 89 217 q 92 408 92 326 q 90 549 92 483 q 85 694 89 615 l 275 694 z "},"î":{"ha":353,"x_min":-15,"x_max":407,"o":"m 94 1067 q 140 1060 110 1064 q 196 1057 171 1057 q 251 1060 221 1057 q 297 1067 282 1064 l 407 835 l 311 818 l 196 975 l 81 818 l -15 835 l 94 1067 m 275 694 q 269 633 271 663 q 266 569 267 604 q 265 487 265 533 q 264 376 264 440 q 264 261 264 313 q 265 165 264 210 q 266 81 265 121 q 268 0 267 42 l 81 0 q 84 90 82 51 q 88 173 86 129 q 90 272 89 217 q 92 408 92 326 q 90 549 92 483 q 85 694 89 615 l 275 694 z "},"ĵ":{"ha":346,"x_min":-96,"x_max":403,"o":"m 90 1067 q 136 1060 106 1064 q 192 1057 167 1057 q 247 1060 217 1057 q 293 1067 278 1064 l 403 835 l 307 818 l 192 975 l 76 818 l -19 835 l 90 1067 m 88 408 q 86 549 88 483 q 81 694 85 615 l 271 694 q 262 567 264 631 q 260 460 260 504 q 259 368 260 428 q 258 239 258 308 q 255 98 257 169 q 250 -28 253 26 q 233 -165 244 -117 q 197 -246 221 -214 q 122 -303 167 -287 q 36 -319 76 -319 q -34 -311 4 -319 q -96 -292 -72 -303 l -56 -147 q -21 -160 -42 -156 q 17 -165 0 -165 q 70 -132 53 -165 q 88 -6 88 -99 l 88 408 z "},"ķ":{"ha":721,"x_min":79,"x_max":701,"o":"m 274 1069 q 267 969 269 1021 q 265 856 265 918 q 263 718 264 794 q 263 543 263 642 l 263 428 q 396 578 338 511 q 513 711 454 644 l 701 694 q 640 640 669 665 q 577 583 611 614 q 502 512 543 551 q 407 415 461 472 q 592 354 524 410 q 661 176 661 299 q 656 94 661 140 q 649 0 651 47 l 471 -18 q 481 85 476 38 q 486 171 486 132 q 457 286 486 246 q 346 326 428 326 q 263 318 306 326 q 263 153 263 229 q 267 0 264 76 l 79 0 q 83 127 81 72 q 86 243 85 182 q 89 384 88 304 q 90 585 90 464 q 89 812 90 693 q 83 1056 88 931 l 274 1069 m 281 -144 q 312 -88 283 -107 q 372 -69 340 -69 q 434 -94 413 -69 q 456 -151 456 -119 q 446 -198 456 -174 q 420 -248 436 -222 q 385 -299 404 -274 q 346 -346 365 -324 l 283 -310 q 318 -260 301 -287 q 335 -204 335 -232 q 322 -169 335 -185 q 281 -144 310 -154 z "},"ĺ":{"ha":350,"x_min":79,"x_max":375,"o":"m 274 1069 q 267 969 269 1021 q 265 856 265 918 q 263 718 264 794 q 263 543 263 642 q 263 377 263 451 q 263 239 263 303 q 265 117 264 175 q 267 0 265 60 l 79 0 q 83 128 81 72 q 86 244 85 183 q 89 381 88 304 q 90 575 90 458 q 89 812 90 693 q 83 1056 88 931 l 274 1069 m 375 1372 l 192 1140 l 96 1157 l 206 1389 l 375 1372 z "},"ľ":{"ha":350,"x_min":79,"x_max":504,"o":"m 274 1069 q 267 969 269 1021 q 265 856 265 918 q 263 718 264 794 q 263 543 263 642 q 263 377 263 451 q 263 239 263 303 q 265 117 264 175 q 267 0 265 60 l 79 0 q 83 128 81 72 q 86 244 85 183 q 89 381 88 304 q 90 575 90 458 q 89 812 90 693 q 83 1056 88 931 l 274 1069 m 339 993 q 366 1047 346 1024 q 431 1069 386 1069 q 469 1063 454 1069 q 491 1045 483 1056 q 501 1022 499 1035 q 504 994 504 1008 q 478 898 504 946 q 400 789 453 850 l 342 824 q 376 887 365 864 q 386 932 386 910 q 339 993 386 979 z "},"ļ":{"ha":350,"x_min":78,"x_max":274,"o":"m 274 1069 q 267 969 269 1021 q 265 856 265 918 q 263 718 264 794 q 263 543 263 642 q 263 377 263 451 q 263 239 263 303 q 265 117 264 175 q 267 0 265 60 l 79 0 q 83 128 81 72 q 86 244 85 183 q 89 381 88 304 q 90 575 90 458 q 89 812 90 693 q 83 1056 88 931 l 274 1069 m 78 -146 q 109 -90 81 -108 q 169 -71 138 -71 q 231 -96 210 -71 q 253 -153 253 -121 q 243 -199 253 -175 q 217 -249 233 -224 q 182 -300 201 -275 q 143 -347 163 -325 l 81 -311 q 115 -261 99 -289 q 132 -206 132 -233 q 119 -171 132 -186 q 78 -146 107 -156 z "},"ŀ":{"ha":504,"x_min":79,"x_max":519,"o":"m 274 1069 q 267 969 269 1021 q 265 856 265 918 q 263 718 264 794 q 263 543 263 642 q 263 377 263 451 q 263 239 263 303 q 265 117 264 175 q 267 0 265 60 l 79 0 q 83 128 81 72 q 86 244 85 183 q 89 381 88 304 q 90 575 90 458 q 89 812 90 693 q 83 1056 88 931 l 274 1069 m 338 543 q 362 605 338 579 q 429 631 386 631 q 492 609 465 631 q 519 551 519 588 q 494 492 519 517 q 425 468 468 468 q 363 488 389 468 q 338 543 338 507 z "},"ł":{"ha":593,"x_min":6,"x_max":596,"o":"m 399 1069 q 394 984 396 1028 q 390 889 392 940 q 388 778 389 838 q 388 644 388 718 q 472 670 431 657 q 568 701 513 683 l 596 576 l 388 522 q 388 365 388 436 q 388 232 388 294 q 390 113 389 169 q 392 0 390 57 l 204 0 q 207 114 206 64 q 210 215 208 164 q 214 327 213 267 q 215 472 215 388 l 35 415 l 6 540 q 65 555 38 549 q 117 567 92 561 q 165 581 142 574 q 215 594 189 588 q 214 822 215 707 q 208 1056 213 936 l 399 1069 z "},"ň":{"ha":753,"x_min":29,"x_max":704,"o":"m 192 711 q 236 640 219 671 q 261 578 253 610 q 308 624 282 600 q 365 667 335 649 q 429 699 394 686 q 501 711 464 711 q 569 699 536 711 q 626 657 601 686 q 667 578 651 628 q 682 453 682 528 q 681 396 682 433 q 679 316 681 358 q 677 235 678 274 q 676 175 676 196 q 683 87 676 129 q 704 17 689 44 l 511 -17 q 499 53 501 15 q 497 118 497 90 q 499 198 497 157 q 503 277 501 239 q 508 349 506 315 q 510 408 510 383 q 482 521 510 490 q 406 551 454 551 q 331 539 365 551 q 271 508 297 526 q 274 450 274 482 q 274 376 274 418 q 274 261 274 313 q 274 165 274 210 q 276 81 275 121 q 278 0 276 42 l 90 0 q 93 75 92 33 q 97 163 94 117 q 100 259 99 210 q 101 354 101 308 q 99 442 101 408 q 88 502 96 476 q 65 549 79 528 q 29 599 51 571 l 192 711 m 150 1050 l 246 1067 l 389 910 l 532 1067 l 628 1050 l 490 818 q 444 824 475 821 q 389 828 414 828 q 333 824 364 828 q 288 818 303 821 l 150 1050 z "},"ŉ":{"ha":753,"x_min":-85,"x_max":704,"o":"m 192 711 q 236 640 219 671 q 261 578 253 610 q 308 624 282 600 q 365 667 335 649 q 429 699 394 686 q 501 711 464 711 q 569 699 536 711 q 626 657 601 686 q 667 578 651 628 q 682 453 682 528 q 681 396 682 433 q 679 316 681 358 q 677 235 678 274 q 676 175 676 196 q 683 87 676 129 q 704 17 689 44 l 511 -17 q 499 53 501 15 q 497 118 497 90 q 499 198 497 157 q 503 277 501 239 q 508 349 506 315 q 510 408 510 383 q 482 521 510 490 q 406 551 454 551 q 331 539 365 551 q 271 508 297 526 q 274 450 274 482 q 274 376 274 418 q 274 261 274 313 q 274 165 274 210 q 276 81 275 121 q 278 0 276 42 l 90 0 q 93 75 92 33 q 97 163 94 117 q 100 259 99 210 q 101 354 101 308 q 99 442 101 408 q 88 502 96 476 q 65 549 79 528 q 29 599 51 571 l 192 711 m 57 1056 l 26 779 l -69 786 l -85 1069 l 57 1056 z "},"ņ":{"ha":753,"x_min":29,"x_max":704,"o":"m 192 711 q 236 640 219 671 q 261 578 253 610 q 308 624 282 600 q 365 667 335 649 q 429 699 394 686 q 501 711 464 711 q 569 699 536 711 q 626 657 601 686 q 667 578 651 628 q 682 453 682 528 q 681 396 682 433 q 679 316 681 358 q 677 235 678 274 q 676 175 676 196 q 683 87 676 129 q 704 17 689 44 l 511 -17 q 499 53 501 15 q 497 118 497 90 q 499 198 497 157 q 503 277 501 239 q 508 349 506 315 q 510 408 510 383 q 482 521 510 490 q 406 551 454 551 q 331 539 365 551 q 271 508 297 526 q 274 450 274 482 q 274 376 274 418 q 274 261 274 313 q 274 165 274 210 q 276 81 275 121 q 278 0 276 42 l 90 0 q 93 75 92 33 q 97 163 94 117 q 100 259 99 210 q 101 354 101 308 q 99 442 101 408 q 88 502 96 476 q 65 549 79 528 q 29 599 51 571 l 192 711 m 293 -146 q 324 -90 296 -108 q 385 -71 353 -71 q 447 -96 425 -71 q 468 -153 468 -121 q 458 -199 468 -175 q 433 -249 449 -224 q 397 -300 417 -275 q 358 -347 378 -325 l 296 -311 q 331 -261 314 -289 q 347 -206 347 -233 q 335 -171 347 -186 q 293 -146 322 -156 z "},"ő":{"ha":721,"x_min":46,"x_max":679,"o":"m 363 597 q 263 528 297 597 q 228 340 228 460 q 256 159 228 224 q 356 94 285 94 q 457 166 421 94 q 493 357 493 238 q 488 457 493 413 q 467 533 482 501 q 427 581 453 564 q 363 597 401 597 m 46 336 q 69 492 46 422 q 135 610 93 561 q 239 685 178 658 q 375 711 300 711 q 595 621 517 711 q 674 368 674 531 q 650 210 674 281 q 583 88 626 139 q 480 10 540 38 q 346 -17 419 -17 q 221 8 276 -17 q 126 79 165 33 q 67 190 88 125 q 46 336 46 256 m 424 1039 l 257 807 l 161 824 l 254 1056 l 424 1039 m 679 1039 l 513 807 l 417 824 l 510 1056 l 679 1039 z "},"ŏ":{"ha":721,"x_min":46,"x_max":674,"o":"m 363 597 q 263 528 297 597 q 228 340 228 460 q 256 159 228 224 q 356 94 285 94 q 457 166 421 94 q 493 357 493 238 q 488 457 493 413 q 467 533 482 501 q 427 581 453 564 q 363 597 401 597 m 46 336 q 69 492 46 422 q 135 610 93 561 q 239 685 178 658 q 375 711 300 711 q 595 621 517 711 q 674 368 674 531 q 650 210 674 281 q 583 88 626 139 q 480 10 540 38 q 346 -17 419 -17 q 221 8 276 -17 q 126 79 165 33 q 67 190 88 125 q 46 336 46 256 m 576 1040 q 560 952 576 990 q 513 888 543 914 q 441 849 482 863 q 353 836 400 836 q 197 892 250 836 q 143 1040 143 947 l 269 1040 q 296 969 269 999 q 360 940 322 940 q 424 969 397 940 q 451 1040 451 999 l 576 1040 z "},"ō":{"ha":721,"x_min":46,"x_max":674,"o":"m 363 597 q 263 528 297 597 q 228 340 228 460 q 256 159 228 224 q 356 94 285 94 q 457 166 421 94 q 493 357 493 238 q 488 457 493 413 q 467 533 482 501 q 427 581 453 564 q 363 597 401 597 m 46 336 q 69 492 46 422 q 135 610 93 561 q 239 685 178 658 q 375 711 300 711 q 595 621 517 711 q 674 368 674 531 q 650 210 674 281 q 583 88 626 139 q 480 10 540 38 q 346 -17 419 -17 q 221 8 276 -17 q 126 79 165 33 q 67 190 88 125 q 46 336 46 256 m 593 864 q 474 867 526 865 q 357 869 422 869 q 239 869 292 869 q 121 864 186 868 l 125 978 q 242 974 190 975 q 361 972 294 972 q 479 974 426 972 q 599 978 532 975 l 593 864 z "},"ô":{"ha":721,"x_min":46,"x_max":674,"o":"m 363 597 q 263 528 297 597 q 228 340 228 460 q 256 159 228 224 q 356 94 285 94 q 457 166 421 94 q 493 357 493 238 q 488 457 493 413 q 467 533 482 501 q 427 581 453 564 q 363 597 401 597 m 46 336 q 69 492 46 422 q 135 610 93 561 q 239 685 178 658 q 375 711 300 711 q 595 621 517 711 q 674 368 674 531 q 650 210 674 281 q 583 88 626 139 q 480 10 540 38 q 346 -17 419 -17 q 221 8 276 -17 q 126 79 165 33 q 67 190 88 125 q 46 336 46 256 m 263 1067 q 308 1060 278 1064 q 364 1057 339 1057 q 419 1060 389 1057 q 465 1067 450 1064 l 603 835 l 507 818 l 364 975 l 221 818 l 125 835 l 263 1067 z "},"ǫ":{"ha":722,"x_min":47,"x_max":675,"o":"m 47 336 q 71 492 47 422 q 137 610 94 561 q 240 685 179 658 q 376 711 301 711 q 597 621 518 711 q 675 368 675 531 q 656 225 675 290 q 602 110 638 160 q 517 30 567 61 q 407 -11 468 -1 q 368 -83 386 -42 q 350 -168 350 -125 q 363 -215 350 -199 q 404 -232 375 -232 q 453 -220 428 -232 q 496 -186 479 -208 l 517 -249 q 460 -300 494 -281 q 368 -319 426 -319 q 298 -309 326 -319 q 252 -281 269 -299 q 227 -241 235 -264 q 219 -194 219 -218 q 228 -141 219 -167 q 250 -92 236 -115 q 280 -50 264 -69 q 313 -15 296 -31 q 201 17 250 -10 q 118 90 153 44 q 65 199 83 136 q 47 336 47 261 m 364 597 q 264 528 299 597 q 229 340 229 460 q 258 159 229 224 q 357 94 286 94 q 458 166 422 94 q 494 357 494 238 q 489 457 494 413 q 469 533 483 501 q 428 581 454 564 q 364 597 403 597 z "},"ř":{"ha":504,"x_min":29,"x_max":538,"o":"m 192 719 q 238 640 221 674 q 261 568 254 606 q 296 613 275 589 q 343 659 317 638 q 401 697 369 681 q 469 719 433 714 l 482 522 q 356 510 414 522 q 272 471 297 499 q 274 413 274 444 q 274 343 274 382 q 275 248 274 299 q 278 151 276 197 q 283 64 281 104 q 289 0 286 24 l 93 0 q 96 68 94 29 q 99 149 97 107 q 101 234 100 190 q 101 318 101 278 q 99 423 101 382 q 88 494 96 464 q 65 549 79 524 q 29 607 51 574 l 192 719 m 60 1050 l 156 1067 l 299 910 l 442 1067 l 538 1050 l 400 818 q 354 824 385 821 q 299 828 324 828 q 243 824 274 828 q 197 818 213 821 l 60 1050 z "},"ŗ":{"ha":504,"x_min":29,"x_max":482,"o":"m 192 719 q 238 640 221 674 q 261 568 254 606 q 296 613 275 589 q 343 659 317 638 q 401 697 369 681 q 469 719 433 714 l 482 522 q 356 510 414 522 q 272 471 297 499 q 274 413 274 444 q 274 343 274 382 q 275 248 274 299 q 278 151 276 197 q 283 64 281 104 q 289 0 286 24 l 93 0 q 96 68 94 29 q 99 149 97 107 q 101 234 100 190 q 101 318 101 278 q 99 423 101 382 q 88 494 96 464 q 65 549 79 524 q 29 607 51 574 l 192 719 m 129 -146 q 160 -90 132 -108 q 221 -71 189 -71 q 283 -96 261 -71 q 304 -153 304 -121 q 294 -199 304 -175 q 269 -249 285 -224 q 233 -300 253 -275 q 194 -347 214 -325 l 132 -311 q 167 -261 150 -289 q 183 -206 183 -233 q 171 -171 183 -186 q 129 -146 158 -156 z "},"ṛ":{"ha":504,"x_min":29,"x_max":482,"o":"m 192 719 q 238 640 221 674 q 261 568 254 606 q 296 613 275 589 q 343 659 317 638 q 401 697 369 681 q 469 719 433 714 l 482 522 q 356 510 414 522 q 272 471 297 499 q 274 413 274 444 q 274 343 274 382 q 275 248 274 299 q 278 151 276 197 q 283 64 281 104 q 289 0 286 24 l 93 0 q 96 68 94 29 q 99 149 97 107 q 101 234 100 190 q 101 318 101 278 q 99 423 101 382 q 88 494 96 464 q 65 549 79 524 q 29 607 51 574 l 192 719 m 103 -199 q 127 -137 103 -162 q 194 -111 151 -111 q 258 -133 231 -111 q 285 -190 285 -154 q 261 -249 285 -225 q 194 -274 238 -274 q 131 -254 158 -274 q 103 -199 103 -235 z "},"ŝ":{"ha":550,"x_min":58,"x_max":551,"o":"m 285 131 q 340 146 324 131 q 357 189 357 161 q 351 219 357 207 q 331 242 344 232 q 297 260 318 251 q 247 281 276 269 q 180 308 214 293 q 119 347 146 324 q 75 408 92 371 q 58 503 58 446 q 84 610 58 569 q 147 674 110 651 q 228 703 185 696 q 307 711 271 711 q 394 704 347 711 q 474 685 442 697 l 474 538 q 424 552 450 546 q 372 563 397 558 q 325 569 347 567 q 289 571 303 571 q 200 510 200 571 q 239 445 200 467 q 335 403 278 424 q 400 374 369 390 q 453 334 431 358 q 490 274 476 310 q 503 186 503 238 q 444 32 503 81 q 293 -17 386 -17 q 183 -3 243 -17 q 65 40 124 11 l 60 197 q 106 173 78 185 q 165 152 133 161 q 228 137 197 143 q 285 131 260 131 m 211 1067 q 257 1060 226 1064 q 313 1057 288 1057 q 368 1060 338 1057 q 414 1067 399 1064 l 551 835 l 456 818 l 313 975 l 169 818 l 74 835 l 211 1067 z "},"š":{"ha":550,"x_min":58,"x_max":551,"o":"m 285 131 q 340 146 324 131 q 357 189 357 161 q 351 219 357 207 q 331 242 344 232 q 297 260 318 251 q 247 281 276 269 q 180 308 214 293 q 119 347 146 324 q 75 408 92 371 q 58 503 58 446 q 84 610 58 569 q 147 674 110 651 q 228 703 185 696 q 307 711 271 711 q 394 704 347 711 q 474 685 442 697 l 474 538 q 424 552 450 546 q 372 563 397 558 q 325 569 347 567 q 289 571 303 571 q 200 510 200 571 q 239 445 200 467 q 335 403 278 424 q 400 374 369 390 q 453 334 431 358 q 490 274 476 310 q 503 186 503 238 q 444 32 503 81 q 293 -17 386 -17 q 183 -3 243 -17 q 65 40 124 11 l 60 197 q 106 173 78 185 q 165 152 133 161 q 228 137 197 143 q 285 131 260 131 m 74 1050 l 169 1067 l 313 910 l 456 1067 l 551 1050 l 414 818 q 368 824 399 821 q 313 828 338 828 q 257 824 288 828 q 211 818 226 821 l 74 1050 z "},"ș":{"ha":550,"x_min":58,"x_max":503,"o":"m 285 131 q 340 146 324 131 q 357 189 357 161 q 351 219 357 207 q 331 242 344 232 q 297 260 318 251 q 247 281 276 269 q 180 308 214 293 q 119 347 146 324 q 75 408 92 371 q 58 503 58 446 q 84 610 58 569 q 147 674 110 651 q 228 703 185 696 q 307 711 271 711 q 394 704 347 711 q 474 685 442 697 l 474 538 q 424 552 450 546 q 372 563 397 558 q 325 569 347 567 q 289 571 303 571 q 200 510 200 571 q 239 445 200 467 q 335 403 278 424 q 400 374 369 390 q 453 334 431 358 q 490 274 476 310 q 503 186 503 238 q 444 32 503 81 q 293 -17 386 -17 q 183 -3 243 -17 q 65 40 124 11 l 60 197 q 106 173 78 185 q 165 152 133 161 q 228 137 197 143 q 285 131 260 131 m 210 -146 q 241 -90 213 -108 q 301 -71 269 -71 q 363 -96 342 -71 q 385 -153 385 -121 q 375 -199 385 -175 q 349 -249 365 -224 q 314 -300 333 -275 q 275 -347 294 -325 l 213 -311 q 247 -261 231 -289 q 264 -206 264 -233 q 251 -171 264 -186 q 210 -146 239 -156 z "},"ş":{"ha":551,"x_min":58,"x_max":503,"o":"m 285 131 q 340 146 324 131 q 357 189 357 161 q 351 219 357 207 q 331 242 344 232 q 297 260 318 251 q 247 281 276 269 q 180 308 214 293 q 119 347 146 324 q 75 408 92 371 q 58 503 58 446 q 84 610 58 569 q 147 674 110 651 q 228 703 185 696 q 307 711 271 711 q 394 704 347 711 q 474 685 442 697 l 474 538 q 424 552 450 546 q 372 563 397 558 q 325 569 347 567 q 289 571 303 571 q 200 510 200 571 q 239 445 200 467 q 335 403 278 424 q 400 374 369 390 q 453 334 431 358 q 490 274 476 310 q 503 186 503 238 q 449 37 503 85 q 310 -15 396 -11 l 303 -65 q 393 -82 353 -68 q 455 -117 426 -93 q 483 -182 483 -140 q 448 -250 483 -224 q 365 -292 413 -276 q 268 -313 317 -307 q 193 -319 219 -319 l 172 -237 q 219 -235 189 -237 q 278 -228 249 -233 q 328 -215 307 -224 q 350 -194 350 -207 q 323 -158 350 -167 q 260 -149 296 -149 q 194 -153 225 -149 l 218 -10 q 142 9 181 -3 q 65 40 103 21 l 60 197 q 106 173 78 185 q 165 152 133 161 q 228 137 197 143 q 285 131 260 131 z "},"ť":{"ha":479,"x_min":21,"x_max":540,"o":"m 21 683 q 96 699 67 686 q 144 738 125 713 q 175 806 163 764 q 200 906 188 847 l 329 943 q 310 808 317 867 q 297 694 303 750 l 447 694 l 435 576 l 290 586 q 283 433 285 503 q 281 313 281 363 q 284 222 281 256 q 295 169 288 188 q 316 144 303 150 q 350 138 329 138 q 404 145 378 138 q 449 164 431 153 l 428 19 q 365 -8 394 1 q 296 -17 336 -17 q 215 -3 250 -17 q 158 44 181 11 q 124 128 135 76 q 113 256 113 181 q 119 408 113 318 q 132 596 125 499 l 31 596 l 21 683 m 375 993 q 402 1047 382 1024 q 467 1069 422 1069 q 505 1063 490 1069 q 527 1045 519 1056 q 538 1022 535 1035 q 540 994 540 1008 q 515 898 540 946 q 436 789 489 850 l 378 824 q 412 887 401 864 q 422 932 422 910 q 375 993 422 979 z "},"ț":{"ha":479,"x_min":21,"x_max":449,"o":"m 21 683 q 96 699 67 686 q 144 738 125 713 q 175 806 163 764 q 200 906 188 847 l 329 943 q 310 808 317 867 q 297 694 303 750 l 447 694 l 435 576 l 290 586 q 283 433 285 503 q 281 313 281 363 q 284 222 281 256 q 295 169 288 188 q 316 144 303 150 q 350 138 329 138 q 404 145 378 138 q 449 164 431 153 l 428 19 q 365 -8 394 1 q 296 -17 336 -17 q 215 -3 250 -17 q 158 44 181 11 q 124 128 135 76 q 113 256 113 181 q 119 408 113 318 q 132 596 125 499 l 31 596 l 21 683 m 197 -146 q 228 -90 200 -108 q 289 -71 257 -71 q 351 -96 329 -71 q 372 -153 372 -121 q 363 -199 372 -175 q 337 -249 353 -224 q 301 -300 321 -275 q 263 -347 282 -325 l 200 -311 q 235 -261 218 -289 q 251 -206 251 -233 q 239 -171 251 -186 q 197 -146 226 -156 z "},"ţ":{"ha":482,"x_min":22,"x_max":465,"o":"m 22 683 q 97 699 68 686 q 145 738 126 713 q 176 806 164 764 q 201 906 189 847 l 331 943 q 311 808 318 867 q 299 694 304 750 l 449 694 l 436 576 l 292 586 q 284 433 286 503 q 282 313 282 363 q 285 222 282 256 q 297 169 289 188 q 317 144 304 150 q 351 138 331 138 q 406 145 379 138 q 450 164 432 153 l 429 19 q 371 -5 397 4 q 310 -17 344 -14 l 285 -65 q 375 -82 335 -68 q 437 -117 408 -93 q 465 -182 465 -140 q 430 -250 465 -224 q 347 -292 394 -276 q 250 -313 299 -307 q 175 -319 201 -319 l 154 -237 q 201 -235 171 -237 q 260 -228 231 -233 q 310 -215 289 -224 q 332 -194 332 -207 q 305 -158 332 -167 q 242 -149 278 -149 q 176 -153 207 -149 l 226 -6 q 142 75 169 14 q 114 256 114 136 q 120 408 114 318 q 133 596 126 499 l 32 596 l 22 683 z "},"ŧ":{"ha":483,"x_min":24,"x_max":451,"o":"m 24 683 q 99 699 69 686 q 147 738 128 713 q 178 806 165 764 q 203 906 190 847 l 332 943 q 313 808 319 867 q 300 694 306 750 l 450 694 l 438 576 l 293 586 l 288 483 q 323 483 307 483 q 355 484 339 483 q 390 485 371 485 q 436 489 410 486 l 431 375 q 384 376 403 375 q 350 378 365 376 q 319 380 335 379 q 283 381 304 381 l 283 313 q 287 222 283 256 q 298 169 290 188 q 319 144 306 150 q 353 138 332 138 q 407 145 381 138 q 451 164 433 153 l 431 19 q 368 -8 397 1 q 299 -17 339 -17 q 218 -3 253 -17 q 160 44 183 11 q 126 128 138 76 q 115 256 115 181 q 119 379 115 308 q 76 378 99 379 q 28 375 54 376 l 32 489 q 126 485 86 485 l 135 596 l 33 596 l 24 683 z "},"ű":{"ha":735,"x_min":47,"x_max":708,"o":"m 546 -17 q 501 53 518 24 q 476 114 485 82 q 432 67 456 90 q 380 26 408 44 q 319 -5 351 7 q 250 -17 288 -17 q 183 -4 215 -17 q 125 38 150 8 q 85 117 100 67 q 69 242 69 167 q 70 298 69 260 q 72 378 71 336 q 74 460 74 421 q 75 519 75 499 q 69 608 75 565 q 47 678 63 650 l 238 711 q 249 642 247 679 q 251 576 251 604 q 249 496 251 536 q 245 417 247 456 q 241 345 243 379 q 239 286 239 311 q 267 174 239 204 q 343 143 294 143 q 413 157 383 143 q 465 190 442 171 q 464 247 464 215 q 464 318 464 278 q 464 433 464 382 q 463 529 464 485 q 462 613 463 574 q 460 694 461 653 l 647 694 q 644 619 646 661 q 641 531 643 578 q 638 435 639 485 q 636 340 636 386 q 639 252 636 286 q 650 192 642 218 q 672 145 658 167 q 708 96 686 124 l 546 -17 m 411 1039 l 244 807 l 149 824 l 242 1056 l 411 1039 m 667 1039 l 500 807 l 404 824 l 497 1056 l 667 1039 z "},"ŭ":{"ha":735,"x_min":47,"x_max":708,"o":"m 546 -17 q 501 53 518 24 q 476 114 485 82 q 432 67 456 90 q 380 26 408 44 q 319 -5 351 7 q 250 -17 288 -17 q 183 -4 215 -17 q 125 38 150 8 q 85 117 100 67 q 69 242 69 167 q 70 298 69 260 q 72 378 71 336 q 74 460 74 421 q 75 519 75 499 q 69 608 75 565 q 47 678 63 650 l 238 711 q 249 642 247 679 q 251 576 251 604 q 249 496 251 536 q 245 417 247 456 q 241 345 243 379 q 239 286 239 311 q 267 174 239 204 q 343 143 294 143 q 413 157 383 143 q 465 190 442 171 q 464 247 464 215 q 464 318 464 278 q 464 433 464 382 q 463 529 464 485 q 462 613 463 574 q 460 694 461 653 l 647 694 q 644 619 646 661 q 641 531 643 578 q 638 435 639 485 q 636 340 636 386 q 639 252 636 286 q 650 192 642 218 q 672 145 658 167 q 708 96 686 124 l 546 -17 m 576 1040 q 560 952 576 990 q 513 888 543 914 q 441 849 482 863 q 353 836 400 836 q 197 892 250 836 q 143 1040 143 947 l 269 1040 q 296 969 269 999 q 360 940 322 940 q 424 969 397 940 q 451 1040 451 999 l 576 1040 z "},"ů":{"ha":735,"x_min":47,"x_max":708,"o":"m 546 -17 q 501 53 518 24 q 476 114 485 82 q 432 67 456 90 q 380 26 408 44 q 319 -5 351 7 q 250 -17 288 -17 q 183 -4 215 -17 q 125 38 150 8 q 85 117 100 67 q 69 242 69 167 q 70 298 69 260 q 72 378 71 336 q 74 460 74 421 q 75 519 75 499 q 69 608 75 565 q 47 678 63 650 l 238 711 q 249 642 247 679 q 251 576 251 604 q 249 496 251 536 q 245 417 247 456 q 241 345 243 379 q 239 286 239 311 q 267 174 239 204 q 343 143 294 143 q 413 157 383 143 q 465 190 442 171 q 464 247 464 215 q 464 318 464 278 q 464 433 464 382 q 463 529 464 485 q 462 613 463 574 q 460 694 461 653 l 647 694 q 644 619 646 661 q 641 531 643 578 q 638 435 639 485 q 636 340 636 386 q 639 252 636 286 q 650 192 642 218 q 672 145 658 167 q 708 96 686 124 l 546 -17 m 228 919 q 265 1020 228 978 q 368 1063 301 1063 q 419 1053 394 1063 q 462 1028 443 1044 q 492 987 481 1011 q 503 933 503 963 q 463 837 503 876 q 358 797 424 797 q 267 828 306 797 q 228 919 228 860 m 308 926 q 324 890 308 903 q 361 876 340 876 q 403 892 389 876 q 418 932 418 908 q 404 969 418 956 q 367 983 390 983 q 324 967 339 983 q 308 926 308 950 z "},"ū":{"ha":735,"x_min":47,"x_max":708,"o":"m 546 -17 q 501 53 518 24 q 476 114 485 82 q 432 67 456 90 q 380 26 408 44 q 319 -5 351 7 q 250 -17 288 -17 q 183 -4 215 -17 q 125 38 150 8 q 85 117 100 67 q 69 242 69 167 q 70 298 69 260 q 72 378 71 336 q 74 460 74 421 q 75 519 75 499 q 69 608 75 565 q 47 678 63 650 l 238 711 q 249 642 247 679 q 251 576 251 604 q 249 496 251 536 q 245 417 247 456 q 241 345 243 379 q 239 286 239 311 q 267 174 239 204 q 343 143 294 143 q 413 157 383 143 q 465 190 442 171 q 464 247 464 215 q 464 318 464 278 q 464 433 464 382 q 463 529 464 485 q 462 613 463 574 q 460 694 461 653 l 647 694 q 644 619 646 661 q 641 531 643 578 q 638 435 639 485 q 636 340 636 386 q 639 252 636 286 q 650 192 642 218 q 672 145 658 167 q 708 96 686 124 l 546 -17 m 604 864 q 485 867 538 865 q 368 869 433 869 q 250 869 303 869 q 132 864 197 868 l 136 978 q 253 974 201 975 q 372 972 306 972 q 490 974 438 972 q 610 978 543 975 l 604 864 z "},"û":{"ha":735,"x_min":47,"x_max":708,"o":"m 546 -17 q 501 53 518 24 q 476 114 485 82 q 432 67 456 90 q 380 26 408 44 q 319 -5 351 7 q 250 -17 288 -17 q 183 -4 215 -17 q 125 38 150 8 q 85 117 100 67 q 69 242 69 167 q 70 298 69 260 q 72 378 71 336 q 74 460 74 421 q 75 519 75 499 q 69 608 75 565 q 47 678 63 650 l 238 711 q 249 642 247 679 q 251 576 251 604 q 249 496 251 536 q 245 417 247 456 q 241 345 243 379 q 239 286 239 311 q 267 174 239 204 q 343 143 294 143 q 413 157 383 143 q 465 190 442 171 q 464 247 464 215 q 464 318 464 278 q 464 433 464 382 q 463 529 464 485 q 462 613 463 574 q 460 694 461 653 l 647 694 q 644 619 646 661 q 641 531 643 578 q 638 435 639 485 q 636 340 636 386 q 639 252 636 286 q 650 192 642 218 q 672 145 658 167 q 708 96 686 124 l 546 -17 m 264 1067 q 310 1060 279 1064 q 365 1057 340 1057 q 421 1060 390 1057 q 467 1067 451 1064 l 604 835 l 508 818 l 365 975 l 222 818 l 126 835 l 264 1067 z "},"ų":{"ha":738,"x_min":47,"x_max":708,"o":"m 708 96 q 614 15 651 51 q 554 -53 576 -22 q 522 -113 532 -85 q 513 -168 513 -142 q 525 -215 513 -199 q 567 -232 538 -232 q 616 -220 590 -232 q 658 -186 642 -208 l 679 -249 q 623 -300 657 -281 q 531 -319 589 -319 q 460 -309 489 -319 q 415 -281 432 -299 q 390 -241 397 -264 q 382 -194 382 -218 q 398 -121 382 -156 q 436 -58 414 -86 q 482 -9 458 -29 q 521 19 506 11 q 494 68 504 46 q 476 114 483 90 q 432 67 456 90 q 380 26 408 44 q 319 -5 351 7 q 250 -17 288 -17 q 183 -4 215 -17 q 125 38 150 8 q 85 117 100 67 q 69 242 69 167 q 70 298 69 260 q 72 378 71 336 q 74 460 74 421 q 75 519 75 499 q 69 608 75 565 q 47 678 63 650 l 238 711 q 249 642 247 679 q 251 576 251 604 q 249 496 251 536 q 245 417 247 456 q 241 345 243 379 q 239 286 239 311 q 267 174 239 204 q 343 143 294 143 q 413 157 383 143 q 465 190 442 171 q 464 247 464 215 q 464 318 464 278 q 464 433 464 382 q 463 529 464 485 q 462 613 463 574 q 460 694 461 653 l 647 694 q 644 619 646 661 q 641 531 643 578 q 638 435 639 485 q 636 340 636 386 q 639 252 636 286 q 650 192 642 218 q 672 145 658 167 q 708 96 686 124 z "},"ŵ":{"ha":1078,"x_min":22,"x_max":1057,"o":"m 1057 711 q 967 342 1017 514 q 853 0 917 171 l 685 -17 q 644 100 664 39 q 604 224 624 161 q 567 351 585 288 q 538 476 550 415 q 474 233 513 358 q 394 0 435 108 l 226 -17 q 112 326 163 154 q 22 694 61 497 l 201 711 q 249 434 222 571 q 310 165 276 297 q 387 425 351 296 q 450 694 422 554 l 629 711 q 692 434 657 571 q 768 165 726 297 q 829 425 801 296 q 878 694 857 554 l 1057 711 m 439 1067 q 485 1060 454 1064 q 540 1057 515 1057 q 596 1060 565 1057 q 642 1067 626 1064 l 779 835 l 683 818 l 540 975 l 397 818 l 301 835 l 439 1067 z "},"ŷ":{"ha":694,"x_min":22,"x_max":674,"o":"m 674 711 q 590 435 633 567 q 498 181 546 304 q 398 -62 450 57 q 289 -301 346 -182 l 97 -318 q 196 -151 151 -233 q 278 11 240 -69 q 133 335 194 168 q 22 694 71 501 l 201 711 q 233 563 217 639 q 269 418 250 488 q 309 288 288 349 q 356 185 331 228 q 434 448 404 324 q 494 694 464 572 l 674 711 m 260 1067 q 306 1060 275 1064 q 361 1057 336 1057 q 417 1060 386 1057 q 463 1067 447 1064 l 600 835 l 504 818 l 361 975 l 218 818 l 122 835 l 260 1067 z "},"ž":{"ha":594,"x_min":36,"x_max":572,"o":"m 546 631 q 491 544 525 599 q 419 423 457 490 q 342 282 381 356 q 269 139 303 208 l 553 149 l 543 -17 q 482 -10 525 -12 q 385 -5 439 -7 q 276 -1 332 -3 q 179 0 221 0 l 51 0 l 36 81 q 98 172 63 118 q 172 288 133 225 q 247 419 210 350 q 318 557 285 489 l 64 547 l 47 711 q 131 704 74 707 q 256 699 189 701 q 386 696 322 697 q 489 694 450 694 l 535 694 l 546 631 m 94 1050 l 190 1067 l 333 910 l 476 1067 l 572 1050 l 435 818 q 389 824 419 821 q 333 828 358 828 q 278 824 308 828 q 232 818 247 821 l 94 1050 z "},"µ":{"ha":774,"x_min":78,"x_max":739,"o":"m 576 -17 q 531 53 547 24 q 507 115 515 83 q 476 68 493 92 q 440 26 460 44 q 397 -5 421 7 q 344 -17 374 -17 q 277 10 299 -17 q 253 74 256 38 l 247 74 q 251 -23 247 31 q 261 -131 256 -76 q 271 -235 267 -185 q 276 -319 275 -285 l 89 -319 q 92 -194 90 -249 q 96 -80 94 -139 q 99 54 97 -21 q 100 242 100 129 q 101 298 100 260 q 103 378 101 336 q 105 460 104 421 q 106 519 106 499 q 99 608 106 565 q 78 678 93 650 l 268 711 q 280 642 278 679 q 282 576 282 604 q 280 496 282 536 q 276 417 278 456 q 272 345 274 379 q 269 286 269 311 q 297 174 269 204 q 374 143 325 143 q 443 157 414 143 q 496 190 472 171 q 494 247 494 215 q 494 318 494 278 q 494 433 494 382 q 494 529 494 485 q 492 613 493 574 q 490 694 492 653 l 678 694 q 675 619 676 661 q 672 531 674 578 q 668 435 669 485 q 667 340 667 386 q 669 252 667 286 q 681 192 672 218 q 703 145 689 167 q 739 96 717 124 l 576 -17 z "},"μ":{"ha":753,"x_min":63,"x_max":724,"o":"m 561 -17 q 516 53 532 24 q 492 115 500 83 q 461 68 478 92 q 425 26 444 44 q 382 -5 406 7 q 329 -17 358 -17 q 262 10 283 -17 q 238 74 240 38 l 232 74 q 236 -23 232 31 q 246 -131 240 -76 q 256 -235 251 -185 q 261 -319 260 -285 l 74 -319 q 77 -194 75 -249 q 81 -80 79 -139 q 83 54 82 -21 q 85 242 85 129 q 85 298 85 260 q 88 378 86 336 q 90 460 89 421 q 90 519 90 499 q 84 608 90 565 q 63 678 78 650 l 253 711 q 265 642 263 679 q 267 576 267 604 q 265 496 267 536 q 260 417 263 456 q 256 345 258 379 q 254 286 254 311 q 282 174 254 204 q 358 143 310 143 q 428 157 399 143 q 481 190 457 171 q 479 247 479 215 q 479 318 479 278 q 479 433 479 382 q 478 529 479 485 q 477 613 478 574 q 475 694 476 653 l 663 694 q 660 619 661 661 q 656 531 658 578 q 653 435 654 485 q 651 340 651 386 q 654 252 651 286 q 665 192 657 218 q 688 145 674 167 q 724 96 701 124 l 561 -17 z "},"ĸ":{"ha":722,"x_min":81,"x_max":703,"o":"m 275 694 q 266 578 268 639 q 264 428 264 518 q 397 578 339 511 q 514 711 456 644 l 703 694 q 642 640 671 665 q 578 583 613 614 q 503 512 544 551 q 408 415 463 472 q 594 354 525 410 q 663 176 663 299 q 658 94 663 140 q 650 0 653 47 l 472 -18 q 483 85 478 38 q 488 171 488 132 q 458 286 488 246 q 347 326 429 326 q 264 318 307 326 q 264 220 264 264 q 265 139 264 176 q 266 67 265 101 q 268 0 267 33 l 81 0 q 84 82 82 47 q 88 154 86 117 q 90 240 89 192 q 92 363 92 288 q 90 517 92 438 q 85 681 89 597 l 275 694 z "},"Ŋ":{"ha":994,"x_min":99,"x_max":897,"o":"m 897 972 q 891 881 893 928 q 888 778 889 835 q 887 653 888 722 q 886 494 886 583 q 886 353 886 411 q 887 249 886 296 q 888 160 888 203 q 888 63 888 117 q 883 -32 888 8 q 873 -102 879 -72 q 859 -153 867 -132 q 843 -192 851 -175 q 769 -275 815 -249 q 667 -319 722 -301 l 561 -185 q 623 -170 596 -181 q 670 -137 650 -160 q 702 -78 690 -115 q 718 14 714 -42 l 611 -17 q 431 380 518 169 q 278 806 344 590 q 277 742 278 779 q 276 664 276 706 q 276 578 276 622 q 276 494 276 535 q 278 344 276 411 q 281 218 279 276 q 284 107 282 160 q 288 0 286 54 l 99 0 q 102 117 100 67 q 106 223 104 168 q 108 349 107 278 q 110 526 110 419 q 108 740 110 633 q 103 958 107 846 l 410 989 q 527 590 453 807 q 714 124 601 374 q 718 290 717 190 q 719 526 719 390 q 715 740 719 633 q 706 958 710 846 l 897 972 z "},"ŋ":{"ha":761,"x_min":29,"x_max":682,"o":"m 192 711 q 236 640 219 671 q 261 578 253 610 q 308 624 282 600 q 365 667 335 649 q 429 699 394 686 q 501 711 464 711 q 567 699 535 711 q 624 658 599 688 q 666 581 650 629 q 682 460 682 532 q 681 368 682 428 q 680 239 681 308 q 677 98 679 169 q 672 -28 675 26 q 655 -165 667 -117 q 619 -246 643 -214 q 544 -303 589 -287 q 458 -319 499 -319 q 388 -311 426 -319 q 326 -292 350 -303 l 367 -147 q 401 -160 381 -156 q 439 -165 422 -165 q 492 -132 475 -165 q 510 -6 510 -99 l 510 424 q 481 524 510 496 q 406 551 451 551 q 331 539 365 551 q 271 508 297 526 q 274 450 274 482 q 274 376 274 418 q 274 261 274 313 q 274 165 274 210 q 276 81 275 121 q 278 0 276 42 l 90 0 q 93 75 92 33 q 97 163 94 117 q 100 259 99 210 q 101 354 101 308 q 99 442 101 408 q 88 502 96 476 q 65 549 79 528 q 29 599 51 571 l 192 711 z "},"þ":{"ha":711,"x_min":76,"x_max":661,"o":"m 268 1069 q 262 977 264 1025 q 259 873 260 929 q 258 749 258 817 q 257 597 257 681 q 356 675 299 639 q 482 711 413 711 q 548 699 515 711 q 606 653 581 686 q 646 563 631 619 q 661 417 661 506 q 640 227 661 308 q 578 92 618 146 q 485 10 539 38 q 364 -17 431 -17 q 306 -9 332 -17 q 257 10 281 -1 q 257 -78 257 -37 q 258 -156 257 -118 q 260 -229 258 -193 q 263 -304 261 -265 l 76 -319 q 83 -126 81 -211 q 86 41 85 -42 q 88 214 88 124 q 88 424 88 304 q 87 565 88 482 q 85 735 86 647 q 81 908 83 824 q 78 1056 79 993 l 268 1069 m 388 551 q 315 540 347 551 q 257 511 282 528 q 257 307 257 394 q 258 143 257 219 q 356 81 293 81 q 449 154 417 81 q 482 372 482 228 q 475 464 482 429 q 456 518 468 499 q 426 544 443 538 q 388 551 408 551 z "},"⁄":{"ha":194,"x_min":-199,"x_max":392,"o":"m 392 972 q 299 780 339 864 q 226 624 260 696 q 162 486 192 551 q 100 349 132 421 q 31 192 68 276 q -51 0 -6 108 l -199 -14 q -107 177 -147 93 q -33 333 -67 261 q 30 472 0 406 q 92 611 60 539 q 160 767 124 683 q 242 958 196 850 l 392 972 z "},"∕":{"ha":618,"x_min":-19,"x_max":640,"o":"m -19 -172 q 243 393 117 111 q 490 958 369 675 l 640 972 q 369 400 500 683 q 114 -169 238 117 l -19 -172 z "},"/":{"ha":722,"x_min":32,"x_max":692,"o":"m 32 -172 q 294 393 168 111 q 542 958 421 675 l 692 972 q 420 400 551 683 q 165 -169 289 117 l 32 -172 z "},"{":{"ha":518,"x_min":24,"x_max":490,"o":"m 139 833 q 155 981 139 922 q 199 1075 171 1040 q 265 1124 228 1110 q 343 1139 301 1139 q 415 1128 375 1139 q 490 1096 456 1118 l 475 1000 q 412 1022 443 1013 q 354 1031 381 1031 q 328 1024 339 1031 q 308 998 317 1017 q 296 944 300 979 q 292 853 292 908 l 292 744 q 286 665 292 700 q 269 602 281 631 q 242 551 258 574 q 206 507 226 528 q 242 463 226 486 q 269 412 258 440 q 286 349 281 383 q 292 269 292 314 l 292 136 q 296 44 292 79 q 308 -9 300 10 q 328 -35 317 -28 q 354 -42 339 -42 q 412 -33 381 -42 q 475 -11 443 -25 l 490 -107 q 415 -140 456 -129 q 343 -150 375 -150 q 265 -135 301 -150 q 199 -86 228 -121 q 155 8 171 -51 q 139 156 139 67 l 139 289 q 135 373 139 340 q 122 423 131 406 q 98 447 113 440 q 63 453 83 453 l 24 453 l 24 561 l 68 561 q 101 568 88 561 q 124 594 115 575 q 135 644 132 613 q 139 725 139 675 l 139 833 z "},"}":{"ha":518,"x_min":28,"x_max":494,"o":"m 379 725 q 383 644 379 675 q 394 594 386 613 q 417 568 403 575 q 450 561 431 561 l 494 561 l 494 453 l 456 453 q 420 447 435 453 q 397 423 406 440 q 383 373 388 406 q 379 289 379 340 l 379 156 q 363 8 379 67 q 319 -86 347 -51 q 253 -135 290 -121 q 175 -150 217 -150 q 103 -140 143 -150 q 28 -107 63 -129 l 43 -11 q 106 -33 75 -25 q 164 -42 138 -42 q 190 -35 178 -42 q 210 -9 201 -28 q 222 44 218 10 q 226 136 226 79 l 226 269 q 232 349 226 314 q 249 412 238 383 q 276 463 260 440 q 313 507 292 486 q 276 551 292 528 q 249 602 260 574 q 232 665 238 631 q 226 744 226 700 l 226 853 q 222 944 226 908 q 210 998 218 979 q 190 1024 201 1017 q 164 1031 178 1031 q 106 1022 138 1031 q 43 1000 75 1013 l 28 1096 q 103 1128 63 1118 q 175 1139 143 1139 q 253 1124 217 1139 q 319 1075 290 1110 q 363 981 347 1040 q 379 833 379 922 l 379 725 z "},"­":{"ha":603,"x_min":75,"x_max":528,"o":"m 519 279 q 460 281 486 281 q 408 283 433 282 q 357 284 383 283 q 297 285 331 285 q 238 284 264 285 q 186 283 211 283 q 135 281 161 282 q 75 279 108 281 l 82 407 q 142 404 115 406 q 193 402 168 403 q 244 401 218 401 q 304 401 271 401 q 364 401 338 401 q 415 402 390 401 q 467 404 440 403 q 528 407 494 406 l 519 279 z "},"¬":{"ha":753,"x_min":79,"x_max":672,"o":"m 504 74 q 508 107 507 90 q 510 147 510 124 q 511 203 511 171 q 511 283 511 236 q 446 284 479 283 q 371 285 413 285 q 293 284 328 285 q 225 283 258 283 q 157 281 192 282 q 79 279 122 281 l 86 407 q 164 404 129 406 q 231 402 199 403 q 299 401 264 401 q 378 401 333 401 q 456 401 421 401 q 524 402 490 401 q 592 404 557 403 q 671 407 626 406 q 670 390 671 406 q 668 351 669 374 q 666 301 667 328 q 665 250 665 274 q 667 169 665 214 q 672 88 668 124 l 504 74 z "},"†":{"ha":531,"x_min":39,"x_max":492,"o":"m 483 524 q 406 526 439 525 q 339 528 374 528 l 339 328 q 339 136 339 219 q 340 -18 339 53 q 341 -154 340 -89 q 343 -292 342 -219 l 182 -292 q 185 -190 183 -235 q 187 -103 186 -144 q 189 -18 188 -61 q 191 78 190 25 q 192 200 192 132 q 193 360 193 268 l 193 528 q 120 526 156 528 q 39 524 85 525 l 46 651 q 123 647 90 649 q 192 646 156 646 q 190 778 190 711 q 186 917 189 844 l 350 931 q 344 792 346 857 q 340 646 342 728 q 411 647 376 646 q 492 651 446 649 l 483 524 z "},"‡":{"ha":557,"x_min":53,"x_max":506,"o":"m 497 44 q 420 47 453 46 q 354 49 388 49 q 355 -123 354 -43 q 358 -292 356 -203 l 197 -292 q 200 -197 199 -239 q 202 -115 201 -154 q 204 -37 203 -76 q 206 49 206 3 q 133 47 168 49 q 53 44 99 46 l 60 172 q 138 168 104 169 q 207 167 171 167 q 208 212 207 188 q 208 276 208 236 q 208 376 208 315 q 208 529 208 436 q 135 526 169 528 q 53 524 100 525 l 60 651 q 138 647 104 649 q 207 646 171 646 q 205 778 206 711 q 201 917 204 844 l 365 931 q 359 792 361 857 q 356 646 357 728 q 426 647 392 646 q 506 651 460 649 l 497 524 q 420 526 453 525 q 354 528 388 528 l 354 167 q 425 168 390 167 q 506 172 460 169 l 497 44 z "},"·":{"ha":365,"x_min":72,"x_max":293,"o":"m 72 347 q 102 420 72 389 q 183 451 132 451 q 260 426 228 451 q 293 356 293 400 q 262 284 293 313 q 179 256 231 256 q 103 279 135 256 q 72 347 72 303 z "},"∙":{"ha":365,"x_min":72,"x_max":293,"o":"m 72 347 q 102 420 72 389 q 183 451 132 451 q 260 426 228 451 q 293 356 293 400 q 262 284 293 313 q 179 256 231 256 q 103 279 135 256 q 72 347 72 303 z "},"\"":{"ha":494,"x_min":65,"x_max":438,"o":"m 207 1056 l 176 710 l 81 717 l 65 1069 l 207 1056 m 438 1056 l 407 710 l 311 717 l 296 1069 l 438 1056 z "},"'":{"ha":264,"x_min":65,"x_max":207,"o":"m 207 1056 l 176 710 l 81 717 l 65 1069 l 207 1056 z "},"*":{"ha":632,"x_min":49,"x_max":579,"o":"m 393 1056 l 372 874 l 549 947 l 579 807 l 403 768 l 526 617 l 403 544 l 314 703 l 210 540 l 103 636 l 233 778 l 49 831 l 106 961 l 261 885 l 251 1069 l 393 1056 z "},"¶":{"ha":868,"x_min":39,"x_max":768,"o":"m 768 972 q 762 845 764 908 q 759 707 760 782 q 758 540 758 632 q 757 328 757 449 q 757 143 757 219 q 758 3 757 67 q 759 -119 758 -60 q 761 -250 760 -178 l 618 -250 q 621 -151 619 -193 q 623 -73 622 -110 q 625 2 624 -36 q 627 90 626 40 q 628 208 628 140 q 629 374 629 276 q 629 494 629 439 q 628 603 629 549 q 625 717 626 657 q 622 851 624 776 l 500 851 q 495 631 496 739 q 494 404 494 522 q 494 226 494 297 q 495 104 494 154 q 497 19 496 54 q 499 -54 497 -17 q 501 -137 500 -92 q 504 -250 503 -182 l 361 -250 q 363 -99 363 -169 q 365 44 364 -29 q 365 201 365 118 q 365 389 365 283 q 322 385 343 386 q 286 383 300 383 q 101 462 164 383 q 39 678 39 540 q 52 792 39 736 q 97 891 65 847 q 180 961 128 935 q 310 988 232 988 q 539 985 431 988 q 768 972 647 982 z "},"‹":{"ha":519,"x_min":43,"x_max":467,"o":"m 465 625 q 417 581 440 601 q 363 531 393 560 q 294 461 333 503 q 199 353 254 419 q 279 265 242 304 q 349 191 317 225 q 410 128 381 157 q 467 69 439 99 l 268 69 q 228 117 249 94 q 183 171 208 140 q 124 245 158 201 q 43 356 90 289 q 123 459 89 418 q 182 529 157 500 q 226 580 207 558 q 264 625 246 601 l 465 625 z "},"›":{"ha":519,"x_min":53,"x_max":476,"o":"m 256 625 q 293 580 274 601 q 338 529 313 558 q 397 459 363 500 q 476 356 431 418 q 395 245 429 289 q 336 171 361 201 q 291 117 311 140 q 251 69 271 94 l 53 69 q 110 128 81 99 q 171 191 139 157 q 240 265 203 225 q 321 353 276 304 q 225 461 264 419 q 156 531 186 503 q 103 581 126 560 q 54 625 79 601 l 256 625 z "},"«":{"ha":842,"x_min":43,"x_max":789,"o":"m 465 625 q 417 581 440 601 q 363 531 393 560 q 294 461 333 503 q 199 353 254 419 q 279 265 242 304 q 349 191 317 225 q 410 128 381 157 q 467 69 439 99 l 268 69 q 228 117 249 94 q 183 171 208 140 q 124 245 158 201 q 43 356 90 289 q 123 459 89 418 q 182 529 157 500 q 226 580 207 558 q 264 625 246 601 l 465 625 m 788 625 q 739 581 763 601 q 685 531 715 560 q 616 461 656 503 q 521 353 576 419 q 601 265 564 304 q 671 191 639 225 q 732 128 703 157 q 789 69 761 99 l 590 69 q 551 117 571 94 q 506 171 531 140 q 447 245 481 201 q 365 356 413 289 q 445 459 411 418 q 504 529 479 500 q 549 580 529 558 q 586 625 568 601 l 788 625 z "},"»":{"ha":842,"x_min":53,"x_max":799,"o":"m 578 625 q 615 580 596 601 q 660 529 635 558 q 719 459 685 500 q 799 356 753 418 q 717 245 751 289 q 658 171 683 201 q 613 117 633 140 q 574 69 593 94 l 375 69 q 432 128 403 99 q 493 191 461 157 q 562 265 525 225 q 643 353 599 304 q 547 461 586 419 q 478 531 508 503 q 425 581 449 560 q 376 625 401 601 l 578 625 m 256 625 q 293 580 274 601 q 338 529 313 558 q 397 459 363 500 q 476 356 431 418 q 395 245 429 289 q 336 171 361 201 q 291 117 311 140 q 251 69 271 94 l 53 69 q 110 128 81 99 q 171 191 139 157 q 240 265 203 225 q 321 353 276 304 q 225 461 264 419 q 156 531 186 503 q 103 581 126 560 q 54 625 79 601 l 256 625 z "},"€":{"ha":847,"x_min":50,"x_max":799,"o":"m 564 303 q 462 306 518 304 q 351 307 406 307 q 424 152 372 200 q 557 104 475 104 q 585 106 569 104 q 618 116 600 108 q 656 140 636 124 q 699 183 676 156 l 789 108 q 759 73 779 94 q 708 32 739 51 q 633 -2 676 13 q 535 -17 590 -17 q 415 3 472 -17 q 311 65 358 24 q 228 166 264 106 q 174 307 192 226 q 50 303 108 307 l 57 431 q 157 426 104 426 q 156 452 156 439 q 156 479 156 465 q 156 513 156 496 q 157 544 156 529 q 103 543 129 544 q 50 540 76 542 l 57 668 q 115 665 85 665 q 176 663 144 664 q 235 805 197 743 q 324 907 274 867 q 438 968 375 947 q 568 989 500 989 q 691 963 636 989 q 799 861 746 936 q 753 824 772 839 q 722 797 736 808 q 708 786 707 786 q 644 851 679 836 q 574 867 610 867 q 442 821 499 867 q 358 663 386 775 q 469 664 411 663 q 572 668 528 665 l 564 540 q 456 543 515 542 q 340 544 397 544 q 339 502 339 526 q 339 425 339 478 q 460 426 396 425 q 572 431 524 428 l 564 303 z "},"$":{"ha":772,"x_min":51,"x_max":732,"o":"m 453 1107 q 449 1049 450 1079 q 446 988 447 1018 q 564 975 511 985 q 661 954 617 965 l 661 807 q 547 835 603 824 q 438 850 490 847 q 436 729 436 801 q 436 560 436 657 q 543 524 490 544 q 638 472 596 504 q 706 390 679 439 q 732 272 732 342 q 710 156 732 207 q 651 70 689 106 q 559 13 613 35 q 442 -14 506 -8 l 447 -182 l 326 -178 l 332 -15 q 204 3 271 -11 q 72 40 138 17 l 67 197 q 119 176 88 186 q 187 156 150 165 q 263 139 224 146 q 339 129 301 132 l 339 424 q 219 466 272 444 q 129 518 167 488 q 72 592 92 549 q 51 701 51 636 q 76 824 51 774 q 141 908 101 875 q 231 958 181 940 q 332 982 281 975 l 328 1093 l 453 1107 m 557 261 q 523 341 557 311 q 436 390 489 371 l 436 131 q 557 261 557 151 m 217 717 q 227 672 217 692 q 254 636 238 651 q 293 609 271 621 q 339 589 315 597 l 339 844 q 246 796 275 831 q 217 717 217 761 z "},"¥":{"ha":889,"x_min":38,"x_max":853,"o":"m 704 121 l 538 126 q 538 63 538 94 q 540 0 539 32 l 347 0 l 347 126 l 176 121 l 183 249 q 267 244 225 246 q 351 243 310 243 l 354 328 q 265 326 310 328 q 176 324 221 325 l 183 451 q 235 449 210 450 q 289 447 261 447 q 153 697 213 568 q 38 972 93 825 l 226 989 q 274 868 250 931 q 325 743 299 806 q 381 619 351 681 q 444 501 410 557 q 565 727 515 610 q 663 972 614 844 l 853 989 q 734 706 796 839 q 593 447 672 574 q 713 451 651 447 l 704 328 l 536 328 l 536 243 q 624 244 581 243 q 713 249 668 246 l 704 121 z "},"¢":{"ha":631,"x_min":54,"x_max":583,"o":"m 54 304 q 123 581 54 478 q 315 706 192 685 l 310 861 l 404 875 q 398 797 401 838 q 393 711 394 757 q 492 687 454 708 q 549 629 529 665 q 576 544 569 593 q 583 440 583 496 l 457 422 q 459 448 458 436 q 460 472 460 460 q 441 567 460 529 q 392 618 422 604 q 391 551 392 588 q 390 458 390 514 q 390 318 390 401 q 390 111 390 235 q 481 134 433 115 q 560 178 528 153 l 560 56 q 482 9 525 25 q 390 -12 439 -7 l 396 -167 l 306 -167 l 311 -17 q 215 -1 261 -15 q 133 48 168 13 q 76 145 97 83 q 54 304 54 207 m 315 121 q 317 242 317 182 q 318 365 318 303 q 317 489 318 428 q 317 614 317 550 q 251 522 276 590 q 225 347 225 453 q 315 121 225 158 z "},"£":{"ha":717,"x_min":47,"x_max":675,"o":"m 47 542 l 163 542 l 163 594 q 174 739 163 668 q 213 865 185 810 q 291 953 242 919 q 417 986 340 986 q 466 983 436 986 q 528 975 496 981 q 590 960 560 969 q 642 938 621 951 l 626 800 q 528 842 579 825 q 426 858 476 858 q 365 847 386 858 q 334 810 344 835 q 322 747 324 785 q 318 657 319 708 q 317 597 317 625 q 317 542 317 568 l 496 542 l 483 424 l 314 435 q 307 314 311 364 q 293 227 303 264 q 268 164 283 190 q 229 114 253 138 q 289 130 264 126 q 338 133 314 133 q 400 130 372 133 q 451 122 428 126 q 496 113 475 117 q 536 110 517 110 q 568 113 554 110 q 594 123 582 117 q 617 138 606 129 q 644 154 629 146 l 675 33 q 615 0 651 17 q 536 -17 578 -17 q 488 -12 515 -17 q 430 -3 461 -8 q 367 6 399 1 q 306 10 335 10 q 239 5 274 10 q 175 -6 204 0 q 107 -19 140 -11 l 54 89 q 115 112 93 97 q 147 155 136 126 q 161 231 158 183 q 164 350 164 278 l 164 443 l 57 443 l 47 542 z "},"¤":{"ha":824,"x_min":58,"x_max":765,"o":"m 122 336 q 157 493 122 428 q 110 536 133 515 q 58 585 88 557 l 143 682 q 190 629 169 651 q 233 585 211 607 q 318 627 271 613 q 424 642 365 642 q 597 592 528 642 q 636 633 617 611 q 681 682 656 654 l 765 585 q 714 538 736 558 q 669 497 692 518 q 694 368 694 443 q 663 215 694 282 q 710 170 686 192 q 765 121 733 149 l 681 24 q 633 75 654 53 q 592 119 613 97 q 394 53 513 53 q 219 107 290 53 q 183 68 201 88 q 143 24 165 49 l 58 121 q 106 163 85 144 q 147 201 128 182 q 122 336 122 260 m 411 528 q 311 478 346 528 q 276 340 276 428 q 305 210 276 256 q 404 164 333 164 q 506 217 469 164 q 542 357 542 269 q 516 483 542 438 q 411 528 490 528 z "},"Æ":{"ha":1229,"x_min":21,"x_max":1185,"o":"m 1185 0 l 618 0 q 621 76 619 42 q 623 143 622 111 q 625 208 624 175 q 626 281 626 242 l 347 281 q 285 140 315 210 q 225 0 254 71 l 21 -17 q 254 478 133 232 q 508 972 375 724 l 1158 972 l 1158 836 l 813 836 q 810 713 810 782 q 810 557 810 644 l 1115 557 l 1115 429 l 810 429 q 810 270 810 342 q 811 136 810 199 l 1185 136 l 1185 0 m 610 815 q 506 611 557 713 q 407 408 456 510 l 629 408 q 629 547 629 488 q 629 653 629 606 q 628 740 629 701 q 626 815 628 778 l 610 815 z "},"ª":{"ha":506,"x_min":56,"x_max":449,"o":"m 185 553 q 88 592 119 553 q 56 682 56 631 q 97 780 56 746 q 197 814 138 814 q 244 808 221 814 q 289 788 268 801 l 289 826 q 278 878 289 863 q 232 894 268 894 q 177 890 213 894 q 110 867 142 885 l 85 960 q 119 972 99 967 q 163 981 140 978 q 209 987 186 985 q 251 989 232 989 q 369 955 331 989 q 407 847 407 921 q 406 806 407 832 q 403 754 404 781 q 400 704 401 728 q 399 669 399 681 q 404 642 399 650 q 425 635 410 635 l 449 635 l 438 565 q 392 557 417 557 q 335 571 363 557 q 300 622 307 585 q 251 569 282 586 q 185 553 219 553 m 226 643 q 269 656 249 643 q 290 697 290 669 q 273 730 290 721 q 233 739 256 739 q 194 729 213 739 q 176 692 176 719 q 191 656 176 668 q 226 643 206 643 z "},"º":{"ha":513,"x_min":54,"x_max":460,"o":"m 258 907 q 199 869 219 907 q 178 767 178 832 q 195 668 178 703 q 254 633 213 633 q 315 672 293 633 q 338 776 338 711 q 322 872 338 838 q 258 907 307 907 m 54 764 q 112 928 54 868 q 267 989 169 989 q 409 935 358 989 q 460 783 460 881 q 402 615 460 678 q 249 553 344 553 q 106 610 158 553 q 54 764 54 667 z "},"Œ":{"ha":1365,"x_min":54,"x_max":1321,"o":"m 1251 429 l 890 429 q 890 270 890 342 q 892 136 890 199 l 1321 136 l 1321 0 l 699 0 q 699 37 699 19 q 700 69 699 54 q 592 6 651 29 q 463 -17 532 -17 q 291 20 367 -17 q 163 123 215 57 q 82 279 110 189 q 54 478 54 369 q 85 685 54 590 q 173 847 115 779 q 311 951 231 914 q 492 989 392 989 q 704 922 614 989 q 703 947 704 935 q 703 972 703 960 l 1294 972 l 1294 836 l 893 836 q 890 713 890 782 q 890 557 890 644 l 1251 557 l 1251 429 m 479 864 q 308 765 371 864 q 244 482 244 667 q 298 202 244 299 q 472 106 351 106 q 567 132 524 106 q 642 208 610 158 q 692 331 674 258 q 710 499 710 404 q 699 654 710 586 q 663 769 689 722 q 592 840 636 815 q 479 864 547 864 z "},"Ə":{"ha":879,"x_min":43,"x_max":825,"o":"m 43 354 q 51 451 43 400 q 72 533 60 503 l 631 533 q 619 672 629 611 q 582 776 608 733 q 512 840 556 818 q 400 863 468 863 q 262 839 326 863 q 119 779 197 815 l 99 901 q 168 942 128 925 q 251 970 208 960 q 338 985 294 981 q 415 990 381 990 q 575 963 500 990 q 706 876 650 935 q 793 726 761 817 q 825 510 825 635 q 794 292 825 389 q 708 126 764 194 q 573 20 651 57 q 399 -17 494 -17 q 238 17 304 -17 q 127 103 171 50 q 63 222 83 156 q 43 354 43 288 m 406 111 q 563 190 511 111 q 626 411 614 268 l 219 411 q 215 349 215 390 q 222 275 215 317 q 249 197 229 233 q 307 136 269 161 q 406 111 344 111 z "},"°":{"ha":492,"x_min":54,"x_max":439,"o":"m 250 893 q 182 864 207 893 q 157 793 157 835 q 178 730 157 757 q 236 703 199 703 q 304 733 278 703 q 331 808 331 764 q 312 869 331 844 q 250 893 293 893 m 54 793 q 108 936 54 883 q 254 989 163 989 q 390 942 342 989 q 439 810 439 896 q 383 663 439 718 q 235 608 326 608 q 103 658 151 608 q 54 793 54 707 z "},"Þ":{"ha":800,"x_min":99,"x_max":769,"o":"m 769 496 q 742 371 769 428 q 665 272 715 314 q 542 208 614 231 q 378 185 469 185 q 334 186 356 185 q 290 190 313 188 q 292 94 292 140 q 294 0 292 47 l 99 0 q 103 117 101 67 q 107 223 106 168 q 109 346 108 278 q 110 515 110 414 q 108 739 110 632 q 103 958 107 846 l 301 972 q 295 883 297 928 q 292 785 293 838 q 388 789 342 789 q 559 766 488 789 q 678 703 631 743 q 747 609 725 663 q 769 496 769 556 m 290 310 q 331 306 310 307 q 374 304 351 304 q 532 356 478 304 q 586 492 586 408 q 539 613 586 568 q 400 658 492 658 q 290 644 347 658 l 290 310 z "},"Ą":{"ha":906,"x_min":17,"x_max":897,"o":"m 17 -17 q 92 252 54 124 q 172 501 131 381 q 262 739 214 622 q 365 972 310 856 l 539 989 q 642 758 594 874 q 731 522 689 643 q 812 271 774 400 q 888 0 850 142 l 790 -8 q 749 -81 768 -39 q 731 -168 731 -124 q 743 -215 731 -199 q 785 -232 756 -232 q 834 -220 808 -232 q 876 -186 860 -208 l 897 -249 q 841 -300 875 -281 q 749 -319 807 -319 q 678 -309 707 -319 q 633 -281 650 -299 q 608 -241 615 -264 q 600 -194 600 -218 q 609 -139 600 -165 q 632 -89 618 -112 q 663 -46 646 -65 q 697 -11 681 -26 q 659 133 678 60 q 621 281 640 206 l 278 281 q 240 143 258 213 q 207 0 222 74 l 17 -17 m 453 815 q 313 408 372 618 l 586 408 q 523 615 556 513 q 453 815 490 718 z "},"À":{"ha":906,"x_min":17,"x_max":888,"o":"m 17 -17 q 92 252 54 124 q 172 501 131 381 q 262 739 214 622 q 365 972 310 856 l 539 989 q 642 758 594 874 q 731 522 689 643 q 812 271 774 400 q 888 0 850 142 l 699 -17 q 660 131 679 57 q 621 281 640 206 l 278 281 q 240 143 258 213 q 207 0 222 74 l 17 -17 m 453 815 q 313 408 372 618 l 586 408 q 523 615 556 513 q 453 815 490 718 m 340 1278 l 506 1100 l 396 1083 l 157 1261 l 340 1278 z "},"Á":{"ha":906,"x_min":17,"x_max":888,"o":"m 17 -17 q 92 252 54 124 q 172 501 131 381 q 262 739 214 622 q 365 972 310 856 l 539 989 q 642 758 594 874 q 731 522 689 643 q 812 271 774 400 q 888 0 850 142 l 699 -17 q 660 131 679 57 q 621 281 640 206 l 278 281 q 240 143 258 213 q 207 0 222 74 l 17 -17 m 453 815 q 313 408 372 618 l 586 408 q 523 615 556 513 q 453 815 490 718 m 757 1261 l 518 1085 l 408 1101 l 574 1278 l 757 1261 z "},"Â":{"ha":906,"x_min":17,"x_max":888,"o":"m 17 -17 q 92 252 54 124 q 172 501 131 381 q 262 739 214 622 q 365 972 310 856 l 539 989 q 642 758 594 874 q 731 522 689 643 q 812 271 774 400 q 888 0 850 142 l 699 -17 q 660 131 679 57 q 621 281 640 206 l 278 281 q 240 143 258 213 q 207 0 222 74 l 17 -17 m 453 815 q 313 408 372 618 l 586 408 q 523 615 556 513 q 453 815 490 718 m 351 1292 q 397 1285 367 1289 q 453 1282 428 1282 q 508 1285 478 1282 q 554 1292 539 1289 l 713 1115 l 624 1085 l 453 1186 l 282 1085 l 193 1115 l 351 1292 z "},"Ã":{"ha":906,"x_min":17,"x_max":888,"o":"m 17 -17 q 92 252 54 124 q 172 501 131 381 q 262 739 214 622 q 365 972 310 856 l 539 989 q 642 758 594 874 q 731 522 689 643 q 812 271 774 400 q 888 0 850 142 l 699 -17 q 660 131 679 57 q 621 281 640 206 l 278 281 q 240 143 258 213 q 207 0 222 74 l 17 -17 m 453 815 q 313 408 372 618 l 586 408 q 523 615 556 513 q 453 815 490 718 m 706 1217 q 546 1068 628 1068 q 494 1080 518 1068 q 447 1105 469 1092 q 403 1130 424 1118 q 361 1142 382 1142 q 276 1074 311 1142 l 201 1118 q 361 1267 279 1267 q 413 1255 389 1267 q 460 1230 438 1243 q 504 1205 483 1217 q 546 1193 525 1193 q 631 1261 596 1193 l 706 1217 z "},"Ä":{"ha":906,"x_min":17,"x_max":888,"o":"m 17 -17 q 92 252 54 124 q 172 501 131 381 q 262 739 214 622 q 365 972 310 856 l 539 989 q 642 758 594 874 q 731 522 689 643 q 812 271 774 400 q 888 0 850 142 l 699 -17 q 660 131 679 57 q 621 281 640 206 l 278 281 q 240 143 258 213 q 207 0 222 74 l 17 -17 m 453 815 q 313 408 372 618 l 586 408 q 523 615 556 513 q 453 815 490 718 m 229 1163 q 252 1224 229 1197 q 311 1250 275 1250 q 369 1228 344 1250 q 393 1169 393 1206 q 369 1109 393 1133 q 307 1085 346 1085 q 252 1105 275 1085 q 229 1163 229 1125 m 510 1163 q 532 1224 510 1197 q 593 1250 554 1250 q 649 1228 625 1250 q 674 1169 674 1206 q 650 1109 674 1133 q 588 1085 626 1085 q 533 1105 556 1085 q 510 1163 510 1125 z "},"Å":{"ha":906,"x_min":17,"x_max":888,"o":"m 17 -17 q 92 252 54 124 q 172 501 131 381 q 262 739 214 622 q 365 972 310 856 l 539 989 q 642 758 594 874 q 731 522 689 643 q 812 271 774 400 q 888 0 850 142 l 699 -17 q 660 131 679 57 q 621 281 640 206 l 278 281 q 240 143 258 213 q 207 0 222 74 l 17 -17 m 453 815 q 313 408 372 618 l 586 408 q 523 615 556 513 q 453 815 490 718 m 331 1200 q 365 1294 331 1254 q 463 1333 400 1333 q 551 1301 513 1333 q 589 1213 589 1269 q 552 1122 589 1160 q 453 1085 515 1085 q 367 1114 403 1085 q 331 1200 331 1143 m 406 1206 q 421 1172 406 1183 q 456 1160 436 1160 q 496 1174 482 1160 q 510 1211 510 1189 q 497 1247 510 1233 q 461 1260 483 1260 q 421 1244 436 1260 q 406 1206 406 1229 z "},"Ā":{"ha":906,"x_min":17,"x_max":888,"o":"m 17 -17 q 92 252 54 124 q 172 501 131 381 q 262 739 214 622 q 365 972 310 856 l 539 989 q 642 758 594 874 q 731 522 689 643 q 812 271 774 400 q 888 0 850 142 l 699 -17 q 660 131 679 57 q 621 281 640 206 l 278 281 q 240 143 258 213 q 207 0 222 74 l 17 -17 m 453 815 q 313 408 372 618 l 586 408 q 523 615 556 513 q 453 815 490 718 m 686 1085 q 567 1088 619 1086 q 450 1090 515 1090 q 332 1090 385 1090 q 214 1085 279 1089 l 218 1199 q 335 1194 283 1196 q 454 1193 388 1193 q 572 1194 519 1193 q 692 1199 625 1196 l 686 1085 z "},"Ă":{"ha":906,"x_min":17,"x_max":888,"o":"m 17 -17 q 92 252 54 124 q 172 501 131 381 q 262 739 214 622 q 365 972 310 856 l 539 989 q 642 758 594 874 q 731 522 689 643 q 812 271 774 400 q 888 0 850 142 l 699 -17 q 660 131 679 57 q 621 281 640 206 l 278 281 q 240 143 258 213 q 207 0 222 74 l 17 -17 m 453 815 q 313 408 372 618 l 586 408 q 523 615 556 513 q 453 815 490 718 m 690 1289 q 672 1201 690 1239 q 622 1137 654 1163 q 547 1098 590 1111 q 453 1085 504 1085 q 287 1140 344 1085 q 229 1289 229 1196 l 356 1289 q 385 1218 356 1247 q 460 1189 415 1189 q 534 1218 503 1189 q 565 1289 565 1247 l 690 1289 z "},"Ǻ":{"ha":906,"x_min":17,"x_max":888,"o":"m 17 -17 q 95 233 56 114 q 177 464 135 351 q 266 685 219 576 q 365 903 313 793 l 539 919 q 638 705 592 813 q 726 484 683 597 q 808 251 768 371 q 888 0 847 131 l 699 -17 q 664 103 681 43 q 629 225 647 163 l 268 225 q 238 114 253 169 q 207 0 222 58 l 17 -17 m 453 746 q 374 552 410 650 q 307 353 339 454 l 592 353 q 527 553 561 454 q 453 746 493 651 m 347 1061 q 382 1155 347 1115 q 479 1194 417 1194 q 567 1163 529 1194 q 606 1074 606 1131 q 569 983 606 1021 q 469 946 532 946 q 383 975 419 946 q 347 1061 347 1004 m 760 1367 l 557 1218 l 447 1235 l 576 1383 l 760 1367 m 422 1067 q 438 1033 422 1044 q 472 1021 453 1021 q 513 1035 499 1021 q 526 1072 526 1050 q 513 1108 526 1094 q 478 1121 500 1121 q 438 1106 453 1121 q 422 1067 422 1090 z "},"Ǽ":{"ha":1229,"x_min":21,"x_max":1185,"o":"m 1185 0 l 618 0 q 621 76 619 42 q 623 143 622 111 q 625 208 624 175 q 626 281 626 242 l 347 281 q 285 140 315 210 q 225 0 254 71 l 21 -17 q 254 478 133 232 q 508 972 375 724 l 1158 972 l 1158 836 l 813 836 q 810 713 810 782 q 810 557 810 644 l 1115 557 l 1115 429 l 810 429 q 810 270 810 342 q 811 136 810 199 l 1185 136 l 1185 0 m 610 815 q 506 611 557 713 q 407 408 456 510 l 629 408 q 629 547 629 488 q 629 653 629 606 q 628 740 629 701 q 626 815 628 778 l 610 815 m 1049 1261 l 810 1085 l 700 1101 l 865 1278 l 1049 1261 z "},"Ç":{"ha":838,"x_min":58,"x_max":778,"o":"m 58 446 q 170 855 58 721 q 486 989 282 989 q 590 981 549 989 q 665 972 631 972 q 713 976 689 972 q 763 988 736 981 l 778 635 l 622 617 q 624 656 624 638 q 625 692 625 675 q 594 825 625 778 q 485 872 564 872 q 240 482 240 872 q 256 324 240 389 q 304 217 272 258 q 384 158 336 176 q 494 139 432 139 q 629 159 563 139 q 758 203 696 179 l 758 56 q 640 6 707 22 q 506 -14 572 -10 l 499 -65 q 589 -82 549 -68 q 651 -117 622 -93 q 679 -182 679 -140 q 644 -250 679 -224 q 560 -292 608 -276 q 464 -313 513 -307 q 389 -319 415 -319 l 368 -237 q 415 -235 385 -237 q 474 -228 444 -233 q 524 -215 503 -224 q 546 -194 546 -207 q 519 -158 546 -167 q 456 -149 492 -149 q 390 -153 421 -149 l 413 -15 q 276 9 340 -12 q 164 82 213 31 q 87 221 115 133 q 58 446 58 308 z "},"Ć":{"ha":838,"x_min":58,"x_max":788,"o":"m 58 446 q 170 855 58 721 q 486 989 282 989 q 590 981 549 989 q 665 972 631 972 q 713 976 689 972 q 763 988 736 981 l 778 635 l 622 617 q 624 656 624 638 q 625 692 625 675 q 594 825 625 778 q 485 872 564 872 q 240 482 240 872 q 256 324 240 389 q 304 217 272 258 q 384 158 336 176 q 494 139 432 139 q 629 159 563 139 q 758 203 696 179 l 758 56 q 613 -1 696 15 q 451 -17 529 -17 q 302 1 374 -17 q 176 69 231 18 q 90 210 122 119 q 58 446 58 300 m 788 1261 l 549 1085 l 439 1101 l 604 1278 l 788 1261 z "},"Ĉ":{"ha":838,"x_min":58,"x_max":778,"o":"m 58 446 q 170 855 58 721 q 486 989 282 989 q 590 981 549 989 q 665 972 631 972 q 713 976 689 972 q 763 988 736 981 l 778 635 l 622 617 q 624 656 624 638 q 625 692 625 675 q 594 825 625 778 q 485 872 564 872 q 240 482 240 872 q 256 324 240 389 q 304 217 272 258 q 384 158 336 176 q 494 139 432 139 q 629 159 563 139 q 758 203 696 179 l 758 56 q 613 -1 696 15 q 451 -17 529 -17 q 302 1 374 -17 q 176 69 231 18 q 90 210 122 119 q 58 446 58 300 m 382 1292 q 428 1285 397 1289 q 483 1282 458 1282 q 539 1285 508 1282 q 585 1292 569 1289 l 743 1115 l 654 1085 l 483 1186 l 313 1085 l 224 1115 l 382 1292 z "},"Ċ":{"ha":838,"x_min":58,"x_max":778,"o":"m 58 446 q 170 855 58 721 q 486 989 282 989 q 590 981 549 989 q 665 972 631 972 q 713 976 689 972 q 763 988 736 981 l 778 635 l 622 617 q 624 656 624 638 q 625 692 625 675 q 594 825 625 778 q 485 872 564 872 q 240 482 240 872 q 256 324 240 389 q 304 217 272 258 q 384 158 336 176 q 494 139 432 139 q 629 159 563 139 q 758 203 696 179 l 758 56 q 613 -1 696 15 q 451 -17 529 -17 q 302 1 374 -17 q 176 69 231 18 q 90 210 122 119 q 58 446 58 300 m 389 1164 q 415 1231 389 1203 q 488 1258 442 1258 q 556 1235 528 1258 q 583 1175 583 1213 q 556 1111 583 1138 q 483 1085 529 1085 q 416 1105 443 1085 q 389 1164 389 1125 z "},"Č":{"ha":838,"x_min":58,"x_max":778,"o":"m 58 446 q 170 855 58 721 q 486 989 282 989 q 590 981 549 989 q 665 972 631 972 q 713 976 689 972 q 763 988 736 981 l 778 635 l 622 617 q 624 656 624 638 q 625 692 625 675 q 594 825 625 778 q 485 872 564 872 q 240 482 240 872 q 256 324 240 389 q 304 217 272 258 q 384 158 336 176 q 494 139 432 139 q 629 159 563 139 q 758 203 696 179 l 758 56 q 613 -1 696 15 q 451 -17 529 -17 q 302 1 374 -17 q 176 69 231 18 q 90 210 122 119 q 58 446 58 300 m 224 1261 l 313 1292 l 483 1190 l 654 1292 l 743 1261 l 585 1085 q 539 1091 569 1088 q 483 1094 508 1094 q 428 1091 458 1094 q 382 1085 397 1088 l 224 1261 z "},"Ḍ":{"ha":932,"x_min":99,"x_max":881,"o":"m 103 958 q 240 979 158 969 q 418 989 321 989 q 613 955 528 989 q 758 858 699 921 q 849 707 818 796 q 881 510 881 618 q 845 299 881 396 q 745 133 810 203 q 590 23 681 63 q 389 -17 500 -17 q 219 -12 293 -17 q 99 0 144 -7 q 102 117 100 67 q 106 223 104 168 q 108 349 107 278 q 110 526 110 419 q 108 740 110 633 q 103 958 107 846 m 399 864 q 348 859 375 864 q 293 847 321 854 q 290 697 290 781 q 290 494 290 614 q 290 281 290 371 q 292 111 290 190 q 356 97 321 97 q 488 119 426 97 q 596 190 550 142 q 668 315 642 239 q 694 499 694 390 q 674 674 694 604 q 615 787 654 744 q 522 847 576 829 q 399 864 467 864 m 392 -199 q 416 -137 392 -162 q 483 -111 440 -111 q 547 -133 519 -111 q 574 -190 574 -154 q 550 -249 574 -225 q 483 -274 526 -274 q 419 -254 447 -274 q 392 -199 392 -235 z "},"Ď":{"ha":932,"x_min":99,"x_max":881,"o":"m 103 958 q 240 979 158 969 q 418 989 321 989 q 613 955 528 989 q 758 858 699 921 q 849 707 818 796 q 881 510 881 618 q 845 299 881 396 q 745 133 810 203 q 590 23 681 63 q 389 -17 500 -17 q 219 -12 293 -17 q 99 0 144 -7 q 102 117 100 67 q 106 223 104 168 q 108 349 107 278 q 110 526 110 419 q 108 740 110 633 q 103 958 107 846 m 399 864 q 348 859 375 864 q 293 847 321 854 q 290 697 290 781 q 290 494 290 614 q 290 281 290 371 q 292 111 290 190 q 356 97 321 97 q 488 119 426 97 q 596 190 550 142 q 668 315 642 239 q 694 499 694 390 q 674 674 694 604 q 615 787 654 744 q 522 847 576 829 q 399 864 467 864 m 203 1261 l 292 1292 l 463 1190 l 633 1292 l 722 1261 l 564 1085 q 518 1091 549 1088 q 463 1094 488 1094 q 407 1091 438 1094 q 361 1085 376 1088 l 203 1261 z "},"Đ":{"ha":940,"x_min":26,"x_max":889,"o":"m 111 958 q 248 979 167 969 q 426 989 329 989 q 622 955 536 989 q 767 858 707 921 q 858 707 826 796 q 889 510 889 618 q 853 299 889 396 q 753 133 818 203 q 599 23 689 63 q 397 -17 508 -17 q 227 -12 301 -17 q 107 0 153 -7 q 110 103 108 58 q 113 196 111 149 q 117 298 115 243 q 118 431 118 353 l 26 426 l 31 540 l 118 536 q 117 744 118 640 q 111 958 115 847 m 499 426 q 395 429 440 428 q 299 432 350 431 q 299 257 299 336 q 300 111 299 178 q 364 97 329 97 q 497 119 435 97 q 604 190 558 142 q 676 315 650 239 q 703 499 703 390 q 683 674 703 604 q 624 787 663 744 q 530 847 585 829 q 407 864 475 864 q 356 859 383 864 q 301 847 329 854 q 299 710 299 786 q 299 535 299 635 q 399 536 351 535 q 504 540 446 538 l 499 426 z "},"Ð":{"ha":940,"x_min":26,"x_max":889,"o":"m 111 958 q 248 979 167 969 q 426 989 329 989 q 622 955 536 989 q 767 858 707 921 q 858 707 826 796 q 889 510 889 618 q 853 299 889 396 q 753 133 818 203 q 599 23 689 63 q 397 -17 508 -17 q 227 -12 301 -17 q 107 0 153 -7 q 110 103 108 58 q 113 196 111 149 q 117 298 115 243 q 118 431 118 353 l 26 426 l 31 540 l 118 536 q 117 744 118 640 q 111 958 115 847 m 499 426 q 395 429 440 428 q 299 432 350 431 q 299 257 299 336 q 300 111 299 178 q 364 97 329 97 q 497 119 435 97 q 604 190 558 142 q 676 315 650 239 q 703 499 703 390 q 683 674 703 604 q 624 787 663 744 q 530 847 585 829 q 407 864 475 864 q 356 859 383 864 q 301 847 329 854 q 299 710 299 786 q 299 535 299 635 q 399 536 351 535 q 504 540 446 538 l 499 426 z "},"Ẹ":{"ha":765,"x_min":99,"x_max":721,"o":"m 651 429 l 290 429 q 290 270 290 342 q 292 136 290 199 l 721 136 l 721 0 l 99 0 q 102 117 100 67 q 106 223 104 168 q 108 349 107 278 q 110 526 110 419 q 108 747 110 633 q 103 972 107 860 l 694 972 l 694 836 l 293 836 q 290 713 290 782 q 290 557 290 644 l 651 557 l 651 429 m 340 -199 q 365 -137 340 -162 q 432 -111 389 -111 q 495 -133 468 -111 q 522 -190 522 -154 q 499 -249 522 -225 q 432 -274 475 -274 q 368 -254 396 -274 q 340 -199 340 -235 z "},"Ė":{"ha":765,"x_min":99,"x_max":721,"o":"m 651 429 l 290 429 q 290 270 290 342 q 292 136 290 199 l 721 136 l 721 0 l 99 0 q 102 117 100 67 q 106 223 104 168 q 108 349 107 278 q 110 526 110 419 q 108 747 110 633 q 103 972 107 860 l 694 972 l 694 836 l 293 836 q 290 713 290 782 q 290 557 290 644 l 651 557 l 651 429 m 317 1165 q 343 1232 317 1204 q 415 1260 369 1260 q 483 1237 456 1260 q 511 1176 511 1214 q 484 1113 511 1139 q 411 1086 457 1086 q 344 1106 371 1086 q 317 1165 317 1126 z "},"Ë":{"ha":765,"x_min":99,"x_max":721,"o":"m 651 429 l 290 429 q 290 270 290 342 q 292 136 290 199 l 721 136 l 721 0 l 99 0 q 102 117 100 67 q 106 223 104 168 q 108 349 107 278 q 110 526 110 419 q 108 747 110 633 q 103 972 107 860 l 694 972 l 694 836 l 293 836 q 290 713 290 782 q 290 557 290 644 l 651 557 l 651 429 m 188 1164 q 210 1225 188 1199 q 269 1251 233 1251 q 327 1229 303 1251 q 351 1171 351 1207 q 328 1110 351 1135 q 265 1086 304 1086 q 210 1106 233 1086 q 188 1164 188 1126 m 468 1164 q 490 1225 468 1199 q 551 1251 513 1251 q 608 1229 583 1251 q 632 1171 632 1207 q 608 1110 632 1135 q 546 1086 585 1086 q 491 1106 514 1086 q 468 1164 468 1126 z "},"É":{"ha":765,"x_min":99,"x_max":721,"o":"m 651 429 l 290 429 q 290 270 290 342 q 292 136 290 199 l 721 136 l 721 0 l 99 0 q 102 117 100 67 q 106 223 104 168 q 108 349 107 278 q 110 526 110 419 q 108 747 110 633 q 103 972 107 860 l 694 972 l 694 836 l 293 836 q 290 713 290 782 q 290 557 290 644 l 651 557 l 651 429 m 688 1263 l 449 1086 l 339 1103 l 504 1279 l 688 1263 z "},"È":{"ha":765,"x_min":99,"x_max":721,"o":"m 651 429 l 290 429 q 290 270 290 342 q 292 136 290 199 l 721 136 l 721 0 l 99 0 q 102 117 100 67 q 106 223 104 168 q 108 349 107 278 q 110 526 110 419 q 108 747 110 633 q 103 972 107 860 l 694 972 l 694 836 l 293 836 q 290 713 290 782 q 290 557 290 644 l 651 557 l 651 429 m 353 1279 l 518 1101 l 408 1085 l 169 1263 l 353 1279 z "},"Ẽ":{"ha":765,"x_min":99,"x_max":721,"o":"m 651 429 l 290 429 q 290 270 290 342 q 292 136 290 199 l 721 136 l 721 0 l 99 0 q 102 117 100 67 q 106 223 104 168 q 108 349 107 278 q 110 526 110 419 q 108 747 110 633 q 103 972 107 860 l 694 972 l 694 836 l 293 836 q 290 713 290 782 q 290 557 290 644 l 651 557 l 651 429 m 664 1218 q 504 1069 586 1069 q 452 1081 476 1069 q 405 1106 428 1093 q 361 1131 382 1119 q 319 1143 340 1143 q 235 1075 269 1143 l 160 1119 q 319 1268 238 1268 q 372 1256 347 1268 q 419 1231 396 1244 q 463 1206 442 1218 q 504 1194 483 1194 q 589 1263 554 1194 l 664 1218 z "},"Ĕ":{"ha":765,"x_min":99,"x_max":721,"o":"m 651 429 l 290 429 q 290 270 290 342 q 292 136 290 199 l 721 136 l 721 0 l 99 0 q 102 117 100 67 q 106 223 104 168 q 108 349 107 278 q 110 526 110 419 q 108 747 110 633 q 103 972 107 860 l 694 972 l 694 836 l 293 836 q 290 713 290 782 q 290 557 290 644 l 651 557 l 651 429 m 649 1290 q 631 1202 649 1240 q 581 1138 613 1164 q 506 1099 549 1113 q 411 1086 463 1086 q 245 1142 303 1086 q 188 1290 188 1197 l 314 1290 q 344 1219 314 1249 q 418 1190 374 1190 q 492 1219 461 1190 q 524 1290 524 1249 l 649 1290 z "},"Ē":{"ha":765,"x_min":99,"x_max":721,"o":"m 651 429 l 290 429 q 290 270 290 342 q 292 136 290 199 l 721 136 l 721 0 l 99 0 q 102 117 100 67 q 106 223 104 168 q 108 349 107 278 q 110 526 110 419 q 108 747 110 633 q 103 972 107 860 l 694 972 l 694 836 l 293 836 q 290 713 290 782 q 290 557 290 644 l 651 557 l 651 429 m 644 1086 q 526 1090 578 1088 q 408 1092 474 1092 q 290 1091 343 1092 q 172 1086 238 1090 l 176 1200 q 294 1196 242 1197 q 413 1194 346 1194 q 531 1196 478 1194 q 650 1200 583 1197 l 644 1086 z "},"Ê":{"ha":765,"x_min":99,"x_max":721,"o":"m 651 429 l 290 429 q 290 270 290 342 q 292 136 290 199 l 721 136 l 721 0 l 99 0 q 102 117 100 67 q 106 223 104 168 q 108 349 107 278 q 110 526 110 419 q 108 747 110 633 q 103 972 107 860 l 694 972 l 694 836 l 293 836 q 290 713 290 782 q 290 557 290 644 l 651 557 l 651 429 m 310 1293 q 356 1287 325 1290 q 411 1283 386 1283 q 467 1287 436 1283 q 513 1293 497 1290 l 671 1117 l 582 1086 l 411 1188 l 240 1086 l 151 1117 l 310 1293 z "},"Ě":{"ha":765,"x_min":99,"x_max":721,"o":"m 651 429 l 290 429 q 290 270 290 342 q 292 136 290 199 l 721 136 l 721 0 l 99 0 q 102 117 100 67 q 106 223 104 168 q 108 349 107 278 q 110 526 110 419 q 108 747 110 633 q 103 972 107 860 l 694 972 l 694 836 l 293 836 q 290 713 290 782 q 290 557 290 644 l 651 557 l 651 429 m 151 1263 l 240 1293 l 411 1192 l 582 1293 l 671 1263 l 513 1086 q 467 1092 497 1089 q 411 1096 436 1096 q 356 1092 386 1096 q 310 1086 325 1089 l 151 1263 z "},"Ę":{"ha":765,"x_min":99,"x_max":721,"o":"m 651 429 l 290 429 q 290 270 290 342 q 292 136 290 199 l 721 136 l 721 0 l 504 0 q 460 -76 481 -31 q 439 -168 439 -121 q 451 -215 439 -199 q 493 -232 464 -232 q 542 -220 517 -232 q 585 -186 568 -208 l 606 -249 q 549 -300 583 -281 q 457 -319 515 -319 q 387 -309 415 -319 q 341 -281 358 -299 q 316 -241 324 -264 q 308 -194 308 -218 q 319 -133 308 -162 q 347 -79 331 -104 q 383 -34 364 -54 q 419 0 403 -14 l 99 0 q 102 117 100 67 q 106 223 104 168 q 108 349 107 278 q 110 526 110 419 q 108 747 110 633 q 103 972 107 860 l 694 972 l 694 836 l 293 836 q 290 713 290 782 q 290 557 290 644 l 651 557 l 651 429 z "},"Ģ":{"ha":913,"x_min":57,"x_max":853,"o":"m 853 447 q 847 407 849 428 q 844 362 844 386 q 842 307 843 338 q 842 238 842 276 q 842 104 842 157 q 846 0 843 51 l 782 -17 l 732 67 q 597 7 676 31 q 438 -17 518 -17 q 295 1 364 -17 q 174 70 226 19 q 89 211 121 121 q 57 446 57 301 q 172 855 57 721 q 503 989 288 989 q 564 986 536 989 q 615 981 592 983 q 661 975 639 978 q 706 972 683 972 q 751 976 728 972 q 803 988 775 979 l 818 668 l 664 650 q 665 669 665 660 q 665 688 665 678 q 658 757 665 724 q 633 816 651 790 q 583 857 615 842 q 503 872 551 872 q 239 485 239 872 q 255 326 239 392 q 302 219 271 261 q 380 158 333 178 q 486 139 426 139 q 581 153 536 139 q 671 190 626 167 l 671 329 l 501 321 l 489 447 l 853 447 m 410 -146 q 441 -90 413 -108 q 501 -71 469 -71 q 563 -96 542 -71 q 585 -153 585 -121 q 575 -199 585 -175 q 549 -249 565 -224 q 514 -300 533 -275 q 475 -347 494 -325 l 413 -311 q 447 -261 431 -289 q 464 -206 464 -233 q 451 -171 464 -186 q 410 -146 439 -156 z "},"Ĝ":{"ha":913,"x_min":57,"x_max":853,"o":"m 853 447 q 847 407 849 428 q 844 362 844 386 q 842 307 843 338 q 842 238 842 276 q 842 104 842 157 q 846 0 843 51 l 782 -17 l 732 67 q 597 7 676 31 q 438 -17 518 -17 q 295 1 364 -17 q 174 70 226 19 q 89 211 121 121 q 57 446 57 301 q 172 855 57 721 q 503 989 288 989 q 564 986 536 989 q 615 981 592 983 q 661 975 639 978 q 706 972 683 972 q 751 976 728 972 q 803 988 775 979 l 818 668 l 664 650 q 665 669 665 660 q 665 688 665 678 q 658 757 665 724 q 633 816 651 790 q 583 857 615 842 q 503 872 551 872 q 239 485 239 872 q 255 326 239 392 q 302 219 271 261 q 380 158 333 178 q 486 139 426 139 q 581 153 536 139 q 671 190 626 167 l 671 329 l 501 321 l 489 447 l 853 447 m 394 1292 q 440 1285 410 1289 q 496 1282 471 1282 q 551 1285 521 1282 q 597 1292 582 1289 l 756 1115 l 667 1085 l 496 1186 l 325 1085 l 236 1115 l 394 1292 z "},"Ğ":{"ha":913,"x_min":57,"x_max":853,"o":"m 853 447 q 847 407 849 428 q 844 362 844 386 q 842 307 843 338 q 842 238 842 276 q 842 104 842 157 q 846 0 843 51 l 782 -17 l 732 67 q 597 7 676 31 q 438 -17 518 -17 q 295 1 364 -17 q 174 70 226 19 q 89 211 121 121 q 57 446 57 301 q 172 855 57 721 q 503 989 288 989 q 564 986 536 989 q 615 981 592 983 q 661 975 639 978 q 706 972 683 972 q 751 976 728 972 q 803 988 775 979 l 818 668 l 664 650 q 665 669 665 660 q 665 688 665 678 q 658 757 665 724 q 633 816 651 790 q 583 857 615 842 q 503 872 551 872 q 239 485 239 872 q 255 326 239 392 q 302 219 271 261 q 380 158 333 178 q 486 139 426 139 q 581 153 536 139 q 671 190 626 167 l 671 329 l 501 321 l 489 447 l 853 447 m 733 1289 q 715 1201 733 1239 q 665 1137 697 1163 q 590 1098 633 1111 q 496 1085 547 1085 q 330 1140 388 1085 q 272 1289 272 1196 l 399 1289 q 428 1218 399 1247 q 503 1189 458 1189 q 577 1218 546 1189 q 608 1289 608 1247 l 733 1289 z "},"Ġ":{"ha":913,"x_min":57,"x_max":853,"o":"m 853 447 q 847 407 849 428 q 844 362 844 386 q 842 307 843 338 q 842 238 842 276 q 842 104 842 157 q 846 0 843 51 l 782 -17 l 732 67 q 597 7 676 31 q 438 -17 518 -17 q 295 1 364 -17 q 174 70 226 19 q 89 211 121 121 q 57 446 57 301 q 172 855 57 721 q 503 989 288 989 q 564 986 536 989 q 615 981 592 983 q 661 975 639 978 q 706 972 683 972 q 751 976 728 972 q 803 988 775 979 l 818 668 l 664 650 q 665 669 665 660 q 665 688 665 678 q 658 757 665 724 q 633 816 651 790 q 583 857 615 842 q 503 872 551 872 q 239 485 239 872 q 255 326 239 392 q 302 219 271 261 q 380 158 333 178 q 486 139 426 139 q 581 153 536 139 q 671 190 626 167 l 671 329 l 501 321 l 489 447 l 853 447 m 401 1164 q 428 1231 401 1203 q 500 1258 454 1258 q 568 1235 540 1258 q 596 1175 596 1213 q 569 1111 596 1138 q 496 1085 542 1085 q 428 1105 456 1085 q 401 1164 401 1125 z "},"Ǆ":{"ha":1689,"x_min":99,"x_max":1647,"o":"m 103 958 q 240 979 158 969 q 418 989 321 989 q 613 955 528 989 q 758 858 699 921 q 849 707 818 796 q 881 510 881 618 q 845 299 881 396 q 745 133 810 203 q 590 23 681 63 q 389 -17 500 -17 q 219 -12 293 -17 q 99 0 144 -7 q 102 117 100 67 q 106 223 104 168 q 108 349 107 278 q 110 526 110 419 q 108 740 110 633 q 103 958 107 846 m 399 864 q 348 859 375 864 q 293 847 321 854 q 290 697 290 781 q 290 494 290 614 q 290 281 290 371 q 292 111 290 190 q 356 97 321 97 q 488 119 426 97 q 596 190 550 142 q 668 315 642 239 q 694 499 694 390 q 674 674 694 604 q 615 787 654 744 q 522 847 576 829 q 399 864 467 864 m 1642 894 q 1550 749 1603 839 q 1439 556 1497 660 q 1323 342 1381 451 q 1218 139 1265 233 l 1647 139 l 1633 -17 q 1557 -10 1613 -14 q 1427 -5 1501 -7 q 1271 -1 1353 -3 q 1117 0 1189 0 l 972 0 l 957 94 q 1056 242 1001 157 q 1168 426 1110 328 q 1284 630 1226 525 q 1393 835 1342 735 l 1007 835 l 994 989 q 1084 983 1021 986 q 1226 978 1147 981 q 1386 974 1304 975 q 1532 972 1468 972 l 1629 972 l 1642 894 m 1057 1264 l 1146 1294 l 1317 1193 l 1488 1294 l 1576 1264 l 1418 1088 q 1372 1094 1403 1090 q 1317 1097 1342 1097 q 1261 1094 1292 1097 q 1215 1088 1231 1090 l 1057 1264 z "},"ǅ":{"ha":1526,"x_min":99,"x_max":1504,"o":"m 103 958 q 240 979 158 969 q 418 989 321 989 q 613 955 528 989 q 758 858 699 921 q 849 707 818 796 q 881 510 881 618 q 845 299 881 396 q 745 133 810 203 q 590 23 681 63 q 389 -17 500 -17 q 219 -12 293 -17 q 99 0 144 -7 q 102 117 100 67 q 106 223 104 168 q 108 349 107 278 q 110 526 110 419 q 108 740 110 633 q 103 958 107 846 m 399 864 q 348 859 375 864 q 293 847 321 854 q 290 697 290 781 q 290 494 290 614 q 290 281 290 371 q 292 111 290 190 q 356 97 321 97 q 488 119 426 97 q 596 190 550 142 q 668 315 642 239 q 694 499 694 390 q 674 674 694 604 q 615 787 654 744 q 522 847 576 829 q 399 864 467 864 m 1478 631 q 1423 544 1457 599 q 1351 423 1389 490 q 1274 282 1313 356 q 1201 139 1235 208 l 1485 149 l 1475 -17 q 1414 -10 1457 -12 q 1317 -5 1371 -7 q 1208 -1 1264 -3 q 1111 0 1153 0 l 983 0 l 968 81 q 1030 172 994 118 q 1103 288 1065 225 q 1179 419 1142 350 q 1250 557 1217 489 l 996 547 l 979 711 q 1063 704 1006 707 q 1188 699 1121 701 q 1318 696 1254 697 q 1421 694 1382 694 l 1467 694 l 1478 631 m 1026 1050 l 1122 1067 l 1265 910 l 1408 1067 l 1504 1050 l 1367 818 q 1321 824 1351 821 q 1265 828 1290 828 q 1210 824 1240 828 q 1164 818 1179 821 l 1026 1050 z "}}}
